<?xml version="1.0" encoding="utf-8"?>
<!-- Generator: Adobe Illustrator 20.1.0, SVG Export Plug-In . SVG Version: 6.00 Build 0)  -->
<svg version="1.1" id="Layer_1" xmlns="http://www.w3.org/2000/svg" xmlns:xlink="http://www.w3.org/1999/xlink" x="0px" y="0px"
	 viewBox="0 0 150 150" style="enable-background:new 0 0 150 150;" xml:space="preserve">
<style type="text/css">
	.st0{fill:#FFFFFF;stroke:#3F3E31;stroke-linecap:round;stroke-linejoin:round;stroke-miterlimit:10;}
	.st1{fill:none;stroke:#3F3E31;stroke-linecap:round;stroke-linejoin:round;stroke-miterlimit:10;}
	.st2{clip-path:url(#SVGID_2_);}
	.st3{fill:#3F3E31;}
	.st4{clip-path:url(#SVGID_4_);}
</style>
<g>
	<path class="st0" d="M96.6,33.3H53.4c-15.4,0-28,12.6-28,28V117c0,15.4,12.6,28,28,28h43.2c15.4,0,28-12.6,28-28V61.3
		C124.6,45.9,112,33.3,96.6,33.3z M101.5,99.1c0,7.2-5.9,13.2-13.2,13.2H61.1c-7.2,0-13.2-5.9-13.2-13.2V71.9
		c0-7.2,5.9-13.2,13.2-13.2h27.2c7.2,0,13.2,5.9,13.2,13.2V99.1z"/>
	<path class="st0" d="M99.9,24c0-5.6,3.6-10.3,8.5-12.1c-3.5-3.8-8.5-6.3-14.1-6.3H55.7c-5.6,0-10.7,2.5-14.2,6.4
		c5,1.8,8.6,6.6,8.6,12.2v0c0,5.9-4,10.8-9.3,12.4c3.5,4.4,8.9,7.2,14.9,7.2h38.5c6.1,0,11.5-2.9,15-7.4
		C103.9,34.9,99.9,29.9,99.9,24z"/>
	<path class="st0" d="M99.9,24c0-5.6,3.6-10.3,8.5-12.1c-3.5-3.8-8.5-6.3-14.1-6.3h-2.7c0.8,2.2,1.3,4.5,1.3,6.9v12.1
		c0,10.2-8.1,18.6-18.2,19.1v0.1h19.5c6.1,0,11.5-2.9,15-7.4C103.9,34.9,99.9,29.9,99.9,24z"/>
	<path class="st0" d="M103.5,24.7h-57c-5.4,0-9.8-4.4-9.8-9.8v0C36.6,9.4,41,5,46.4,5h57c5.4,0,9.8,4.4,9.8,9.8v0
		C113.3,20.3,108.9,24.7,103.5,24.7z"/>
	<path class="st1" d="M103.5,19.2H46.4c-3.3,0-6-2.7-6-6v0c0-3.3,2.7-6,6-6h57.1c3.3,0,6,2.7,6,6v0
		C109.5,16.5,106.8,19.2,103.5,19.2z"/>
	<g>
		<defs>
			<path id="SVGID_1_" d="M46,11.4c-1.6,0-4.8,0.4-5.5,1.6c-0.3,0.6,0.1,1.7,0.3,2.1c0.9,2.2,2.7,4,5.2,4h57.1c2.5,0,5.1-1.5,6-3.8
				c0-2.3-3.5-3.9-6-3.9H46z"/>
		</defs>
		<clipPath id="SVGID_2_">
			<use xlink:href="#SVGID_1_"  style="overflow:visible;"/>
		</clipPath>
		<g class="st2">
			<path class="st3" d="M52.5,19.7c0,1.3-1,2.4-2.4,2.4c-1.3,0-2.4-1.1-2.4-2.4c0-1.3,1.1-2.4,2.4-2.4
				C51.5,17.4,52.5,18.4,52.5,19.7z"/>
			<path class="st3" d="M58.5,19.7c0,1.3-1,2.4-2.4,2.4c-1.3,0-2.4-1.1-2.4-2.4c0-1.3,1.1-2.4,2.4-2.4
				C57.5,17.4,58.5,18.4,58.5,19.7z"/>
			<path class="st3" d="M64.5,19.7c0,1.3-1,2.4-2.4,2.4c-1.3,0-2.4-1.1-2.4-2.4c0-1.3,1.1-2.4,2.4-2.4
				C63.4,17.4,64.5,18.4,64.5,19.7z"/>
			<path class="st3" d="M70.5,19.7c0,1.3-1,2.4-2.4,2.4c-1.3,0-2.4-1.1-2.4-2.4c0-1.3,1.1-2.4,2.4-2.4
				C69.4,17.4,70.5,18.4,70.5,19.7z"/>
			<path class="st3" d="M76.3,19.7c0,1.3-1,2.4-2.4,2.4c-1.3,0-2.4-1.1-2.4-2.4c0-1.3,1.1-2.4,2.4-2.4
				C75.2,17.4,76.3,18.4,76.3,19.7z"/>
			<path class="st3" d="M82.3,19.7c0,1.3-1,2.4-2.4,2.4c-1.3,0-2.4-1.1-2.4-2.4c0-1.3,1.1-2.4,2.4-2.4
				C81.2,17.4,82.3,18.4,82.3,19.7z"/>
			<path class="st3" d="M88.2,19.7c0,1.3-1,2.4-2.4,2.4c-1.3,0-2.4-1.1-2.4-2.4c0-1.3,1.1-2.4,2.4-2.4
				C87.2,17.4,88.2,18.4,88.2,19.7z"/>
			<path class="st3" d="M94.2,19.7c0,1.3-1,2.4-2.4,2.4c-1.3,0-2.4-1.1-2.4-2.4c0-1.3,1.1-2.4,2.4-2.4
				C93.2,17.4,94.2,18.4,94.2,19.7z"/>
			<path class="st3" d="M55.7,14.9c0,1.3-1,2.4-2.4,2.4c-1.3,0-2.4-1.1-2.4-2.4c0-1.3,1.1-2.4,2.4-2.4
				C54.6,12.5,55.7,13.6,55.7,14.9z"/>
			<path class="st3" d="M61.7,14.9c0,1.3-1,2.4-2.4,2.4c-1.3,0-2.4-1.1-2.4-2.4c0-1.3,1.1-2.4,2.4-2.4
				C60.6,12.5,61.7,13.6,61.7,14.9z"/>
			<path class="st3" d="M67.6,14.9c0,1.3-1,2.4-2.4,2.4c-1.3,0-2.4-1.1-2.4-2.4c0-1.3,1.1-2.4,2.4-2.4
				C66.6,12.5,67.6,13.6,67.6,14.9z"/>
			<path class="st3" d="M73.6,14.9c0,1.3-1,2.4-2.4,2.4c-1.3,0-2.4-1.1-2.4-2.4c0-1.3,1.1-2.4,2.4-2.4
				C72.5,12.5,73.6,13.6,73.6,14.9z"/>
			<path class="st3" d="M79.4,14.9c0,1.3-1,2.4-2.4,2.4c-1.3,0-2.4-1.1-2.4-2.4c0-1.3,1.1-2.4,2.4-2.4
				C78.4,12.5,79.4,13.6,79.4,14.9z"/>
			<path class="st3" d="M85.4,14.9c0,1.3-1,2.4-2.4,2.4c-1.3,0-2.4-1.1-2.4-2.4c0-1.3,1.1-2.4,2.4-2.4
				C84.4,12.5,85.4,13.6,85.4,14.9z"/>
			<path class="st3" d="M91.4,14.9c0,1.3-1,2.4-2.4,2.4c-1.3,0-2.4-1.1-2.4-2.4c0-1.3,1.1-2.4,2.4-2.4
				C90.3,12.5,91.4,13.6,91.4,14.9z"/>
			<path class="st3" d="M97.3,14.9c0,1.3-1,2.4-2.4,2.4c-1.3,0-2.4-1.1-2.4-2.4c0-1.3,1.1-2.4,2.4-2.4
				C96.3,12.5,97.3,13.6,97.3,14.9z"/>
			<path class="st3" d="M100.1,19.7c0,1.3-1,2.4-2.4,2.4c-1.3,0-2.4-1.1-2.4-2.4c0-1.3,1.1-2.4,2.4-2.4
				C99,17.4,100.1,18.4,100.1,19.7z"/>
		</g>
	</g>
	<g>
		<ellipse transform="matrix(0.5 -0.866 0.866 0.5 -42.2619 108.4931)" class="st0" cx="72.8" cy="90.8" rx="14.4" ry="14.4"/>
		<g>
			<ellipse transform="matrix(0.5 -0.866 0.866 0.5 -29.9752 108.4513)" class="st0" cx="78.9" cy="80.2" rx="0.9" ry="1.4"/>
			<path class="st0" d="M81,76c0,0,0-0.2,0-0.3c-0.3-2.3-0.7-6.2-0.7-8.1c0-0.8-0.2-2.1-0.6-1.9c-0.9,0.7-1.5,6.2-1.5,6.2
				s-1.5-1.9-1.7-1c-0.2,0.9-0.2,5.4,3.4,6.3c0.1,0,0.2,0,0.2,0L81,76z"/>
			<path class="st0" d="M79.5,80.7L78.2,80c-0.1,0-0.1-0.1-0.1-0.2l5.4-9.4c0-0.1,0.1-0.1,0.2-0.1l1.3,0.7c0.1,0,0.1,0.1,0.1,0.2
				l-5.4,9.4C79.6,80.8,79.5,80.8,79.5,80.7z"/>
			<path class="st0" d="M81.5,76.4c0,0,0.2-0.1,0.2-0.1c2.1-0.9,5.7-2.5,7.3-3.5c0.7-0.4,2-0.9,1.9-0.5c-0.1,1.2-4.7,4.4-4.7,4.4
				s2.4,0.3,1.7,1c-0.7,0.6-4.6,2.9-7.1,0.2c0,0-0.1-0.2-0.1-0.2L81.5,76.4z"/>
		</g>
	</g>
</g>
</svg>
