<?xml version="1.0" encoding="utf-8"?>
<!-- Generator: Adobe Illustrator 20.1.0, SVG Export Plug-In . SVG Version: 6.00 Build 0)  -->
<svg version="1.1" id="Layer_1" xmlns="http://www.w3.org/2000/svg" xmlns:xlink="http://www.w3.org/1999/xlink" x="0px" y="0px"
	 viewBox="0 0 150 150" style="enable-background:new 0 0 150 150;" xml:space="preserve">
<style type="text/css">
	.st0{fill:#FFFFFF;stroke:#3F3E31;stroke-linecap:round;stroke-linejoin:round;stroke-miterlimit:10;}
	.st1{fill:none;stroke:#3F3E31;stroke-linecap:round;stroke-linejoin:round;stroke-miterlimit:10;}
	.st2{clip-path:url(#SVGID_2_);}
	.st3{fill:#3F3E31;}
	.st4{clip-path:url(#SVGID_4_);}
</style>
<g>
	<g>
		<g>
			<g>
				<defs>
					<path id="SVGID_3_" d="M145,74.9c0,14.5-4.4,27.9-11.9,39.1c-12.6,18.6-33.9,30.8-58,30.8c-28.4,0-52.8-16.8-63.7-41.1
						C7.3,94.9,5,85.1,5,74.9C5,36.3,36.4,5,75,5S145,36.3,145,74.9z"/>
				</defs>
				<clipPath id="SVGID_2_">
					<use xlink:href="#SVGID_3_"  style="overflow:visible;"/>
				</clipPath>
				<g class="st2">
					<g>
						<g>
							<path class="st1" d="M44.8,90.5C44.8,90.5,44.8,90.5,44.8,90.5l0-0.2c3.5-1.9,7.2-5,9.1-9.1L54,66.4c0-1.6-0.1-3.3-0.5-4.8
								c-1.9,0.5-5.3,0-7.8-1.2c-2-1-3.4-2.5-4.3-4c-1.4,1.9-3.6,3.7-6.2,5c-3.9,1.9-8.7,2.8-11.6,1.7c-0.2,1-0.3,2.1-0.3,3.2v15.4
								c2,4,5.5,6.8,8.9,8.6L28.5,101l9.3,17.9l10.6-17.8L44.8,90.5z"/>
						</g>
						<g>
							<path class="st1" d="M22.6,70.2v-4.4c0-1.2,0.1-2.4,0.3-3.5c3.1,1.1,7.5,0.7,11.8-1.4c2.9-1.4,5.2-3.4,6.7-5.5
								c1,1.6,2.7,3.2,4.9,4.2c2.7,1.4,5.6,1.7,7.7,1.1c0.5,1.6,0.7,3.3,0.7,5.1v4.2c1.6-1.3,2.4-8.7,2.4-8.7
								c0-8.8-4.8-15.9-12.9-15.9H33.1c-8.1,0-12.8,6.4-12.8,15.3C20.3,60.7,20.9,68.9,22.6,70.2z"/>
						</g>
						<g>
							<path class="st1" d="M14,138.9c0,0,1.3,37.3,0.4,39.3c0.5,1.6,2.5,7.3,3.3,8.9c0.1,0.1,0.1,0.2,0.2,0.3
								c0.2,0.4,0.4,0.7,0.6,1.1l39,0c0.1-0.2,0.2-0.4,0.3-0.6c-0.1,0.1-0.1,0,0.3-0.7c0.9-1.6,2.9-7.4,3.5-8.9
								c-0.8-2.7,1.2-39.2,1.2-39.2s0.5,2,1,5.3h10c-0.5-14.9-3-26.8-3-26.8l-0.8-2.1c-1.3-7.2-5-14.7-12.5-14.7h-8.1l-11.8,19.6
								l-10-19.6h-9.2c-7.6,0-11.2,7.5-12.5,14.7l-0.8,2.1c0,0-2.6,11.9-3,26.8h10.8C13.4,141,14,138.9,14,138.9z"/>
							<path class="st1" d="M61.7,179.3c-0.6,2.4-1.6,4.8-2.6,6.7c-1.1,2.4-2.4,4.8-4,7.1c0,0-0.1,0.2-0.2,0.3c0.1,0,0.1,0,0.2,0
								c1.9-0.2,3.3-1.5,3.9-3.3c-0.3,2.3-2.2,4-4.4,4c-0.1,0-0.2,0-0.2,0c-1.2,1.7-3.1,4.8-0.1,4.2c3-0.7,6.9-5.1,7.3-5.5
								c10.6-11.7,12.8-31.3,12.3-47.5h-9.9C65,152.8,65.9,166.1,61.7,179.3z"/>
							<path class="st1" d="M21.6,198.3c2.9,0.7,1-2.5-0.1-4.2c-0.1,0-0.2,0-0.2,0c-2.2,0-4-1.7-4.4-4c0.6,1.8,2.1,3.1,3.9,3.3
								c0.1,0,0.2,0,0.2,0c-0.1-0.1-0.2-0.3-0.2-0.3c-1.4-2.1-2.6-4.2-3.7-6.4c0,0,0,0,0,0c-1.2-2.2-2.3-5.1-3-7.9c0,0,0,0,0,0.1
								c-3.9-13-2.7-26.1-1.5-33.6H2c-0.4,16.2,1.7,35.7,12.3,47.5C14.7,193.2,18.6,197.6,21.6,198.3z"/>
						</g>
					</g>
				</g>
				<g class="st2">
					<g>
						<g>
							<path class="st0" d="M103.6,93.5C103.7,93.5,103.7,93.4,103.6,93.5l0-0.2c4.8-2.5,9.7-6.7,12.3-12.2l0.1-20
								c0-2.2-0.1-4.5-0.7-6.5c-2.6,0.7-7.1,0-10.5-1.7c-2.7-1.4-4.6-3.3-5.8-5.3c-1.8,2.6-4.8,5-8.4,6.8C85.5,57,78.9,58.1,75,56.7
								c-0.3,1.4-0.4,2.8-0.4,4.3v20.6c2.7,5.3,7.5,9.1,12.1,11.6l-5.1,14.3l12.6,24l14.4-23.9L103.6,93.5z"/>
						</g>
						<path class="st0" d="M109.5,107.1c1.3-0.2,2-0.8,2-0.7c0.2-0.1,0.4-0.3,0.7-0.4c3.4-1.7,6.1-4.6,7.7-8c1.8-3.2,2.8-7,2.8-11
							V54.5c0-11.9-8.9-21.6-19.9-21.6h-15C76.9,32.9,68,42.7,68,54.5v32.4c0,1.9,0.2,3.7,0.7,5.4c0.6,7.2,5.1,12.7,11.9,14.7
							c0.6,0.2,1.1-1.3,1.1-1.2c0,0,4.5-11.8,4.1-12.1c-4.5-2.7-9.3-6.5-12-11.8V60.3c0-1.6,0.2-3.2,0.4-4.7
							c4.2,1.5,10.2,0.9,15.9-1.9c3.9-1.9,7-4.6,9-7.4c1.4,2.2,3.6,4.2,6.6,5.7c3.7,1.8,7.6,2.3,10.4,1.5c0.6,2.2,1,4.5,1,6.8v21.1
							c-2.8,5.7-7.4,9.7-12.3,12.5c-0.3,0.2,4.2,12.7,4.2,12.7S109.2,107.1,109.5,107.1z"/>
						<g>
							<path class="st0" d="M62.1,158.5l3.8,42.6c-1,2.6-2.1,7.5-3.4,10.3c0.7,2.2,3.3,9.8,4.4,12c0.1,0.2,0.2,0.3,0.2,0.5
								c0.3,0.5,0.6,1,0.8,1.5l52.6,0c0.2-0.3,0.3-0.5,0.5-0.8c-0.1,0.2-0.1,0,0.5-1c1.2-2.2,4-9.9,4.7-12c-1-3.7-1.5-7.7-2.5-10.5
								l4.1-42.2c0,0,0.7,2.7,1.4,7.1h13.5c-0.6-20-4.1-36-4.1-36l-1-2.8c-1.8-9.7-6.7-19.8-16.9-19.8h-10.9L94,133.7l-13.5-26.4H68
								c-10.2,0-15.2,10.1-16.9,19.8l-1,2.8c0,0-3.5,16-4.1,36h14.6C61.3,161.3,62.1,158.5,62.1,158.5z"/>
						</g>
					</g>
				</g>
			</g>
		</g>
	</g>
	<path class="st1" d="M132.7,114c-12.6,18.7-33.9,31-58.1,31c-28.2,0-52.6-16.7-63.7-40.8"/>
</g>
</svg>
