<?xml version="1.0" encoding="utf-8"?>
<!-- Generator: Adobe Illustrator 20.1.0, SVG Export Plug-In . SVG Version: 6.00 Build 0)  -->
<svg version="1.1" id="Layer_1" xmlns="http://www.w3.org/2000/svg" xmlns:xlink="http://www.w3.org/1999/xlink" x="0px" y="0px"
	 viewBox="0 0 150 150" style="enable-background:new 0 0 150 150;" xml:space="preserve">
<style type="text/css">
	.st0{fill:#FFFFFF;stroke:#3F3E31;stroke-linecap:round;stroke-linejoin:round;stroke-miterlimit:10;}
	.st1{fill:none;stroke:#3F3E31;stroke-linecap:round;stroke-linejoin:round;stroke-miterlimit:10;}
	.st2{clip-path:url(#SVGID_2_);}
	.st3{fill:#3F3E31;}
	.st4{clip-path:url(#SVGID_4_);}
</style>
<g>
	<g>
		<polygon class="st1" points="141.3,88.1 144.9,86.1 146,92.2 		"/>
		<path class="st1" d="M133.9,75.4c0-0.4,0.4-0.6,0.7-0.4l1.7,1l0.6-1.4c0.2-0.3,0.6-0.4,0.8-0.1l1.3,1.8l1.1-1.4
			c0.2-0.3,0.7-0.2,0.8,0.1l0.9,2.1c0,0.1,0,0.2,0,0.2l1.3-0.8c0.3-0.2,0.7,0,0.7,0.4L144,79h2c0.4,0,0.6,0.4,0.4,0.7l-1.1,2
			c-0.1,0.2-0.3,0.3-0.5,0.2c0,0.1,0,0.3,0,0.4c-0.1,0.5-0.3,0.9-0.6,1.3c0.4-2.3-1.9-4.7-5.2-5.3c-1-0.2-2-0.2-2.9,0
			c-0.1,0-0.1,0-0.2,0h-1.3c-0.2,0-0.6-0.2-0.7-0.5c0-0.1,0-0.1,0-0.2V75.4z"/>
		<path class="st0" d="M145.2,82.4c-0.1,0.5-0.3,0.9-0.6,1.3c0.4-2.5-2.1-5-5.5-5.6c-1.1-0.2-2.1-0.2-3.1,0c-0.1,0-0.1,0-0.2,0h-1.3
			c-0.2,0-0.6-0.2-0.7-0.6c0,0,0-0.1,0-0.1c-1.5,1-2.5,2.8-2.5,4.8v9.3c-1.5-0.7-3.1-1.3-4.8-1.8c-7.4-2-14.6-0.7-19.2,2.9
			c2,1.4,3.3,3.4,3.3,5.7c0,0.8-0.2,1.6-0.5,2.4c-0.5,0.7-0.6,0.9-0.9,0.9c0,0,0,0,0,0c-2.1,0.1-4.4,1.6-5.8,4.1
			c1.6,4.9,6.1,9.3,12.2,11.8l0.3-1c0.4-1.3,1.7-2,2.9-1.6l0.1,0c1.3,0.4,2,1.7,1.6,2.9l-0.3,1.1c10.2,2.1,19.9-1.9,21.9-9.5
			c0.2-0.8,0.7-3.8,0.7-4.5V89.5c0,0,0,0,0,0l-1.5-1.3l3.6-2.1l0,0.1c0.2-0.8,0.4-1.7,0.4-2.6C145.3,83.1,145.3,82.7,145.2,82.4z
			 M123.1,111.7c-6.1,0-11-4.2-11-9.5c0-2.2,0.9-4.3,2.4-5.9c-0.8,1.3-1.3,2.9-1.3,4.5c0,5.2,4.9,9.5,11,9.5c3.5,0,6.6-1.4,8.6-3.6
			C130.9,109.7,127.3,111.7,123.1,111.7z"/>
		<path class="st1" d="M97.5,95.4c0.5-0.1,0.9-0.3,1.4-0.4c-4.2,0.2-7.7,2.3-9.1,5.1c-0.2-0.6-0.3-1.2-0.3-1.9
			c0-4.3,4.7-7.8,10.5-7.8c5.8,0,10.5,3.5,10.5,7.8c0,0.8-0.2,1.6-0.5,2.4c-0.5,0.7-0.6,0.9-0.9,0.9c0,0,0,0,0,0
			c-2.4,0.1-4.9,2-6.2,4.9c-1.4,3-1.1,6.1,0.4,8c-0.5-0.1-0.9-0.2-1.3-0.4c-2.8-1.3-3.7-5.4-1.9-9.2c0.4-1,1-1.8,1.7-2.5
			c-0.7,0.4-1.3,0.8-2,1.3c-3.1,2.5-4.5,6.2-3.8,9c-0.5-0.3-0.9-0.7-1.3-1.1c-2.4-2.9-1.2-7.9,2.7-11.2c0.1-0.1,0.2-0.1,0.3-0.2
			c-3.9,1.5-6.6,4.5-7.1,7.5c-0.4-0.5-0.7-1.1-0.9-1.7C88.4,101.8,91.9,97.1,97.5,95.4z"/>
		<path class="st1" d="M115.7,120.7c-0.5-0.6-0.7-1.4-0.5-2.2l0.6-2c0.4-1.3,1.7-2,2.9-1.6l0.1,0c1.3,0.4,2,1.7,1.6,2.9l-0.6,2
			c-0.3,0.9-1,1.5-1.9,1.7l1.9,3.2c0.8,0.2,1.5,0.7,2,1.6v1.6h0c0,0.1-0.1,0.2-0.2,0.2c-0.1,0-0.2-0.1-0.2-0.2h0v0l0,0l0,0v-1.1
			c0-0.3-0.2-0.5-0.5-0.5h-0.8c-0.3,0-0.5,0.2-0.5,0.5v1.1l0,0c0,0,0,0,0,0v0h0c0,0.1-0.1,0.2-0.2,0.2s-0.2-0.1-0.2-0.2h0v0l0,0l0,0
			v-1.1c0-0.3-0.2-0.5-0.5-0.5h-0.8c-0.3,0-0.5,0.2-0.5,0.5v1.1h0c0,0.1-0.1,0.2-0.2,0.2s-0.2-0.1-0.2-0.2h0v0l0,0l0,0v-1.3
			c0.3-0.7,0.8-1.2,1.4-1.6l-2.4-4.2C115.7,120.7,115.7,120.7,115.7,120.7z"/>
		<path class="st1" d="M126.4,119.8c0.7,0,1.3,0,1.9-0.1l0,0.1c-0.3,0.9-1,1.5-1.9,1.7l1.9,3.2c0.8,0.2,1.5,0.7,2,1.6v1.6h0
			c0,0.1-0.1,0.2-0.2,0.2c-0.1,0-0.2-0.1-0.2-0.2h0v0l0,0l0,0v-1.1c0-0.3-0.2-0.5-0.5-0.5h-0.8c-0.3,0-0.5,0.2-0.5,0.5v1.1l0,0
			c0,0,0,0,0,0v0h0c0,0.1-0.1,0.2-0.2,0.2c-0.1,0-0.2-0.1-0.2-0.2h0v0l0,0l0,0v-1.1c0-0.3-0.2-0.5-0.5-0.5h-0.8
			c-0.3,0-0.5,0.2-0.5,0.5v1.1h0c0,0.1-0.1,0.2-0.2,0.2c-0.1,0-0.2-0.1-0.2-0.2h0v0l0,0l0,0v-1.3c0.3-0.7,0.8-1.2,1.4-1.6l-2.4-4.2
			c0,0,0-0.1,0-0.1c-0.2-0.3-0.4-0.6-0.5-1C124.5,119.8,125.4,119.8,126.4,119.8z"/>
	</g>
	<g>
		<path class="st1" d="M4.5,57.5c0.9,4.6,10.2-3.6,13.9-1.7c3.7,1.9,4.9,6.2,2.6,9.7s-7,4.6-10.8,2.9C0.7,64.2,3.8,53.7,4.5,57.5z"
			/>
		<path class="st1" d="M89.9,27.9c0,0-6.2,0.3-6.5,1l-5.2,9c0,0,0,0.2,0.4-0.1s3-2.1,4.9-3.8C84.4,33.2,89.9,27.9,89.9,27.9z"/>
		<path class="st1" d="M119.1,31.1c0,0,2.5-2.2,3.7-1.7l5.1,10.6c0,0,0,0.2-0.4-0.2c-0.4-0.4-3.2-2.7-5.2-4.8
			C121.3,34.1,119.1,31.1,119.1,31.1z"/>
		<g>
			<path class="st1" d="M104,51.9c-2.9,0-5.2-2.4-5.2-5.2V25.3c0-0.1,0-0.1,0-0.2L95.7,25c-2.7-0.1-4.4,3.8-3.2,7l8.3,20.9
				c1.3,3.2,4.6,3.2,6,0.1l1.8-3.9C107.7,50.8,106,51.9,104,51.9z"/>
			<path class="st1" d="M113.3,25.5l-4.1-0.1v21.3c0,0.7-0.1,1.3-0.4,1.9l7.3-16C117.5,29.5,116,25.5,113.3,25.5z"/>
		</g>
		<path class="st0" d="M100.8,52.9L95,38.4l-6.3,9c-2.3-1.1-4.8-1.8-7.5-1.8h-41c-9.4,0-17.2,7.7-17.2,17.2v12.1c0,0.3,0,0.6,0,0.9
			c0,0.3,0,0.5,0,0.8v29.2c0,4,3.3,7.3,7.3,7.3h0.5c0.2,0.2,0.4,0.4,0.7,0.6v10.9c-0.2,0.4-0.3,0.8-0.5,1.3l-1.1,3.5
			c0,1.8,1.5,3.3,3.3,3.3h2.2c1.8,0,3.3-1.5,3.3-3.3l-0.9-3.3c-0.2-0.8-0.4-1.4-0.7-1.9v-10.5c1.2-0.9,1.9-2.3,1.9-3.8V92
			c0.3,0,0.7,0.1,1,0.1h27.4v16.8c0,1.6,0.8,3,1.9,3.8v10.9c-0.2,0.4-0.3,0.8-0.5,1.3l-1.1,3.5c0,1.8,1.5,3.3,3.3,3.3h2.2
			c1.8,0,3.3-1.5,3.3-3.3l-0.9-3.3c-0.2-0.8-0.4-1.4-0.7-1.9v-10.5c1.2-0.9,1.9-2.3,1.9-3.8V92h4c9.4,0,17.2-7.7,17.2-17.2v-9
			l4.8-10.5C101.4,55.1,100.8,52.9,100.8,52.9z M62,67.3c0,3-2.3,5.6-5.3,5.9c0.2,0.5,0.3,0.9,0.3,1.5c0,2.1-1.7,3.8-3.8,3.8h-5.7
			c-2.1,0-3.8-1.7-3.8-3.8c0-0.5,0.1-1,0.3-1.4h-5.7c-3.2,0-5.9-2.6-5.9-5.9v-5c0-3.2,2.6-5.9,5.9-5.9h17.7c3.2,0,5.9,2.6,5.9,5.9
			V67.3z M91.7,64.3H86c-2.7,0-4.9-2.2-4.9-4.9c0-1.1,0.4-2.2,1.1-3h-0.9c-2.1,0-3.8-1.7-3.8-3.8s1.7-3.8,3.8-3.8H87
			c2.1,0,3.8,1.7,3.8,3.8c0,0.7-0.2,1.3-0.5,1.9h1.5c2.7,0,4.9,2.2,4.9,4.9S94.4,64.3,91.7,64.3z"/>
		<path class="st1" d="M102,25.1l-4.3-7.5c-0.2-0.3-0.5-0.4-0.8-0.2l-3.1,1.8c-0.3,0.2-0.4,0.5-0.2,0.8l2.8,4.9L102,25.1z"/>
		<path class="st1" d="M112.4,25.4l3.1-5.4c0.2-0.3,0.1-0.6-0.2-0.8l-3.1-1.8c-0.3-0.2-0.6-0.1-0.8,0.2l-4.4,7.6L112.4,25.4z"/>
		<path class="st1" d="M116.1,27.7c0.4,0.9,0.8,2.4,0.1,4.5c1.9-1.3,3.5-2.3,3.8-2.6c0.7-0.6,2-0.7,2-0.7L116.1,27.7z"/>
		<path class="st1" d="M90.4,28.2l-2.7,2.6c0,0,5.6,4.5,6.7,5.9c-1.5-2.8-3.1-6.4-2.3-7.5L90.4,28.2z"/>
		<path class="st1" d="M49.3,104.7V92l-10.1,0v14.4c0.9,0.6,1.9,0.9,3.1,0.9h0.4c0.2,0.2,0.3,0.3,0.5,0.5v8.6
			c-0.1,0.3-0.3,0.6-0.4,1l-0.9,2.8c0,1.4,1.2,2.6,2.6,2.6h1.8c1.4,0,2.6-1.2,2.6-2.6l-0.7-2.6c-0.1-0.6-0.3-1.1-0.5-1.5v-8.3
			C48.6,107.1,49.3,106,49.3,104.7z"/>
		<path class="st1" d="M84,105V91.6c-1.6,0.4-4,0.7-6.8,0.4v15.1c0.2,0.3,0.5,0.6,0.8,0.9v8.5c-0.1,0.3-0.3,0.6-0.4,1l-0.8,2.7
			c0,1.4,1.2,2.6,2.6,2.6h1.7c1.4,0,2.6-1.2,2.6-2.6l-0.7-2.6c-0.1-0.6-0.3-1.1-0.5-1.5V108C83.4,107.3,84,106.2,84,105z"/>
		<g>
			<path class="st0" d="M92.9,26.8c0.2-0.3,0.4-0.6,0.6-0.8C93.3,26.2,93,26.5,92.9,26.8z"/>
			<path class="st0" d="M94.3,25.4c0.3-0.2,0.6-0.3,0.9-0.3C94.9,25.1,94.6,25.2,94.3,25.4z"/>
			<path class="st0" d="M92.1,29c0.1-0.4,0.1-0.8,0.3-1.1C92.3,28.2,92.2,28.6,92.1,29z"/>
			<path class="st0" d="M109.2,46.7V25.4l4.1,0.1L95.7,25l3.1,0.1c0,0.1,0,0.1,0,0.2v21.4c0,2.9,2.4,5.2,5.2,5.2
				c2,0,3.7-1.1,4.6-2.8l-1.8,3.9l9.3-20.5l-7.3,16C109.1,48,109.2,47.4,109.2,46.7z"/>
			<path class="st0" d="M116.4,32c0.2-0.6,0.3-1.2,0.3-1.8C116.7,30.8,116.6,31.4,116.4,32z"/>
		</g>
	</g>
</g>
</svg>
