<?xml version="1.0" encoding="utf-8"?>
<!-- Generator: Adobe Illustrator 20.1.0, SVG Export Plug-In . SVG Version: 6.00 Build 0)  -->
<svg version="1.1" id="Layer_1" xmlns="http://www.w3.org/2000/svg" xmlns:xlink="http://www.w3.org/1999/xlink" x="0px" y="0px"
	 viewBox="0 0 140.4 156.8" style="enable-background:new 0 0 140.4 156.8;" xml:space="preserve">
<style type="text/css">
	.st0{fill:#B5D892;}
	.st1{opacity:0.3;clip-path:url(#SVGID_2_);fill:#39687A;}
	.st2{opacity:0.48;clip-path:url(#SVGID_2_);fill:#39687A;}
	.st3{clip-path:url(#SVGID_2_);}
	.st4{fill:#3F3E31;}
	.st5{fill:#E1B969;}
	.st6{opacity:0.3;clip-path:url(#SVGID_4_);fill:#39687A;}
	.st7{clip-path:url(#SVGID_4_);}
	.st8{fill:#FFFFFF;stroke:#6D6E70;stroke-width:2.8346;stroke-linecap:round;stroke-linejoin:round;stroke-miterlimit:10;}
	.st9{fill:#404041;}
	.st10{fill:none;stroke:#6D6E70;stroke-width:2.8346;stroke-linecap:round;stroke-linejoin:round;stroke-miterlimit:10;}
	.st11{opacity:0.3;fill:#39687A;}
	.st12{opacity:0.3;clip-path:url(#SVGID_6_);fill:#39687A;}
	.st13{clip-path:url(#SVGID_6_);}
	.st14{fill:#FFFFFF;}
	.st15{fill:#941B1E;}
	.st16{clip-path:url(#SVGID_8_);}
	.st17{fill:#EBAD74;}
	.st18{fill:#CB986D;}
	.st19{fill:none;stroke:#FFFFFF;stroke-linecap:round;stroke-linejoin:round;stroke-miterlimit:10;}
	.st20{fill:#B9602E;}
	.st21{fill:#BBBDBF;}
	.st22{fill:#B9602E;stroke:#FFFFFF;stroke-linecap:round;stroke-linejoin:round;stroke-miterlimit:10;}
	.st23{fill:#654011;}
	.st24{fill:#FFFFFF;stroke:#B9602E;stroke-linecap:round;stroke-linejoin:round;stroke-miterlimit:10;}
	.st25{fill:none;stroke:#B9602E;stroke-linecap:round;stroke-linejoin:round;stroke-miterlimit:10;}
	.st26{fill:#BBBDBF;stroke:#B9602E;stroke-linecap:round;stroke-linejoin:round;stroke-miterlimit:10;}
	.st27{fill:none;stroke:#EE486A;stroke-linecap:round;stroke-linejoin:round;stroke-miterlimit:10;}
	.st28{clip-path:url(#SVGID_10_);fill:#B5D892;}
	.st29{opacity:0.3;clip-path:url(#SVGID_10_);fill:#39687A;}
	.st30{clip-path:url(#SVGID_10_);}
	.st31{fill:#231F20;}
	.st32{fill:#A39186;}
	.st33{fill:#D6DE23;}
	.st34{fill:#58595B;}
	.st35{fill:#E6E7E8;}
	.st36{fill:#A6A8AB;}
	.st37{fill:#BBBDBF;stroke:#231F20;stroke-miterlimit:10;}
	.st38{fill:none;stroke:#231F20;stroke-miterlimit:10;}
</style>
<g>
	<g>
		<defs>
			<polygon id="SVGID_5_" points="-160.3,45.7 -91.2,0 -20,43.7 -20,113.6 -88.1,156.8 -160.4,117.7 			"/>
		</defs>
		<clipPath id="SVGID_2_">
			<use xlink:href="#SVGID_5_"  style="overflow:visible;"/>
		</clipPath>
		<polygon class="st1" points="70.5,183 -25.7,183 -127.4,81.2 -109.3,65.2 -98.8,38.2 -85.6,27.2 		"/>
		<polygon class="st1" points="53.1,228.5 -7.8,228.5 -111.3,125.1 -57.5,117.7 		"/>
		<polygon class="st1" points="52.8,218.4 -8.1,218.4 -111.6,115 -60.3,105 		"/>
		<polygon class="st1" points="38.7,149.5 -59.2,177.8 -110.9,125.6 -81.6,102.3 -64.8,46 		"/>
	</g>
</g>
<g>
	<g>
		<defs>
			<polygon id="SVGID_9_" points="0.1,45.7 69.2,0 140.4,43.7 140.4,113.6 72.3,156.8 0,117.7 			"/>
		</defs>
		<clipPath id="SVGID_4_">
			<use xlink:href="#SVGID_9_"  style="overflow:visible;"/>
		</clipPath>
		<polygon style="clip-path:url(#SVGID_4_);fill:#B5D892;" points="0.1,45.7 69.2,0 140.4,43.7 140.4,113.6 72.3,156.8 0,117.7 		
			"/>
		
			<rect x="121.7" y="75.3" transform="matrix(0.7071 -0.7071 0.7071 0.7071 -49.9712 134.5407)" class="st6" width="31.4" height="104.5"/>
		<polygon class="st6" points="123.1,47.4 113.4,47.4 109.3,43.3 101.9,47.3 93.1,55.1 93.1,55.4 93,55.4 92.9,79.9 88.7,101.2 
			161.2,173.7 205.3,129.5 		"/>
		<polygon class="st6" points="148.5,156.7 130.1,175.1 61.5,106.6 67.7,95.7 67.8,89.1 75.8,84 		"/>
		<polygon class="st6" points="138.1,130.6 50.1,42.6 30.7,63.4 38.4,71.2 30.5,79.1 22.6,71.2 12.2,83.4 83.9,155.1 89,150.1 
			102.9,164 117.1,149.8 117.9,150.7 		"/>
		<polygon class="st6" points="155.7,143.4 86.1,187.1 13.5,114.4 126.7,114.4 		"/>
		<g class="st7">
			<rect x="15.1" y="110.1" class="st31" width="7.8" height="2.6"/>
			<rect x="42.4" y="110.1" class="st31" width="7.8" height="2.6"/>
			<g>
				
					<rect x="41.9" y="81.4" transform="matrix(0.9764 -0.2161 0.2161 0.9764 -19.9952 11.4825)" class="st4" width="1.2" height="31.6"/>
				
					<rect x="22.1" y="80.9" transform="matrix(-0.9764 -0.2161 0.2161 -0.9764 23.9493 196.1123)" class="st4" width="1.2" height="31.6"/>
				<rect x="33.4" y="87.6" transform="matrix(0.5 -0.866 0.866 0.5 -69.4451 79.292)" class="st4" width="1.2" height="24.4"/>
				<rect x="30.6" y="87.5" transform="matrix(-0.5 -0.866 0.866 -0.5 -39.6317 176.7508)" class="st4" width="1.1" height="24.6"/>
				<path class="st32" d="M16.7,83.4c1.1-2.7,3.9-4.5,6.9-4.2c2.5,0.3,4.5,2,5.4,4.2h5.5c0.6-6.2-3.8-11.7-9.8-12.4
					c-6.1-0.7-11.6,3.8-12.3,10.1c-0.1,0.8-0.1,1.5,0,2.3H16.7z"/>
				<polygon class="st33" points="50.3,42.5 16.1,42.4 33.1,62.3 				"/>
				<circle class="st33" cx="33.2" cy="76.9" r="12.2"/>
				<g>
					<polygon class="st33" points="16.2,42.4 16.1,42.4 16.1,42.4 					"/>
					<polygon class="st32" points="37.4,42.5 28.8,57.3 33.1,62.3 50.3,42.5 					"/>
				</g>
				<polygon class="st33" points="37.5,57.5 28.9,57.5 30.7,63.4 35.7,63.4 				"/>
				<polygon class="st32" points="30.7,63.4 35.7,63.4 37.5,57.5 34.1,57.5 				"/>
				<path class="st32" d="M39.1,66.2L26.9,87.4c1.8,1.1,4,1.7,6.3,1.7c6.7,0,12.2-5.5,12.2-12.2C45.4,72.3,42.9,68.3,39.1,66.2z"/>
			</g>
			<rect x="58.8" y="110.1" class="st31" width="7.8" height="2.6"/>
			<rect x="69.4" y="110.1" class="st31" width="7.8" height="2.6"/>
			<rect x="58.8" y="110.1" class="st31" width="7.8" height="2.6"/>
			<rect x="84.5" y="110.1" class="st31" width="7.8" height="2.6"/>
			<rect x="108.7" y="110.1" class="st31" width="7.8" height="2.6"/>
			<path class="st34" d="M122.4,47.5h-12.5v4.1h10.2v57.8h4.1V49.8v-0.5v0C124.2,48.3,123.4,47.5,122.4,47.5z"/>
			<g>
				<circle class="st21" cx="67.7" cy="100.4" r="8.7"/>
				<path class="st21" d="M59.9,90.9c0,0.7,0.6,1.3,1.3,1.3h2.2c1.3-0.6,2.7-1,4.3-1s3,0.4,4.3,1h2.6c0.7,0,1.3-0.6,1.3-1.3v-1.4
					v-2.8V84H59.9v5.5h0V90.9z"/>
				<polygon class="st31" points="98.1,85 67.8,96.6 68.8,97 98.2,85.8 				"/>
				<polygon class="st31" points="68.9,102.7 102.3,96.7 101.6,97.7 69.2,103.4 				"/>
				<path class="st34" d="M67.8,84v7.2c1.5,0,2.9,0.4,4.1,1h2.6c0.7,0,1.3-0.6,1.3-1.3v-1.4v-2.8V84H67.8z"/>
				<path class="st34" d="M67.7,91.7C67.7,91.7,67.7,91.7,67.7,91.7l-7.6,13.1c1.5,2.6,4.3,4.4,7.6,4.4c4.8,0,8.7-3.9,8.7-8.7
					C76.5,95.6,72.6,91.7,67.7,91.7z"/>
				<circle class="st35" cx="67.7" cy="100.4" r="3.8"/>
				<path class="st36" d="M67.8,96.6l-3.3,5.8c0.7,1.1,1.9,1.9,3.3,1.9c2.1,0,3.8-1.7,3.8-3.8C71.6,98.3,69.9,96.6,67.8,96.6z"/>
				<circle class="st31" cx="67.7" cy="100.4" r="1.6"/>
			</g>
			<g>
				<circle class="st21" cx="100.6" cy="91" r="15.7"/>
				<path class="st31" d="M100.3,107.7c-3.4,0-6.6-1-9.2-2.8h-6.5v4.5h32.2v-4.5h-7.2C106.9,106.7,103.7,107.7,100.3,107.7z"/>
				<path class="st21" d="M94.4,75.9c1.9-0.8,4-1.2,6.2-1.2c2.2,0,4.4,0.4,6.3,1.2h0.4c1,0,1.8-0.8,1.8-1.8v-6.3c0,0,0,0,0,0V57.1
					H92.9v10.4c0,0.1,0,0.2,0,0.4V74C92.9,75,93.6,75.7,94.4,75.9z"/>
				<rect x="88.8" y="43.3" class="st21" width="20.5" height="12.3"/>
				<path class="st31" d="M84.2,48.3L84.2,48.3c-0.6,0-1.1,0.5-1.1,1V51c0,0.6,0.5,1,1,1h0V48.3z"/>
				<path class="st37" d="M88.3,43.4h-0.2c-1.8,0-3.3,1.5-3.3,3.3v5.7c0,1.8,1.5,3.3,3.3,3.3h0.2V43.4z"/>
				<path class="st34" d="M88.1,43.5c-0.7,0-1.4,0.3-1.9,0.7c0.9,1.4,1.3,3.3,1.3,5.4c0,2.1-0.4,3.9-1.2,5.3
					c0.5,0.4,1.1,0.6,1.8,0.6h0.2v-12H88.1z"/>
				<path class="st34" d="M109.2,67.8V57.1h-7.1v17.6c1.7,0.1,3.4,0.6,4.9,1.2h0.4c1,0,1.8-0.8,1.8-1.8L109.2,67.8
					C109.2,67.8,109.2,67.8,109.2,67.8z"/>
				<path class="st34" d="M102.1,75.4l-14.3,24.7c2.8,4,7.5,6.6,12.8,6.6c8.7,0,15.7-7,15.7-15.7C116.3,82.8,110,76.1,102.1,75.4z"
					/>
				<path class="st14" d="M100.3,84.4c-4,0-7.3,3.2-7.3,7.3c0,4,3.2,7.3,7.3,7.3s7.3-3.2,7.3-7.3C107.6,87.6,104.3,84.4,100.3,84.4z
					 M100.3,86.3c0.6,0,1.3,0.1,1.8,0.3l-2.5,4.6c0,0-3,0-4.7,0C95.2,88.4,97.5,86.3,100.3,86.3z M95,92.4l4.8,0
					c0,0,1.4,2.7,2.3,4.3c-0.6,0.2-1.2,0.3-1.8,0.3C97.6,97,95.4,95,95,92.4z M103.2,96.1l-2.5-4.3c0,0,2-3.8,2.5-4.7
					c1.5,1,2.4,2.6,2.4,4.5C105.7,93.5,104.7,95.2,103.2,96.1z"/>
				<path class="st34" d="M103.5,43.3c1.1,1.7,1.8,3.7,1.8,5.8c0,2.4-0.9,4.6-2.3,6.6h6.3V43.3H103.5z"/>
				<path class="st38" d="M85.1,49.2c0,0,0.1-4.3,3.3-4.6"/>
				<path class="st38" d="M85,49.7c0,0,0.2-2.9,3.4-3.1"/>
				<path class="st38" d="M85,49.9c0,0,0.2-1,3.3-1.1"/>
				<path class="st38" d="M85,49.9c0,0,0.2,0.8,3.3,0.9"/>
				<path class="st38" d="M85.1,50c0,0,0.1,2.4,3.3,2.6"/>
				<path class="st38" d="M85,50c0,0,0.1,4,3.3,4.2"/>
			</g>
			<rect x="120.2" y="110.1" class="st31" width="4.1" height="2.6"/>
			<rect x="13.4" y="113.5" class="st31" width="113.1" height="1"/>
		</g>
	</g>
</g>
</svg>
