<?xml version="1.0" encoding="utf-8"?>
<!-- Generator: Adobe Illustrator 20.1.0, SVG Export Plug-In . SVG Version: 6.00 Build 0)  -->
<svg version="1.1" id="Layer_1" xmlns="http://www.w3.org/2000/svg" xmlns:xlink="http://www.w3.org/1999/xlink" x="0px" y="0px"
	 viewBox="0 0 140.4 156.8" style="enable-background:new 0 0 140.4 156.8;" xml:space="preserve">
<style type="text/css">
	.st0{fill:#B5D892;}
	.st1{opacity:0.3;clip-path:url(#SVGID_2_);fill:#39687A;}
	.st2{opacity:0.48;clip-path:url(#SVGID_2_);fill:#39687A;}
	.st3{clip-path:url(#SVGID_2_);}
	.st4{fill:#3F3E31;}
	.st5{fill:#E1B969;}
	.st6{opacity:0.3;clip-path:url(#SVGID_4_);fill:#39687A;}
	.st7{clip-path:url(#SVGID_4_);}
	.st8{fill:#FFFFFF;stroke:#6D6E70;stroke-width:2.8346;stroke-linecap:round;stroke-linejoin:round;stroke-miterlimit:10;}
	.st9{fill:#404041;}
	.st10{fill:none;stroke:#6D6E70;stroke-width:2.8346;stroke-linecap:round;stroke-linejoin:round;stroke-miterlimit:10;}
	.st11{opacity:0.3;fill:#39687A;}
	.st12{opacity:0.3;clip-path:url(#SVGID_6_);fill:#39687A;}
	.st13{clip-path:url(#SVGID_6_);}
	.st14{fill:#FFFFFF;}
	.st15{fill:#941B1E;}
	.st16{clip-path:url(#SVGID_8_);}
	.st17{fill:#EBAD74;}
	.st18{fill:#CB986D;}
	.st19{fill:none;stroke:#FFFFFF;stroke-linecap:round;stroke-linejoin:round;stroke-miterlimit:10;}
	.st20{fill:#B9602E;}
	.st21{fill:#BBBDBF;}
	.st22{fill:#B9602E;stroke:#FFFFFF;stroke-linecap:round;stroke-linejoin:round;stroke-miterlimit:10;}
	.st23{fill:#654011;}
	.st24{fill:#FFFFFF;stroke:#B9602E;stroke-linecap:round;stroke-linejoin:round;stroke-miterlimit:10;}
	.st25{fill:none;stroke:#B9602E;stroke-linecap:round;stroke-linejoin:round;stroke-miterlimit:10;}
	.st26{fill:#BBBDBF;stroke:#B9602E;stroke-linecap:round;stroke-linejoin:round;stroke-miterlimit:10;}
	.st27{fill:none;stroke:#EE486A;stroke-linecap:round;stroke-linejoin:round;stroke-miterlimit:10;}
	.st28{clip-path:url(#SVGID_10_);fill:#B5D892;}
	.st29{opacity:0.3;clip-path:url(#SVGID_10_);fill:#39687A;}
	.st30{clip-path:url(#SVGID_10_);}
	.st31{fill:#231F20;}
	.st32{fill:#A39186;}
	.st33{fill:#D6DE23;}
	.st34{fill:#58595B;}
	.st35{fill:#E6E7E8;}
	.st36{fill:#A6A8AB;}
	.st37{fill:#BBBDBF;stroke:#231F20;stroke-miterlimit:10;}
	.st38{fill:none;stroke:#231F20;stroke-miterlimit:10;}
</style>
<g>
	<g>
		<defs>
			<polygon id="SVGID_3_" points="-160.3,45.7 -91.2,0 -20,43.7 -20,113.6 -88.1,156.8 -160.4,117.7 			"/>
		</defs>
		<clipPath id="SVGID_2_">
			<use xlink:href="#SVGID_3_"  style="overflow:visible;"/>
		</clipPath>
		<g class="st3">
			
				<rect x="-55.3" y="50.3" transform="matrix(0.7071 -0.7071 0.7071 0.7071 -81.6897 12.0958)" class="st11" width="58.1" height="108.7"/>
		</g>
	</g>
</g>
<g>
	<polygon class="st0" points="0.1,45.7 69.2,0 140.4,43.7 140.4,113.6 72.3,156.8 0,117.7 	"/>
	<g>
		<defs>
			<polygon id="SVGID_5_" points="0.1,45.7 69.2,0 140.4,43.7 140.4,113.6 72.3,156.8 0,117.7 			"/>
		</defs>
		<clipPath id="SVGID_4_">
			<use xlink:href="#SVGID_5_"  style="overflow:visible;"/>
		</clipPath>
		<polygon class="st6" points="230.8,183 134.7,183 33,81.2 51.1,65.2 61.5,38.2 74.7,27.2 		"/>
		<polygon class="st6" points="213.4,228.5 152.5,228.5 49.1,125.1 102.8,117.7 		"/>
		<polygon class="st6" points="213.2,218.4 152.3,218.4 48.8,115 100.1,105 		"/>
		<polygon class="st6" points="199.1,149.5 101.2,177.8 49.5,125.6 78.8,102.3 95.6,46 		"/>
		<g class="st7">
			<path class="st14" d="M52.7,28.2L73,28.7l1.6,7.6l-0.2,41l-4.2,3.4l-36.6-0.5L33,73.1c0,0,0.5-25.9,1.3-27.1
				C35.1,44.9,52.7,28.2,52.7,28.2z"/>
			<g>
				<path class="st4" d="M72.4,26.5H53.3v-0.1l-3.7,3.7v0.1L36.4,43.4h-0.1l-3.8,3.8h0l-0.4,0.4v31.1c0,2,1.6,3.6,3.6,3.6h36.7
					c2,0,3.6-1.6,3.6-3.6V30.1C76,28.1,74.4,26.5,72.4,26.5z M49.6,32.2v7c0,2.3-1.9,4.2-4.2,4.2h-7L49.6,32.2z M72.8,75.4
					c0,2-1.6,3.6-3.6,3.6H39c-2,0-3.6-1.6-3.6-3.6V47.2h13.8c2.3,0,4.2-1.9,4.2-4.2V29.8h15.9c2,0,3.6,1.6,3.6,3.6V75.4z"/>
				<polygon class="st15" points="64.2,31.8 66,35.5 70.1,36.1 67.2,38.9 67.9,43 64.2,41.1 60.5,43 61.2,38.9 58.3,36.1 62.4,35.5 
									"/>
				<rect x="38.9" y="51.4" class="st4" width="30.3" height="1.9"/>
				<rect x="38.9" y="59.5" class="st4" width="30.3" height="1.9"/>
				<rect x="38.9" y="67.6" class="st4" width="30.3" height="1.9"/>
			</g>
			<g>
				<g>
					<defs>
						<circle id="SVGID_7_" cx="76.5" cy="83.5" r="49.7"/>
					</defs>
					<clipPath id="SVGID_6_">
						<use xlink:href="#SVGID_7_"  style="overflow:visible;"/>
					</clipPath>
					<g class="st13">
						<g>
							<path class="st17" d="M112.4,167.1c-0.3-0.6-1.1-2-1.8-3.2l0.3-1l-7.4-52.5l0,0c-1.1-5.1-5.7-9-11.1-9H87L85,93.6
								c4.7-2.6,8-8.6,8-15.6c0-9.4-5.9-16.9-13.3-16.9c-7.3,0-13.3,7.6-13.3,16.9c0,7.1,3.4,13.1,8.2,15.6l-2.1,7.6H65
								c-5.5,0-10.2,4-11.1,9.3l-0.2,0l-7.2,51.6l0.6,2.2c-1.3,4.3-2.6,12.1-2.4,12.3c0.3,0.3,2.5,3.9,3,4.2
								c0.5,0.3,2.9-1.5,3.6-2.4c0.3-0.4,1-1.9,0.3-2.2c-0.7-0.3-2.2,1.4-2.9,1.2c-0.5-0.1-0.9-1.9-0.9-1.9l1.4-1.2
								c0,0-0.1,1.4,0.2,1.6c0.4,0.2,1.5-0.5,2.1-1l0,0c0,0,1.1-2.3,1.3-3.4c0.2-1.1-1.5-3.9-1.7-4.4c0-0.2,7.9-34.5,7.9-34.5
								l6.4,22.1c-5.7,8.1-10.1,19.2-10.1,33.1c0,12.7,3,24.1,7.9,32.2h33.9c4.9-8,7.9-19.5,7.9-32.2c0-13.8-3.6-26.1-9.2-34.1
								l3.4-13.9l7.5,25.4c0,0,0.2,2.4,0.1,3.3c-0.2,2.4-0.6,3.7,0.3,4.4c0.8,0.6,1.6,1.4,2.2,1.4c1.1,0.2,0-3.8,0-3.8
								s1.2,4.3,1.4,5.4c0.2,1.1-1.1,2.6-0.4,3.3c0.6,0.6,2.3-0.1,3-0.7c0.6-0.6,2.1-4,2.2-5.5C115.6,171.5,112.9,168.2,112.4,167.1
								z"/>
							<path class="st18" d="M112.4,167.1c-0.3-0.6-1.1-2-1.8-3.2l0.3-1l-7.4-52.5l0,0c-1.1-5.1-5.7-9-11.1-9H87L85,93.6
								c4.7-2.6,8-8.6,8-15.6c0-9.2-5.7-16.7-12.9-16.9v158.9h17c4.9-8,7.9-19.5,7.9-32.2c0-13.8-3.6-26.1-9.2-34.1l3.4-13.9
								l7.5,25.4c0,0,0.2,2.4,0.1,3.3c-0.2,2.4-0.6,3.7,0.3,4.4c0.8,0.6,1.6,1.4,2.2,1.4c1.1,0.2,0-3.8,0-3.8s1.2,4.3,1.4,5.4
								c0.2,1.1-1.1,2.6-0.4,3.3c0.6,0.6,2.3-0.1,3-0.7c0.6-0.6,2.1-4,2.2-5.5C115.6,171.5,112.9,168.2,112.4,167.1z"/>
							<g>
								<path class="st14" d="M91.7,211.4H56.8c0,0-3.9-0.2-6.1-1.5c-3-1.7-3.6-4.2-3.6-4.3c0-0.1,0-0.2,0-0.3l6.9-17.5
									c0.6-12.5,4.1-24.1,9.6-32l-4.4-16.4l0.1,0.9c0,0.2-0.1,0.4-0.2,0.5c-0.1,0.1-0.2,0.1-0.3,0.1c-0.1,0-0.2,0-0.2-0.1
									L47.1,135c-0.2-0.1-0.3-0.3-0.3-0.6l5.4-23.2c0-0.1,0.1-0.3,0.3-0.3c1.2-5.7,6.2-9.7,12-9.7H67c0.1,0,0.2,0,0.3,0.1l12.7,10
									l10.1-9.9c0.1-0.1,0.2-0.1,0.4-0.1h2.5c5.7,0,10.7,4,12,9.6c0,0,0.1,0.1,0.1,0.1l6.5,26.9c0,0.2,0,0.4-0.2,0.5l-11.2,8.5
									c-0.1,0.1-0.2,0.1-0.3,0.1c-0.1,0-0.2,0-0.2-0.1c-0.1,0-0.1-0.1-0.2-0.2l-2.3,9.4c6,8.8,9.5,21.8,9.5,35.6
									c0,6.7-0.8,13.2-2.4,19.3c-0.1,0.2-0.3,0.4-0.5,0.4h-1.9c-0.1,0-0.1,0-0.2,0C101.6,211.5,91.7,211.4,91.7,211.4z"/>
								<path class="st20" d="M92.9,101.7c5.6,0,10.4,4,11.5,9.3l0,0L111,138l-11.2,8.5l0.3-4.7l-3.5,14.5
									c5.8,8.4,9.5,21.2,9.5,35.5c0,6.9-0.9,13.4-2.4,19.2h-2.1l0,0l-10,0H56.8c-0.2,0-3.8-0.2-5.9-1.4c-2.9-1.6-3.3-3.9-3.3-3.9
									l6.9-17.6c0.6-13,4.2-24.4,9.6-32.1l-5.8-21.6l0.4,6.1l-11.4-5.8l5.4-23.2l0.2,0c1-5.5,5.8-9.7,11.6-9.7H67L80,112
									l10.4-10.3H92.9 M92.9,100.7h-2.5c-0.3,0-0.5,0.1-0.7,0.3l-9.8,9.6l-12.4-9.7c-0.2-0.1-0.4-0.2-0.6-0.2h-2.5
									c-6,0-11.1,4.1-12.4,9.9c-0.1,0.1-0.2,0.3-0.3,0.5l-5.4,23.2c-0.1,0.4,0.1,0.9,0.5,1.1l11.4,5.8c0.1,0.1,0.3,0.1,0.5,0.1
									c0.1,0,0.3,0,0.4-0.1l3.9,14.5c-5.5,8-8.9,19.6-9.5,32l-6.9,17.4c-0.1,0.2-0.1,0.4-0.1,0.6c0,0.1,0.6,2.8,3.8,4.6
									c2.4,1.3,6.3,1.5,6.4,1.5h34.8l10,0c0,0,0,0,0,0c0.1,0,0.2,0,0.3,0h1.8c0.5,0,0.9-0.3,1-0.7c1.6-6.1,2.4-12.7,2.4-19.5
									c0-13.8-3.4-26.8-9.5-35.7l2.1-8.6c0,0,0,0,0.1,0c0.2,0,0.4-0.1,0.6-0.2l11.2-8.5c0.3-0.2,0.5-0.6,0.4-1l-6.5-26.9
									c0-0.1,0-0.2-0.1-0.2C104,104.9,98.8,100.7,92.9,100.7L92.9,100.7z"/>
							</g>
							<path class="st21" d="M100.1,141.7l-0.3,4.7L111,138l-6.5-26.9l0,0c-1.1-5.3-5.9-9.3-11.5-9.3h-2.5L79.9,112l0.2,99.1
								l11.5-0.1l10,0l0,0h2.1c1.5-5.8,2.4-12.4,2.4-19.2c0-14.3-3.7-27.1-9.5-35.5L100.1,141.7z"/>
							<path class="st22" d="M105.1,107.7l-21.4,22.7c0,0-1.9,2.4-5.5,0.3c-3.6-2.1-29.4-15.9-29.4-15.9s1.6-9.9,4.5-11.8
								s17.6-3.5,17.6-3.5l10.2,9.7c0,0,2.1,2.8,4,1.2c1.9-1.6,10.2-10.5,10.2-10.5S104,100.1,105.1,107.7z"/>
							<g>
								<path class="st23" d="M95.4,100.5c0,0-9.4,10.2-10.5,10.8c-2,1-3.7-1-3.7-1l-0.6-0.6V131c2,0,3-1.4,3-1.4l20.8-22.1
									C103.3,100.8,95.4,100.5,95.4,100.5z"/>
							</g>
							<path class="st19" d="M99.5,102.4l-13.8,15.8c0,0-1.2,1.7-3.4,0.5c-2.6-1.5-13.4-7.4-13.4-7.4"/>
							<path class="st19" d="M86.5,125.7c0,0-1.2,1.7-3.4,0.5c-2.6-1.5-18.9-10.6-18.9-10.6"/>
							<g>
								<g>
									<path class="st24" d="M62.5,69.6c-1.4,0-1.6-2.1-2.2-2.6c-2.2-1.5-3.4,6.1-4.4,6c-1.1-0.1-4.2,0-4-6.1
										c0.3-11,9.5-19.2,19.4-19.2c4,0,8,1.2,10.9,3.8C83.3,52.7,62.9,69.6,62.5,69.6z"/>
									<path class="st24" d="M97.2,72.3c0,3.1-3.8,6.9-4.8,9.6c-3,8-1.9,4.6-10,4.6c-10.8,0-17.4,3-20.1-11.3c-0.2-1-4.2,0-4-6.1
										c0.3-11,9.5-19.2,19.4-19.2C88.5,49.9,97.2,59.9,97.2,72.3z"/>
									<path class="st25" d="M62.2,70.8c0.2-8.9,7.2-19.1,19.5-19.1"/>
									<path class="st25" d="M65.2,77.9c-0.4-1.6-0.7-3.3-0.7-5c0-9.2,6.6-16.4,14.7-17.3c0.9-0.1,2.3-0.1,3.7,0.1"/>
									<path class="st25" d="M68.2,71.5c0.5-3.8,2.4-7.2,5.5-9.1c3.2-2,7.1-2.1,10.7-0.8"/>
									<path class="st17" d="M77,66.9c-2.7,0-5.4,0.5-7.8,1.4c-1.6,2.7-2.5,6-2.5,9.6c0,9.1,6,16.6,13.4,16.6S93.5,87.1,93.5,78
										c0-1.6-0.2-3.1-0.5-4.6C88.8,69.4,83.2,66.9,77,66.9z"/>
									<path class="st18" d="M93,73.4c-3.4-3.3-7.8-5.5-12.7-6.2v27.3c7.3-0.1,13.2-7.5,13.2-16.5C93.5,76.4,93.3,74.9,93,73.4z"
										/>
									<path class="st25" d="M93,73.4c-4.2-4-9.8-6.5-15.9-6.5c-2.7,0-5.4,0.5-7.8,1.4"/>
									<g>
										
											<rect x="88.3" y="44.6" transform="matrix(0.829 0.5593 -0.5593 0.829 42.4371 -41.5405)" class="st21" width="1.6" height="8"/>
										<g>
											<path class="st24" d="M95.9,46.6l-2.9-2c-0.3-0.2-0.8-0.3-1.2-0.2c0.3,0.4,0.3,1,0,1.5l-4.3,6.3
												c-0.3,0.5-0.9,0.7-1.5,0.5c0.1,0.4,0.3,0.7,0.6,0.9l2.9,2c0.7,0.5,1.6,0.3,2.1-0.4l4.6-6.5C96.8,48,96.6,47.1,95.9,46.6z
												"/>
										</g>
										<path class="st24" d="M91.1,44.9c-0.3,0-0.6,0.3-0.9,0.6l-3.5,5.1c-0.2,0.3-0.3,0.7-0.3,1"/>
									</g>
									<path class="st21" d="M85.6,54.4c0,0.8,0,1.2,0.8,1.9c0.4,0.4,0,0.9,2.9-0.3c1.1-0.5,2.5-1.4,2.5-1.8c-0.2-2.4-3-1.1-5-1.2
										"/>
									<path class="st26" d="M89.3,52.9c0.9,0,2.6,1.1,2.6,0.8c-0.2-1.7-1.7-2.9-3.2-2.9c-1.9,0-3.5,1.7-3.5,3.8
										c0,0.5,0.4,1.7,1,2.2C86.4,57,86.1,52.8,89.3,52.9z"/>
									<g>
										
											<rect x="92" y="51.4" transform="matrix(-0.2483 0.9687 -0.9687 -0.2483 170.2152 -19.914)" class="st21" width="1.7" height="9.4"/>
										<g>
											<path class="st24" d="M97.6,62.1l1-3.5c0.1-0.4,0.1-0.9-0.2-1.2c-0.4,0.4-0.9,0.6-1.5,0.5l-7.6-2.1c-0.6-0.2-1-0.6-1-1.3
												c-0.3,0.2-0.6,0.5-0.7,0.9l-1,3.5c-0.2,0.8,0.2,1.7,1.1,1.9l8,2.4C96.5,63.4,97.3,62.9,97.6,62.1z"/>
										</g>
										<path class="st24" d="M97.6,56.8c-0.1-0.3-0.5-0.5-0.9-0.6l-6.3-1.7c-0.4-0.1-0.8-0.1-1.1,0.1"/>
									</g>
								</g>
								<path class="st24" d="M93.1,71.4c0,0-0.2-4-1.9-6.2"/>
							</g>
							<g>
								<circle class="st20" cx="67.9" cy="139.9" r="1.3"/>
								<ellipse class="st20" cx="67.8" cy="135.4" rx="0.8" ry="2.4"/>
								
									<ellipse transform="matrix(0.7104 -0.7038 0.7038 0.7104 -75.5709 89.6035)" class="st20" cx="71.1" cy="136.6" rx="2.4" ry="0.8"/>
								
									<ellipse transform="matrix(0.9657 -0.2595 0.2595 0.9657 -33.7678 23.6013)" class="st20" cx="72.5" cy="139.7" rx="2.4" ry="0.8"/>
								
									<ellipse transform="matrix(0.7038 -0.7104 0.7104 0.7038 -77.9755 86.2466)" class="st20" cx="64.4" cy="136.6" rx="0.8" ry="2.4"/>
								
									<ellipse transform="matrix(0.2595 -0.9657 0.9657 0.2595 -88.2517 164.3136)" class="st20" cx="63" cy="139.7" rx="0.8" ry="2.4"/>
							</g>
							<g>
								<circle class="st20" cx="87.1" cy="140.7" r="1.3"/>
								<ellipse class="st20" cx="87" cy="136.2" rx="0.8" ry="2.4"/>
								
									<ellipse transform="matrix(0.7104 -0.7038 0.7038 0.7104 -70.5993 103.3519)" class="st20" cx="90.3" cy="137.5" rx="2.4" ry="0.8"/>
								
									<ellipse transform="matrix(0.9657 -0.2595 0.2595 0.9657 -33.3266 28.6099)" class="st20" cx="91.7" cy="140.5" rx="2.4" ry="0.8"/>
								
									<ellipse transform="matrix(0.7038 -0.7104 0.7104 0.7038 -72.8827 100.1272)" class="st20" cx="83.6" cy="137.5" rx="0.8" ry="2.4"/>
								
									<ellipse transform="matrix(0.2595 -0.9657 0.9657 0.2595 -74.8446 183.4649)" class="st20" cx="82.2" cy="140.5" rx="0.8" ry="2.4"/>
							</g>
							<g>
								<circle class="st20" cx="98.2" cy="129" r="1.3"/>
								<ellipse class="st20" cx="98.1" cy="124.4" rx="0.8" ry="2.4"/>
								
									<ellipse transform="matrix(0.7038 -0.7104 0.7104 0.7038 -61.2369 104.5263)" class="st20" cx="94.7" cy="125.7" rx="0.8" ry="2.4"/>
								
									<ellipse transform="matrix(0.2595 -0.9657 0.9657 0.2595 -55.2634 185.4702)" class="st20" cx="93.3" cy="128.8" rx="0.8" ry="2.4"/>
								<path class="st20" d="M100.3,125.8c-0.6,0.7-0.8,1.4-0.6,1.6c0.2,0.2,0.6,0,1.2-0.3L100.3,125.8z"/>
								<path class="st20" d="M101.5,128.5c-0.7,0.3-1.1,0.7-1,1c0.1,0.3,0.7,0.4,1.6,0.3L101.5,128.5z"/>
							</g>
							<g>
								<path class="st20" d="M107.3,140.1c-0.3-0.1-0.5-0.2-0.8-0.3c-1.3-0.3-2.3-0.9-2.6,0.1c-0.3,1,0.7,1,2,1.3L107.3,140.1z"/>
								<path class="st20" d="M107.1,138c0.5,0.5,1,0.9,1.4,1.1l0.8-0.6c-0.2-0.4-0.6-1-1.1-1.5c-1-0.9-1.5-1.9-2.3-1.2
									C105.2,136.5,106.2,137,107.1,138z"/>
							</g>
							<g>
								<circle class="st20" cx="52.9" cy="129" r="1.3"/>
								<ellipse class="st20" cx="52.8" cy="124.4" rx="0.8" ry="2.4"/>
								
									<ellipse transform="matrix(0.7104 -0.7038 0.7038 0.7104 -72.2165 75.8901)" class="st20" cx="56.1" cy="125.7" rx="2.4" ry="0.8"/>
								
									<ellipse transform="matrix(0.9657 -0.2595 0.2595 0.9657 -31.4442 19.338)" class="st20" cx="57.5" cy="128.8" rx="2.4" ry="0.8"/>
								<path class="st20" d="M50,125.2l-0.3,1.7c0.7,0.5,1.3,0.7,1.5,0.5C51.5,127.1,51,126.2,50,125.2z"/>
								<path class="st20" d="M49.4,128.5l-0.3,1.3c0.7,0.1,1.2-0.1,1.3-0.3C50.5,129.1,50,128.8,49.4,128.5z"/>
							</g>
							<g>
								<ellipse class="st20" cx="98.3" cy="146.7" rx="0.8" ry="2.4"/>
								
									<ellipse transform="matrix(0.7038 -0.7104 0.7104 0.7038 -76.9909 111.3323)" class="st20" cx="95" cy="148" rx="0.8" ry="2.4"/>
								
									<ellipse transform="matrix(0.2595 -0.9657 0.9657 0.2595 -76.5839 202.2546)" class="st20" cx="93.6" cy="151.1" rx="0.8" ry="2.4"/>
							</g>
							<g>
								<circle class="st20" cx="77.3" cy="151.3" r="1.3"/>
								<ellipse class="st20" cx="77.2" cy="146.7" rx="0.8" ry="2.4"/>
								
									<ellipse transform="matrix(0.7104 -0.7038 0.7038 0.7104 -80.8345 99.5359)" class="st20" cx="80.5" cy="148" rx="2.4" ry="0.8"/>
								
									<ellipse transform="matrix(0.9657 -0.2595 0.2595 0.9657 -36.3929 26.4394)" class="st20" cx="81.9" cy="151.1" rx="2.4" ry="0.8"/>
								
									<ellipse transform="matrix(0.7038 -0.7104 0.7104 0.7038 -83.2518 96.3164)" class="st20" cx="73.9" cy="148" rx="0.8" ry="2.4"/>
								
									<ellipse transform="matrix(0.2595 -0.9657 0.9657 0.2595 -92.2362 181.8415)" class="st20" cx="72.5" cy="151.1" rx="0.8" ry="2.4"/>
							</g>
							<g>
								<ellipse class="st20" cx="66.3" cy="157.4" rx="0.8" ry="2.4"/>
								
									<ellipse transform="matrix(0.7104 -0.7038 0.7038 0.7104 -91.4949 94.9712)" class="st20" cx="69.7" cy="158.7" rx="2.4" ry="0.8"/>
							</g>
							<g>
								<ellipse class="st20" cx="87" cy="157.4" rx="0.8" ry="2.4"/>
								
									<ellipse transform="matrix(0.7104 -0.7038 0.7038 0.7104 -85.5201 109.4915)" class="st20" cx="90.3" cy="158.7" rx="2.4" ry="0.8"/>
								
									<ellipse transform="matrix(0.7038 -0.7104 0.7104 0.7038 -87.9435 106.4068)" class="st20" cx="83.6" cy="158.7" rx="0.8" ry="2.4"/>
							</g>
							<path class="st25" d="M96.7,118.3c0,0,5.6,11.2,5.6,12.4c0,1.3-4.9,25.7-4.9,25.7l2.7,4.3"/>
						</g>
					</g>
				</g>
			</g>
		</g>
	</g>
</g>
</svg>
