<?xml version="1.0" encoding="utf-8"?>
<!-- Generator: Adobe Illustrator 20.1.0, SVG Export Plug-In . SVG Version: 6.00 Build 0)  -->
<svg version="1.1" id="Layer_1" xmlns="http://www.w3.org/2000/svg" xmlns:xlink="http://www.w3.org/1999/xlink" x="0px" y="0px"
	 viewBox="0 0 140.4 156.8" style="enable-background:new 0 0 140.4 156.8;" xml:space="preserve">
<style type="text/css">
	.st0{fill:#B5D892;}
	.st1{opacity:0.3;clip-path:url(#SVGID_2_);fill:#39687A;}
	.st2{opacity:0.48;clip-path:url(#SVGID_2_);fill:#39687A;}
	.st3{clip-path:url(#SVGID_2_);}
	.st4{fill:#3F3E31;}
	.st5{fill:#E1B969;}
	.st6{opacity:0.3;clip-path:url(#SVGID_4_);fill:#39687A;}
	.st7{clip-path:url(#SVGID_4_);}
	.st8{fill:#FFFFFF;stroke:#6D6E70;stroke-width:2.8346;stroke-linecap:round;stroke-linejoin:round;stroke-miterlimit:10;}
	.st9{fill:#404041;}
	.st10{fill:none;stroke:#6D6E70;stroke-width:2.8346;stroke-linecap:round;stroke-linejoin:round;stroke-miterlimit:10;}
	.st11{opacity:0.3;fill:#39687A;}
	.st12{opacity:0.3;clip-path:url(#SVGID_6_);fill:#39687A;}
	.st13{clip-path:url(#SVGID_6_);}
	.st14{fill:#FFFFFF;}
	.st15{fill:#941B1E;}
	.st16{clip-path:url(#SVGID_8_);}
	.st17{fill:#EBAD74;}
	.st18{fill:#CB986D;}
	.st19{fill:none;stroke:#FFFFFF;stroke-linecap:round;stroke-linejoin:round;stroke-miterlimit:10;}
	.st20{fill:#B9602E;}
	.st21{fill:#BBBDBF;}
	.st22{fill:#B9602E;stroke:#FFFFFF;stroke-linecap:round;stroke-linejoin:round;stroke-miterlimit:10;}
	.st23{fill:#654011;}
	.st24{fill:#FFFFFF;stroke:#B9602E;stroke-linecap:round;stroke-linejoin:round;stroke-miterlimit:10;}
	.st25{fill:none;stroke:#B9602E;stroke-linecap:round;stroke-linejoin:round;stroke-miterlimit:10;}
	.st26{fill:#BBBDBF;stroke:#B9602E;stroke-linecap:round;stroke-linejoin:round;stroke-miterlimit:10;}
	.st27{fill:none;stroke:#EE486A;stroke-linecap:round;stroke-linejoin:round;stroke-miterlimit:10;}
	.st28{clip-path:url(#SVGID_10_);fill:#B5D892;}
	.st29{opacity:0.3;clip-path:url(#SVGID_10_);fill:#39687A;}
	.st30{clip-path:url(#SVGID_10_);}
	.st31{fill:#231F20;}
	.st32{fill:#A39186;}
	.st33{fill:#D6DE23;}
	.st34{fill:#58595B;}
	.st35{fill:#E6E7E8;}
	.st36{fill:#A6A8AB;}
	.st37{fill:#BBBDBF;stroke:#231F20;stroke-miterlimit:10;}
	.st38{fill:none;stroke:#231F20;stroke-miterlimit:10;}
</style>
<g>
	<polygon class="st0" points="0.1,45.7 69.2,0 140.4,43.7 140.4,113.6 72.3,156.8 0,117.7 	"/>
	<g>
		<defs>
			<polygon id="SVGID_3_" points="0.1,45.7 69.2,0 140.4,43.7 140.4,113.6 72.3,156.8 0,117.7 			"/>
		</defs>
		<clipPath id="SVGID_2_">
			<use xlink:href="#SVGID_3_"  style="overflow:visible;"/>
		</clipPath>
		<path class="st1" d="M91.8,175.6l0-2.8l50.9-40.4c0,0,1-36.1,1.8-58.4l-25.1-25.1L85.3,80l6.7,21.9H18.2L91.8,175.6z"/>
		<g class="st3">
			<path class="st8" d="M59,52c0,0-14.2-13.9-36-6.4c-2,0.7-4.8,3.2-4.8,3.2v52.7l39.5,0h42.6l0.1-52.5c0,0-22.4-11.9-35.2-1.6
				C60.3,51.3,59,52,59,52z"/>
			<path class="st9" d="M20.1,98.9c0,0,8.8-6.7,17.1-6.5c8.3,0.2,20.9,6.5,20.9,6.5l3.9,0c0,0,12.5-7.5,17.7-7.2
				c5.2,0.3,15,3.3,18.4,7c1.4,1.5,2.2,2.1,0.7,2.4c-2,0.3-6.9-0.1-6.9-0.1l-32.1,1.1l-36.9-0.7c0,0-2.7,0.2-3.5-0.2
				C18.6,100.9,19.2,99.9,20.1,98.9z"/>
			<path class="st10" d="M24.4,57.7c0,0,2.9-2.9,10-2.7c7.1,0.2,16.2,3.7,16.2,3.7"/>
			<path class="st10" d="M24.4,65.6c0,0,2.9-2.9,10-2.7c7.1,0.2,16.2,3.7,16.2,3.7"/>
			<path class="st10" d="M24.4,74c0,0,2.9-2.9,10-2.7c7.1,0.2,16.2,3.7,16.2,3.7"/>
			<path class="st10" d="M93.2,58.4c0,0-2.9-2.9-10-2.7C76.1,55.8,67,59.3,67,59.3"/>
			<path class="st10" d="M93.2,66.3c0,0-2.9-2.9-10-2.7C76.1,63.7,67,67.2,67,67.2"/>
			<path class="st10" d="M93.2,74.7c0,0-2.9-2.9-10-2.7C76.1,72.1,67,75.6,67,75.6"/>
			
				<rect x="105.1" y="50.3" transform="matrix(0.7071 -0.7071 0.7071 0.7071 -34.7131 125.5073)" class="st11" width="58.1" height="108.7"/>
			<path class="st9" d="M119.5,48.7c-2-1.6-8-8-8-8s-2.8-0.9-4.3,1.1l-25.9,28c0,0-6.6,16.9-5.9,17c0.8,0.2,14.3-4.9,16-5.4
				C93.1,81,119,53.6,119,53.6S121.5,50.3,119.5,48.7z M80.7,83l-1.4-1.7l3.5-8.9l6.9,7.1L80.7,83z"/>
		</g>
	</g>
</g>
</svg>
