<?xml version="1.0" encoding="utf-8"?>
<!-- Generator: Adobe Illustrator 20.1.0, SVG Export Plug-In . SVG Version: 6.00 Build 0)  -->
<svg version="1.1" id="Layer_1" xmlns="http://www.w3.org/2000/svg" xmlns:xlink="http://www.w3.org/1999/xlink" x="0px" y="0px"
	 viewBox="0 0 140.4 156.8" style="enable-background:new 0 0 140.4 156.8;" xml:space="preserve">
<style type="text/css">
	.st0{fill:#B5D892;}
	.st1{opacity:0.3;clip-path:url(#SVGID_2_);fill:#39687A;}
	.st2{opacity:0.48;clip-path:url(#SVGID_2_);fill:#39687A;}
	.st3{clip-path:url(#SVGID_2_);}
	.st4{fill:#3F3E31;}
	.st5{fill:#E1B969;}
	.st6{opacity:0.3;clip-path:url(#SVGID_4_);fill:#39687A;}
	.st7{clip-path:url(#SVGID_4_);}
	.st8{fill:#FFFFFF;stroke:#6D6E70;stroke-width:2.8346;stroke-linecap:round;stroke-linejoin:round;stroke-miterlimit:10;}
	.st9{fill:#404041;}
	.st10{fill:none;stroke:#6D6E70;stroke-width:2.8346;stroke-linecap:round;stroke-linejoin:round;stroke-miterlimit:10;}
	.st11{opacity:0.3;fill:#39687A;}
	.st12{opacity:0.3;clip-path:url(#SVGID_6_);fill:#39687A;}
	.st13{clip-path:url(#SVGID_6_);}
	.st14{fill:#FFFFFF;}
	.st15{fill:#941B1E;}
	.st16{clip-path:url(#SVGID_8_);}
	.st17{fill:#EBAD74;}
	.st18{fill:#CB986D;}
	.st19{fill:none;stroke:#FFFFFF;stroke-linecap:round;stroke-linejoin:round;stroke-miterlimit:10;}
	.st20{fill:#B9602E;}
	.st21{fill:#BBBDBF;}
	.st22{fill:#B9602E;stroke:#FFFFFF;stroke-linecap:round;stroke-linejoin:round;stroke-miterlimit:10;}
	.st23{fill:#654011;}
	.st24{fill:#FFFFFF;stroke:#B9602E;stroke-linecap:round;stroke-linejoin:round;stroke-miterlimit:10;}
	.st25{fill:none;stroke:#B9602E;stroke-linecap:round;stroke-linejoin:round;stroke-miterlimit:10;}
	.st26{fill:#BBBDBF;stroke:#B9602E;stroke-linecap:round;stroke-linejoin:round;stroke-miterlimit:10;}
	.st27{fill:none;stroke:#EE486A;stroke-linecap:round;stroke-linejoin:round;stroke-miterlimit:10;}
	.st28{clip-path:url(#SVGID_10_);fill:#B5D892;}
	.st29{opacity:0.3;clip-path:url(#SVGID_10_);fill:#39687A;}
	.st30{clip-path:url(#SVGID_10_);}
	.st31{fill:#231F20;}
	.st32{fill:#A39186;}
	.st33{fill:#D6DE23;}
	.st34{fill:#58595B;}
	.st35{fill:#E6E7E8;}
	.st36{fill:#A6A8AB;}
	.st37{fill:#BBBDBF;stroke:#231F20;stroke-miterlimit:10;}
	.st38{fill:none;stroke:#231F20;stroke-miterlimit:10;}
</style>
<g>
	<polygon class="st0" points="0.1,45.7 69.2,0 140.4,43.7 140.4,113.6 72.3,156.8 0,117.7 	"/>
	<g>
		<defs>
			<polygon id="SVGID_1_" points="0.1,45.7 69.2,0 140.4,43.7 140.4,113.6 72.3,156.8 0,117.7 			"/>
		</defs>
		<clipPath id="SVGID_2_">
			<use xlink:href="#SVGID_1_"  style="overflow:visible;"/>
		</clipPath>
		<path class="st1" d="M24.1,114.2c0.5,0.3,45.7,46.6,45.7,46.6l83.5-12.9L35.4,30h-2.3c-0.9,0.3-1.5,0.9-1.5,2.1
			c0,3.4-0.1,56.6-0.1,56.6l-5.8,0.2c0,0-3.6-0.6-4,4.1c-0.4,4.6-0.1,16.9-0.1,16.9S21.9,113,24.1,114.2z"/>
		<path class="st2" d="M119.6,46.8L119.6,46.8C119.6,46.9,119.5,46.8,119.6,46.8l-1-1c-1-0.3-2.2,0.1-2.2,0.1s-12.1,5.8-25.7,12.4
			c-16.4,7.9-34.9,16.9-36.9,18c-3.7,2-2.1,5.1-2.1,5.1l11.2,23.9c0,0-4.1,1.9-8.5,5c-1.2,0.8-1.5,2-1.4,3.2l0.2,0.2L91,151.5
			l51.2-35.3l0.8-46L119.6,46.8z"/>
		<g class="st3">
			<path class="st4" d="M100.5,71.5c-11.9,0-21.6,9.7-21.6,21.6s9.7,21.6,21.6,21.6c11.9,0,21.6-9.7,21.6-21.6
				S112.5,71.5,100.5,71.5z M115.9,91.9h-10.6c-0.1-0.4-0.3-0.8-0.5-1.2l7.5-7.5C114.3,85.6,115.6,88.6,115.9,91.9z M103,88.9
				c-0.4-0.2-0.7-0.4-1.2-0.5V77.8c3.3,0.3,6.3,1.6,8.7,3.6L103,88.9z M99.2,88.4c-0.4,0.1-0.8,0.3-1.1,0.5l-7.5-7.5
				c2.4-2,5.4-3.3,8.7-3.6V88.4z M98.1,97.5c0.4,0.2,0.7,0.4,1.2,0.5v10.6c-3.3-0.3-6.3-1.6-8.7-3.6L98.1,97.5z M101.9,97.9
				c0.4-0.1,0.8-0.3,1.1-0.5l7.5,7.5c-2.4,2-5.4,3.3-8.7,3.6V97.9z M88.7,83.2l7.5,7.5c-0.2,0.4-0.4,0.7-0.5,1.1H85.1
				C85.4,88.6,86.7,85.6,88.7,83.2z M85.1,94.5h10.6c0.1,0.4,0.3,0.8,0.5,1.2l-7.5,7.5C86.7,100.8,85.4,97.8,85.1,94.5z
				 M112.3,103.2l-7.5-7.5c0.2-0.4,0.4-0.7,0.5-1.1h10.6C115.6,97.8,114.3,100.8,112.3,103.2z"/>
			<path class="st4" d="M119.6,46.9c-0.6-1.2-2-1.6-3.2-1.1l-9.4,4.7l2.4,4.1l9.1-4.6C119.7,49.5,120.2,48.1,119.6,46.9z"/>
			<path class="st5" d="M77.1,93.2c0-12.5,9.7-22.7,21.9-23.6l-3.7-8l12.1-6l-2.4-4.1l-14.5,7.2c-0.4,0.1-0.9,0.2-1.3,0.4L53.9,75.6
				c-2.2,1-3.1,3.6-2.1,5.8l11.1,23.9c0,0,0,0,0,0.1l-8.8,5.1c-1.1,0.6-1.5,2.1-0.9,3.2h0c0.6,1.1,2.1,1.5,3.2,0.9l12.5-7.2
				l10.1-4.7C77.8,99.7,77.1,96.5,77.1,93.2z"/>
		</g>
		<g class="st3">
			<path class="st5" d="M41.6,88.6h-5.1V46.6h-5.2v42.1h-5.1c-2.7,0-4.9,2.2-4.9,4.9v17c0,2,1.2,3.7,2.9,4.5V98.5
				c0-0.8,0.7-1.5,1.5-1.5h0.6c0.8,0,1.5,0.7,1.5,1.5v16.9h1.6V98.5c0-0.8,0.7-1.5,1.5-1.5h0.6c0.8,0,1.5,0.7,1.5,1.5v16.9h1.7V98.5
				c0-0.8,0.7-1.5,1.5-1.5h0.6c0.8,0,1.5,0.7,1.5,1.5v16.9h1.5V98.5c0-0.8,0.7-1.5,1.5-1.5h0.6c0.8,0,1.5,0.7,1.5,1.5V115
				c1.8-0.7,3.1-2.5,3.1-4.5v-17C46.5,90.8,44.3,88.6,41.6,88.6z"/>
			<path class="st4" d="M36.5,32.8c0-1.4-1.2-2.6-2.6-2.6c-1.4,0-2.6,1.2-2.6,2.6v12.4h5.2V32.8z"/>
		</g>
	</g>
</g>
</svg>
