<?xml version="1.0" encoding="utf-8"?>
<!-- Generator: Adobe Illustrator 20.1.0, SVG Export Plug-In . SVG Version: 6.00 Build 0)  -->
<svg version="1.1" id="Layer_1" xmlns="http://www.w3.org/2000/svg" xmlns:xlink="http://www.w3.org/1999/xlink" x="0px" y="0px"
	 viewBox="0 0 86 90" style="enable-background:new 0 0 86 90;" xml:space="preserve">
<style type="text/css">
	.st0{fill:none;stroke:#000000;stroke-width:1.4173;stroke-linecap:round;stroke-linejoin:round;stroke-miterlimit:10;}
	.st1{fill:#FFFFFF;stroke:#000000;stroke-miterlimit:10;}
	.st2{fill:none;stroke:#000000;stroke-width:0.8504;stroke-linecap:round;stroke-linejoin:round;stroke-miterlimit:10;}
</style>
<g>
	<g>
		<path class="st0" d="M39.3,32.8c0,0-8.4-8.2-21.3-3.8c-1.2,0.4-2.9,1.9-2.9,1.9v31l23.4,0h25.2l0.1-30.9c0,0-13.3-7-20.9-0.9
			C40.1,32.4,39.3,32.8,39.3,32.8z"/>
		<path class="st1" d="M16.3,60.4c0,0,5.2-3.9,10.1-3.8c4.9,0.1,12.4,3.8,12.4,3.8l2.3,0c0,0,7.4-4.4,10.5-4.2
			c3.1,0.2,8.9,2,10.9,4.1c0.8,0.9,1.3,1.2,0.4,1.4c-1.2,0.2-4.1-0.1-4.1-0.1l-19,0.7l-21.8-0.4c0,0-1.6,0.1-2.1-0.1
			C15.4,61.5,15.8,60.9,16.3,60.4z"/>
		<path class="st0" d="M18.8,36.2c0,0,1.7-1.7,5.9-1.6c4.2,0.1,9.6,2.2,9.6,2.2"/>
		<path class="st0" d="M18.8,40.8c0,0,1.7-1.7,5.9-1.6c4.2,0.1,9.6,2.1,9.6,2.1"/>
		<path class="st0" d="M18.8,45.7c0,0,1.7-1.7,5.9-1.6c4.2,0.1,9.6,2.1,9.6,2.1"/>
		<path class="st0" d="M59.6,36.6c0,0-1.7-1.7-5.9-1.6c-4.2,0.1-9.6,2.2-9.6,2.2"/>
		<path class="st0" d="M59.6,41.2c0,0-1.7-1.7-5.9-1.6c-4.2,0.1-9.6,2.2-9.6,2.2"/>
		<path class="st0" d="M59.6,46.1c0,0-1.7-1.7-5.9-1.6c-4.2,0.1-9.6,2.1-9.6,2.1"/>
		<path class="st1" d="M75.1,30.8c-1.2-0.9-4.8-4.7-4.8-4.7s-1.6-0.6-2.6,0.7L52.5,43.3c0,0-3.9,9.9-3.5,10c0.5,0.1,8.5-2.9,9.5-3.2
			c1-0.3,16.4-16.4,16.4-16.4S76.3,31.8,75.1,30.8z M52.1,51l-0.8-1l2.1-5.2l4.1,4.2L52.1,51z"/>
	</g>
	<polygon class="st2" points="79.7,65.3 44.5,85.7 9.3,65.3 9.3,24.5 44.5,4.1 79.7,24.5 	"/>
</g>
</svg>
