<?xml version="1.0" encoding="utf-8"?>
<!-- Generator: Adobe Illustrator 20.1.0, SVG Export Plug-In . SVG Version: 6.00 Build 0)  -->
<svg version="1.1" id="Layer_1" xmlns="http://www.w3.org/2000/svg" xmlns:xlink="http://www.w3.org/1999/xlink" x="0px" y="0px"
	 viewBox="0 0 1024 863.5" style="enable-background:new 0 0 1024 863.5;" xml:space="preserve">
<style type="text/css">
	.st0{fill:#DEECF8;}
	.st1{fill:#C6E39F;}
	.st2{fill:#9ECF5C;}
	.st3{fill:#72B762;}
	.st4{fill:#3A9563;}
	.st5{fill:#267E56;}
</style>
<rect class="st0" width="1023.7" height="510.3"/>
<g>
	<path class="st1" d="M1024,119.3c-55.3-10.8-122.6-17.1-195.3-17.1c-140,0-260.3,23.5-313,57c80.5,17.7,132.2,45,132.2,75.7
		c0,13.3-9.7,26-27.3,37.5c57.6,12.3,129.8,19.7,208.1,19.7c72.6,0,139.9-6.3,195.3-17.1V119.3z"/>
	<path class="st1" d="M299.6,142.4c-129.7,0-242.4,20.3-299.6,50.3v89.5c57.2,29.9,169.9,50.3,299.6,50.3
		c187.5,0,339.6-42.5,339.6-95C639.2,185,487.2,142.4,299.6,142.4z"/>
</g>
<path class="st2" d="M1023.2,146.9c-45.1-6.2-95.9-9.7-149.5-9.7c-139.3,0-258.9,23.5-311.3,57c0.1,0,0.2,0.1,0.3,0.1h-20
	c-55.8-11.3-124.4-17.9-198.5-17.9c-74.1,0-142.7,6.6-198.5,17.9H0v452.5h1023.1V317.5c0,0,0,0,0,0V146.9z"/>
<path class="st3" d="M1023.6,719.6H0V304.9c0,0,171.2-36.3,295.7-36.9c73.4-0.4,124,33.8,254.4,36.9c98.8,2.4,139.8-32.7,235.7-31.7
	c122.7,1.3,237.8,31.7,237.8,31.7V719.6z"/>
<path class="st4" d="M1023.3,805.7H0V453.2c0,0,50.2,13.7,123.6,6.4c108.5-10.8,267.8-44.2,391.3-44.2c103.2,0,216.7,27,317.7,36.4
	c101.8,9.5,190.7,1.4,190.7,1.4V805.7z"/>
<path class="st5" d="M1024,863.5H0V564.7c0,0,97.6,33.9,267.5,0c78.5-15.6,130.9-29.8,268.9-29.8s241.5,64.9,332,64.9
	s155.6-35.2,155.6-35.2V863.5z"/>
</svg>
