<?xml version="1.0" encoding="utf-8"?>
<!-- Generator: Adobe Illustrator 20.1.0, SVG Export Plug-In . SVG Version: 6.00 Build 0)  -->
<svg version="1.1" id="Layer_1" xmlns="http://www.w3.org/2000/svg" xmlns:xlink="http://www.w3.org/1999/xlink" x="0px" y="0px"
	 viewBox="0 0 273.1 205.1" style="enable-background:new 0 0 273.1 205.1;" xml:space="preserve">
<style type="text/css">
	.st0{fill:#3F3E31;}
	.st1{fill:#009ADE;}
	.st2{fill:#DEECF8;stroke:#009ADE;stroke-miterlimit:10;}
	.st3{fill:none;stroke:#009ADE;stroke-miterlimit:10;}
	.st4{fill:#EBAD74;}
	.st5{fill:#FFFFFF;stroke:#005B8C;stroke-linecap:round;stroke-linejoin:round;stroke-miterlimit:10;}
	.st6{fill:#CB986D;}
	.st7{fill:none;stroke:#005B8C;stroke-linecap:round;stroke-linejoin:round;stroke-miterlimit:10;}
	.st8{fill:#005B8C;}
	.st9{fill:#224965;}
	.st10{fill:#FFFFFF;}
	.st11{fill:#3A225D;}
	.st12{fill:#BBBDBF;}
	.st13{fill:none;stroke:#3A225D;stroke-miterlimit:10;}
	.st14{fill:#654118;}
</style>
<g>
	<rect x="94" y="64" class="st0" width="2.4" height="91.3"/>
	<rect x="90.6" y="152.3" class="st0" width="9.5" height="3.2"/>
	<rect x="133.9" y="128.7" class="st0" width="2.2" height="26"/>
	<rect x="130.1" y="152.6" class="st0" width="9.5" height="3.2"/>
	<rect x="95.2" y="127.8" class="st0" width="40.8" height="1.9"/>
	<polygon class="st0" points="135.8,128.2 134.6,130.8 94.3,65.4 96.4,64.1 	"/>
	<rect x="192.4" y="128.7" class="st0" width="2.2" height="26"/>
	<rect x="188.7" y="152.6" class="st0" width="9.5" height="3.2"/>
	
		<rect x="113.2" y="118.2" transform="matrix(-0.5186 -0.855 0.855 -0.5186 53.1079 310.9504)" class="st0" width="1.8" height="44.6"/>
	<rect x="115" y="118.2" transform="matrix(0.5186 -0.855 0.855 0.5186 -64.3449 166.684)" class="st0" width="1.8" height="44.6"/>
	<rect y="122" class="st0" width="76.6" height="34.5"/>
	<polygon class="st1" points="225.2,127.7 140.6,127.7 98.9,55.5 183.6,55.5 	"/>
	<path class="st2" d="M179.1,125.1h-31.2c-2.4,0-5.6-2-7-4.4l-33.3-57.8c-1.4-2.4-0.6-4.4,1.9-4.4h31.2c2.4,0,5.6,2,7,4.4l33.3,57.8
		C182.4,123.1,181.5,125.1,179.1,125.1z"/>
	<path class="st2" d="M215,125.1l-24.4,0c-2.4,0-5.6-2-7-4.4l-33.3-57.8c-1.4-2.4-0.6-4.4,1.9-4.4l25.9,0.1c2.4,0,5.1,1.5,6.8,4.2
		l33.8,58.6C220.1,123.8,217.4,125.1,215,125.1z"/>
	<g>
		<line class="st3" x1="108.5" y1="64.7" x2="149.1" y2="65.1"/>
		<line class="st3" x1="111.5" y1="70.2" x2="152.1" y2="70.6"/>
		<line class="st3" x1="115.2" y1="75.5" x2="155.8" y2="75.9"/>
		<line class="st3" x1="117.9" y1="81.1" x2="158.4" y2="81.5"/>
		<line class="st3" x1="121.4" y1="86.7" x2="162" y2="87"/>
		<line class="st3" x1="125" y1="93" x2="165.5" y2="93.4"/>
		<line class="st3" x1="128.5" y1="99.4" x2="169.1" y2="99.8"/>
		<line class="st3" x1="132.9" y1="106.8" x2="173.5" y2="107.2"/>
		<line class="st3" x1="135.8" y1="112.3" x2="176.3" y2="112.7"/>
		<line class="st3" x1="139.3" y1="118.7" x2="179.9" y2="119.1"/>
		<line class="st3" x1="137.9" y1="58.3" x2="175.9" y2="124.9"/>
		<line class="st3" x1="130.2" y1="58.6" x2="168.2" y2="125.2"/>
		<line class="st3" x1="123.1" y1="58.6" x2="161.1" y2="125.2"/>
		<line class="st3" x1="114.1" y1="58.4" x2="152" y2="125"/>
	</g>
	<g>
		<line class="st3" x1="151.4" y1="64.8" x2="186.1" y2="65.1"/>
		<line class="st3" x1="154.5" y1="70.3" x2="189.4" y2="70.6"/>
		<line class="st3" x1="157.5" y1="75.6" x2="192.4" y2="75.9"/>
		<line class="st3" x1="160.8" y1="81.2" x2="195.7" y2="81.5"/>
		<line class="st3" x1="164.1" y1="86.7" x2="198.9" y2="87.1"/>
		<line class="st3" x1="167.8" y1="93.1" x2="202.5" y2="93.4"/>
		<line class="st3" x1="171.5" y1="99.5" x2="206.2" y2="99.8"/>
		<line class="st3" x1="175.8" y1="106.9" x2="210.5" y2="107.1"/>
		<line class="st3" x1="178.9" y1="112.4" x2="213.7" y2="112.7"/>
		<line class="st3" x1="182.6" y1="118.8" x2="217.4" y2="119.1"/>
		<line class="st3" x1="178.6" y1="58.5" x2="216.4" y2="124.9"/>
		<line class="st3" x1="170.7" y1="58.6" x2="208.6" y2="125.2"/>
		<line class="st3" x1="163.6" y1="58.6" x2="201.6" y2="125.2"/>
		<line class="st3" x1="154.5" y1="58.5" x2="192.5" y2="125"/>
	</g>
	
		<rect x="72.1" y="104.9" transform="matrix(-1 -1.224647e-16 1.224647e-16 -1 146.6207 238.447)" class="st0" width="2.3" height="28.7"/>
	
		<rect x="60.2" y="88.3" transform="matrix(-4.460362e-11 1 -1 -4.460362e-11 161.2612 38.5894)" class="st0" width="2.3" height="23.2"/>
	<path class="st0" d="M66.4,98.1C66.4,98.1,66.4,98.1,66.4,98.1l6.3,0c1.4,0,2.6,1.2,2.6,2.6v7.9h-3.9v-5.8c0-0.5-0.4-0.8-0.8-0.8
		h-4.1V98.1z"/>
	<path class="st0" d="M48.4,104.8C48.4,104.8,48.4,104.8,48.4,104.8l0-4.5c0-1,0.8-1.8,1.8-1.8h5.6v2.8h-4.1c-0.3,0-0.6,0.3-0.6,0.6
		v2.9H48.4z"/>
	
		<rect x="53.7" y="95.5" transform="matrix(-1 -1.224647e-16 1.224647e-16 -1 108.3378 194.3755)" class="st0" width="1" height="3.3"/>
	<path class="st0" d="M51.6,95.7h5.1c0.2,0,0.4-0.2,0.4-0.4v-1.5c0-0.2-0.2-0.4-0.4-0.4c0,0-1.9,0.6-2.5,0.6c-0.7,0-2.6-0.6-2.6-0.6
		c-0.2,0-0.4,0.2-0.4,0.4v1.5C51.2,95.5,51.4,95.7,51.6,95.7z"/>
	<path class="st0" d="M90.9,72.4c-3.4,0-6.1,2.8-6.1,6.1v42.2h0v11.2c0,3.4-2.8,6.1-6.1,6.1h-1.1v2.7h3.8c3.4,0,6.1-2.8,6.1-6.1v-11
		h0V81.2c0-3,2.2-5.5,5.1-6v-2.8H90.9z"/>
</g>
<g>
	<g>
		<g>
			<path class="st4" d="M270,110.9c-0.3-0.6-1.1-2.1-1.9-3.3l0.3-0.1l-7.6-55.1l0,0c-1.1-5.3-5.8-9.2-11.4-9.2h-5.6l-2-7.9
				c4.9-2.7,8.3-8.9,8.3-16.1c0-9.7-6.1-17.5-13.7-17.5c-7.5,0-13.7,7.8-13.7,17.5c0,7.3,3.5,13.5,8.4,16.1l-2.2,7.8h-7.8
				c-5.7,0-10.5,4.2-11.5,9.6l-0.2,0l-7.6,55.1l0.8,0.3c-1.4,4.5-3.3,11-3.1,11.2c0.3,0.3,4,6.8,4.5,7.1c0.5,0.3,2.8-2.2,2.8-2.2
				l0.4-5.2c0,0,1.1-2.4,1.3-3.5c0.2-1.1-1.6-4-1.7-4.6c-0.1-0.2,0-0.7,0.1-1.3l0.4,0.2l7.6-34.4l5.8,21.5
				c-5.9,8.3-9.6,21.1-9.6,35.5c0,13.1,3.1,24.9,8.2,33.2h35c5-8.3,8.2-20.1,8.2-33.2c0-14.2-3.7-26.9-9.5-35.2l3.5-14.4l6.4,26.7
				l1.4-0.5l-0.4,0.6c0,0,0.6,1.9,0.5,2.8c-0.3,2.5-0.6,3.8,0.3,4.5c0.8,0.6,1.7,1.4,2.3,1.5c1.1,0.2,0-4,0-4s1.3,4.4,1.4,5.6
				c0.2,1.2-2.1,5.1-1.5,5.8s3.1-1.5,3.8-2.2c0.7-0.7,2.5-5.1,2.6-6.7C273.3,115.5,270.5,112.1,270,110.9z"/>
		</g>
		<g>
			<path class="st5" d="M237.4,188.7c-1.3,0.6-1.3,2.3-1.3,2.3l11.4,7.9c0.9,0.7,3,1.4,4,0.3c1.3-1.5-0.2-4.4-0.2-4.4L237.4,188.7z"
				/>
			<path class="st5" d="M236.9,192.6c1.3,0.6,1.3,2.3,1.3,2.3l-11.7,9.1c-0.9,0.7-2.6,0.9-3.6-0.2c-1.3-1.5,0.8-4.3,0.8-4.3
				L236.9,192.6z"/>
			<path class="st6" d="M251.9,157.7c0,0.4-8.4,29.6-8.4,29.6s7.4,6.2,7.4,6.9c0,0.7,0.3,4.5-0.9,4.3c-1.2-0.1-11.2-6.6-12-7.2
				c-0.8-0.5,0-33.9,0-33.9L251.9,157.7z"/>
			<path class="st4" d="M223.3,160.5c0,0.4,6.8,30.8,6.8,30.8s-6.1,7.2-6.1,7.8c0,0.7,0,3.9,1.2,3.8s11.2-8.2,12-8.8
				c0.8-0.5,0-33.9,0-33.9L223.3,160.5z"/>
			<path class="st7" d="M225.1,197.5c0,0,0.7,1.1,0.5,3c0,0,2.1-3.5,4.1-0.7"/>
			<path class="st7" d="M249.5,193.5c0,0-0.7,1.1-0.5,3c0,0-2.1-3.5-4.1-0.7"/>
		</g>
	</g>
	<path class="st6" d="M270,110.9c-0.3-0.6-1.1-2.1-1.9-3.3l0.3-0.1l-7.6-55.1l0,0c-1.1-5.3-5.8-9.2-11.4-9.2h-5.6l-2-7.9
		c4.9-2.7,8.3-8.9,8.3-16.1c0-9.7-6.1-17.5-13.7-17.5c-0.2,0-0.3,0-0.5,0v158.6l1.4,0c0,0,0.1,2.1,0.1,5.3h0.4
		c0.1-4.7,0.2-8.2,0.2-8.2l13.9,0.3c0,0.1-0.9,3.5-2.2,7.9h4.6c5-8.3,8.2-20.1,8.2-33.2c0-14.2-3.7-26.9-9.5-35.2l3.5-14.4l6.4,26.7
		l1.4-0.5l-0.4,0.6c0,0,0.6,1.9,0.5,2.8c-0.3,2.5-0.6,3.8,0.3,4.5c0.8,0.6,1.7,1.4,2.3,1.5c1.1,0.2,0-4,0-4s1.3,4.4,1.4,5.6
		c0.2,1.2-2.1,5.1-1.5,5.8s3.1-1.5,3.8-2.2s2.5-5.1,2.6-6.7C273.3,115.5,270.5,112.1,270,110.9z"/>
	<g>
		<g>
			<path class="st8" d="M253,97h-32.3c-5.8,8.3-9.6,21.1-9.6,35.4c0,13.1,3.1,24.9,8.2,33.2h35c5-8.3,8.2-20.1,8.2-33.2
				c0-14.2-3.7-26.9-9.5-35.2L253,97z"/>
		</g>
	</g>
	<path class="st9" d="M252.9,97.2l0-0.2h-17.1v68.6h18.4c5-8.3,8.2-20.1,8.2-33.2C262.4,118.2,258.7,105.5,252.9,97.2z"/>
	<g>
		<g>
			<path class="st10" d="M211.7,120.7l0-0.3c1.4-9.3,4.4-17.5,8.7-23.5L215,76.6l-7.4,33.6l-0.7-0.3l-0.2-0.1l-8.7-2.7l11.3-54.7
				l0.2,0c1.1-5.6,6-9.6,11.7-9.6h2.1l12.8,19V62l13.4-19.2l0.2,0c5.4,0.1,10.1,4,11.4,9.2l0,0l0.1,0.2l11.4,54.5l-7.9,2.4l-0.3,0.1
				l-1.6,0.6L256.4,84l-3.2,13.1c4.2,6.1,7.2,14.3,8.6,23.5l0,0.3L211.7,120.7z"/>
			<path class="st11" d="M223,43.1L235.7,62v44.6h0.6V62.1l13.3-19c5.5,0.1,10,4.1,11.1,9.2l0,0l11.3,54.2l-7.7,2.3l-0.3,0.1
				l-1.4,0.5l-6.4-26.7l-3.5,14.4c4.1,6,7.2,14.2,8.6,23.5l-49.5-0.3c1.4-9.4,4.5-17.6,8.7-23.5L215,75.5l-7.6,34.4l-0.4-0.2
				l-0.2-0.1l-8.4-2.7l11.2-54.2l0.2,0c1-5.4,5.8-9.6,11.5-9.6H223 M223.3,42.6H223h-1.9c-5.8,0-10.7,4-11.9,9.6l-0.2,0l-0.1,0.5
				l-11.2,54.2l-0.1,0.5l0.5,0.2l8.4,2.7l0.2,0.1l0.4,0.2l0.6,0.2l0.1-0.6l7.1-32.2l5.1,19c-4.2,6.1-7.2,14.2-8.7,23.6l-0.1,0.6
				l0.7,0l49.5,0.3l0.7,0l-0.1-0.7c-1.4-9.3-4.3-17.4-8.5-23.6l2.8-11.8l5.8,24.4l0.1,0.6l0.6-0.2l1.4-0.5l0.3-0.1l7.6-2.3l0.5-0.2
				l-0.1-0.5l-11.3-54.2l-0.1-0.5l0,0c-1.3-5.2-6.1-9.1-11.6-9.2l-0.3,0l-0.2,0.2l-13,18.6l-12.6-18.6L223.3,42.6L223.3,42.6z"/>
		</g>
	</g>
	<path class="st12" d="M260.7,52.4L260.7,52.4c-1.1-5.2-5.7-9.1-11.2-9.2l-13.3,19v44.5h-0.6V62l-0.2-0.3v58.9l26,0.1
		c-1.4-9.4-4.5-17.6-8.6-23.5l3.5-14.4l6.4,26.7l1.4-0.5l0.3-0.1l7.7-2.3L260.7,52.4z"/>
	<g>
		<circle class="st11" cx="220" cy="54.6" r="1.7"/>
		<g>
			<path class="st11" d="M219,52l-2-3.5c-0.5-0.8,0.1-1.8,1-1.8h4c0.9,0,1.5,1,1,1.8l-2,3.5C220.6,52.8,219.4,52.8,219,52z"/>
			<path class="st11" d="M217.6,53.5l-2-3.5c-0.5-0.8-1.6-0.8-2.1,0l-2,3.5c-0.5,0.8,0.1,1.8,1,1.8h4
				C217.5,55.3,218.1,54.3,217.6,53.5z"/>
			<path class="st11" d="M220.8,58l1,3.9c0.2,0.9,1.4,1.2,2,0.5l2.9-2.9c0.7-0.7,0.4-1.8-0.5-2l-3.9-1
				C221.3,56.3,220.5,57.1,220.8,58z"/>
			<path class="st11" d="M219.6,57.8l-1,3.9c-0.2,0.9-1.4,1.2-2,0.5l-2.9-2.9c-0.7-0.7-0.4-1.8,0.5-2l3.9-1
				C219,56.1,219.8,56.9,219.6,57.8z"/>
			<path class="st11" d="M222.4,53.7l2-3.5c0.5-0.8,1.6-0.8,2.1,0l2,3.5c0.5,0.8-0.1,1.8-1,1.8h-4C222.5,55.6,222,54.5,222.4,53.7z"
				/>
		</g>
	</g>
	<g>
		
			<ellipse transform="matrix(0.9978 -6.618792e-02 6.618792e-02 0.9978 -4.3935 15.5881)" class="st11" cx="233.1" cy="74.1" rx="1.7" ry="1.7"/>
		<g>
			<path class="st11" d="M231.8,71.6l-2.3-3.4c-0.5-0.8,0-1.8,0.9-1.9l4-0.3c0.9-0.1,1.6,0.9,1.2,1.7l-1.8,3.6
				C233.5,72.3,232.3,72.4,231.8,71.6z"/>
			<path class="st11" d="M230.6,73.2l-2.3-3.4c-0.5-0.8-1.7-0.7-2.1,0.1l-1.8,3.6c-0.4,0.8,0.2,1.8,1.2,1.7l4-0.3
				C230.6,75,231.1,73.9,230.6,73.2z"/>
			<path class="st11" d="M234,77.5l1.3,3.8c0.3,0.9,1.4,1.1,2,0.4l2.7-3c0.6-0.7,0.2-1.8-0.7-2l-4-0.8
				C234.5,75.7,233.7,76.6,234,77.5z"/>
			<path class="st11" d="M232.8,77.3l-0.8,4c-0.2,0.9-1.3,1.3-2,0.7l-3-2.7c-0.7-0.6-0.5-1.8,0.4-2l3.8-1.3
				C232.2,75.6,233,76.4,232.8,77.3z"/>
			<path class="st11" d="M235.4,73.1l1.8-3.6c0.4-0.8,1.6-0.9,2.1-0.1l2.3,3.4c0.5,0.8,0,1.8-0.9,1.9l-4,0.3
				C235.6,74.9,235,73.9,235.4,73.1z"/>
		</g>
	</g>
	<g>
		<g>
			<path class="st11" d="M221,95.7l1,3.9c0.2,0.9,1.4,1.2,2,0.5l2.9-2.9c0.7-0.7,0.4-1.8-0.5-2l-3.9-1C221.6,94,220.7,94.8,221,95.7
				z"/>
			<path class="st11" d="M222.7,91.4l2-3.5c0.5-0.8,1.6-0.8,2.1,0l2,3.5c0.5,0.8-0.1,1.8-1,1.8h-4C222.8,93.2,222.2,92.2,222.7,91.4
				z"/>
			<path class="st11" d="M220.9,84.4h-1.3c-0.6,0-1.1,0.3-1.5,0.6l1.1,4.2c0.9,0.5,2.2,0.3,2.7-0.7l0.6-1.1
				C223.4,86.1,222.4,84.4,220.9,84.4z"/>
		</g>
		<path class="st11" d="M220.2,90.6c-0.2,0-0.4,0-0.6,0.1l0.9,3.2c0.8-0.2,1.3-0.8,1.3-1.6C221.9,91.4,221.2,90.6,220.2,90.6z"/>
	</g>
	<g>
		<circle class="st11" cx="248.8" cy="93.1" r="1.7"/>
		<g>
			<path class="st11" d="M247.7,90.5l-2-3.5c-0.5-0.8,0.1-1.8,1-1.8h4c0.9,0,1.5,1,1,1.8l-2,3.5C249.3,91.3,248.2,91.3,247.7,90.5z"
				/>
			<path class="st11" d="M246.4,92l-2-3.5c-0.5-0.8-1.6-0.8-2.1,0l-2,3.5c-0.5,0.8,0.1,1.8,1,1.8h4C246.2,93.8,246.8,92.8,246.4,92z
				"/>
			<path class="st11" d="M248.3,96.3l-1,3.9c-0.2,0.9-1.4,1.2-2,0.5l-2.9-2.9c-0.7-0.7-0.4-1.8,0.5-2l3.9-1
				C247.8,94.5,248.6,95.4,248.3,96.3z"/>
			<path class="st11" d="M254.3,88.9c-0.7,0-1.4,0.3-1.8,1l-0.6,1.1c-0.7,1.2,0,2.6,1.2,2.9L254.3,88.9z"/>
			<path class="st11" d="M252.3,97.3l0.4-1.8l-0.3-0.1c-1.5-0.4-2.9,1-2.5,2.5l0.3,1.2c0.4,1.5,2.3,2,3.4,0.9l0.2-0.2L252.3,97.3z"
				/>
		</g>
	</g>
	<g>
		<g>
			<path class="st11" d="M257.6,77.2l1,3.9c0.2,0.9,1.4,1.2,2,0.5l2.9-2.9c0.7-0.7,0.4-1.8-0.5-2l-3.9-1
				C258.2,75.5,257.4,76.3,257.6,77.2z"/>
			<path class="st11" d="M259.3,72.9l2-3.5c0.5-0.8,1.6-0.8,2.1,0l2,3.5c0.5,0.8-0.1,1.8-1,1.8h-4C259.4,74.7,258.8,73.7,259.3,72.9
				z"/>
			<path class="st11" d="M257.5,65.9h-0.6l1.7,4.2c0,0,0,0,0-0.1l0.6-1.1C260,67.6,259,65.9,257.5,65.9z"/>
		</g>
		<path class="st11" d="M258.4,72.6l-0.5,2.7c0.6-0.3,1-0.8,1-1.5C259,73.3,258.8,72.9,258.4,72.6z"/>
	</g>
	<g>
		<circle class="st11" cx="248.8" cy="54.6" r="1.7"/>
		<g>
			<path class="st11" d="M248.4,57.8l-1,3.9c-0.2,0.9-1.4,1.2-2,0.5l-2.9-2.9c-0.7-0.7-0.4-1.8,0.5-2l3.9-1
				C247.8,56.1,248.6,56.9,248.4,57.8z"/>
			<path class="st11" d="M251.2,53.7l2-3.5c0.5-0.8,1.6-0.8,2.1,0l2,3.5c0.5,0.8-0.1,1.8-1,1.8h-4C251.3,55.6,250.8,54.5,251.2,53.7
				z"/>
			<path class="st11" d="M245.7,52.3l-0.6-1.1c-0.1-0.1-0.2-0.2-0.3-0.3l-3.1,4.2c0.3,0.1,0.6,0.2,0.9,0.2h1.3
				C245.5,55.3,246.5,53.6,245.7,52.3z"/>
			<path class="st11" d="M249.4,46.7h-1.3c-0.2,0-0.4,0-0.5,0.1l-1.5,2c0,0.3,0.1,0.6,0.3,0.9l0.6,1.1c0.8,1.3,2.7,1.3,3.5,0
				l0.6-1.1C252,48.4,251,46.7,249.4,46.7z"/>
			<path class="st11" d="M251.3,56.9c-1,0.3-1.7,1.3-1.4,2.4l0.3,1.2c0.4,1.5,2.2,2,3.3,1L251.3,56.9z"/>
		</g>
	</g>
	<g>
		<path class="st11" d="M206.3,77.5l1,3.9c0.2,0.9,1.4,1.2,2,0.5l2.9-2.9c0.7-0.7,0.4-1.8-0.5-2l-3.9-1
			C206.9,75.8,206.1,76.6,206.3,77.5z"/>
		<path class="st11" d="M208,73.3l2-3.5c0.5-0.8,1.6-0.8,2.1,0l2,3.5c0.5,0.8-0.1,1.8-1,1.8h-4C208.1,75.1,207.5,74.1,208,73.3z"/>
		<path class="st11" d="M207,66.4l-0.9,4.9c0.5-0.1,0.9-0.4,1.2-0.9l0.6-1.1C208.6,68.2,208.1,66.9,207,66.4z"/>
		<path class="st11" d="M205.9,72.5l-0.7,3.3c0.1,0,0.3,0.1,0.4,0.1c0.9,0,1.7-0.7,1.7-1.7C207.3,73.3,206.7,72.6,205.9,72.5z"/>
	</g>
	<g>
		<circle class="st11" cx="233.4" cy="112.1" r="1.7"/>
		<g>
			<path class="st11" d="M232.4,109.6l-2-3.5c-0.5-0.8,0.1-1.8,1-1.8h4c0.9,0,1.5,1,1,1.8l-2,3.5C234,110.4,232.8,110.4,232.4,109.6
				z"/>
			<path class="st11" d="M231,111l-2-3.5c-0.5-0.8-1.6-0.8-2.1,0l-2,3.5c-0.5,0.8,0.1,1.8,1,1.8h4C230.9,112.9,231.5,111.8,231,111z
				"/>
			<path class="st11" d="M234.2,115.6l1,3.9c0.2,0.9,1.4,1.2,2,0.5l2.9-2.9c0.7-0.7,0.4-1.8-0.5-2l-3.9-1
				C234.8,113.9,233.9,114.7,234.2,115.6z"/>
			<path class="st11" d="M233,115.3l-1,3.9c-0.2,0.9-1.4,1.2-2,0.5l-2.9-2.9c-0.7-0.7-0.4-1.8,0.5-2l3.9-1
				C232.4,113.6,233.3,114.4,233,115.3z"/>
			<path class="st11" d="M235.8,111.3l2-3.5c0.5-0.8,1.6-0.8,2.1,0l2,3.5c0.5,0.8-0.1,1.8-1,1.8h-4
				C236,113.1,235.4,112.1,235.8,111.3z"/>
		</g>
	</g>
	<g>
		<circle class="st11" cx="257.3" cy="111.8" r="1.7"/>
		<g>
			<path class="st11" d="M254.9,110.7l-2-3.5c-0.5-0.8-1.6-0.8-2.1,0l-2,3.5c-0.5,0.8,0.1,1.8,1,1.8h4
				C254.8,112.5,255.3,111.5,254.9,110.7z"/>
			<path class="st11" d="M256.9,115l-1,3.9c-0.2,0.9-1.4,1.2-2,0.5l-2.9-2.9c-0.7-0.7-0.4-1.8,0.5-2l3.9-1
				C256.3,113.3,257.1,114.1,256.9,115z"/>
			<path class="st11" d="M259.6,114.2c-0.9,0.3-1.5,1.3-1.2,2.4l0.3,1.2c0.3,0.9,1.1,1.5,2,1.5C260.4,117.4,259.9,115.2,259.6,114.2
				z"/>
			<path class="st11" d="M256.1,104c-1.2,0.3-1.9,1.8-1.2,2.9l0.6,1.1c0.5,0.9,1.7,1.2,2.6,0.8C257.6,107.5,256.6,105.2,256.1,104z"
				/>
		</g>
	</g>
	<g>
		<g>
			<path class="st11" d="M204.9,108.5c0.6-0.6,0.8-1.6,0.3-2.4l-0.6-1.1c-0.8-1.3-2.7-1.3-3.5,0l-0.6,1.1c-0.2,0.3-0.2,0.5-0.2,0.8
				L204.9,108.5z"/>
			<path class="st11" d="M208.9,100.6L208.9,100.6l-1.3,0c-1.5,0-2.5,1.7-1.7,3l0.6,1.1c0.3,0.5,0.7,0.8,1.2,0.9L208.9,100.6z"/>
		</g>
		<path class="st11" d="M206.9,109.1l0.5-2.3c-0.7,0.2-1.1,0.8-1.1,1.6c0,0.2,0,0.4,0.1,0.6L206.9,109.1z"/>
	</g>
	<path class="st13" d="M252.4,58c0,0,5.8,11.5,5.8,12.8s-5,26.5-5,26.5l2.7,4.4"/>
	<path class="st14" d="M229,33c-6.1-4-6-13.3-6-13.3c1.3-5.1,8.5-7,11.4-7.6c3-0.6,3.1-4.2,3.6-2c0.5,2.2,6.6,4.2,7.7,4.9
		c1.1,0.6,4.7,10.2-1.8,17.5c-0.1,0.1,0.7,0.9,1,1.1c0.8,0.5,7.6,0.4,9.2-2.5c1.6-2.9-1.3-20.3-4.8-24.6c-3.3-4-9-6.2-12.4-6.5
		c-3.3-0.3-8,2.2-12.1,5.3c-4.1,3.1-4,7.8-5.4,15.6c-1.4,7.9-0.5,9.6,2.4,11.9c2.2,1.7,4.7,1.3,5.7,0.9C228.4,33.7,229,33.3,229,33z
		"/>
</g>
</svg>
