<?xml version="1.0" encoding="utf-8"?>
<!-- Generator: Adobe Illustrator 20.1.0, SVG Export Plug-In . SVG Version: 6.00 Build 0)  -->
<svg version="1.1" id="Layer_1" xmlns="http://www.w3.org/2000/svg" xmlns:xlink="http://www.w3.org/1999/xlink" x="0px" y="0px"
	 viewBox="0 0 335.7 286.2" style="enable-background:new 0 0 335.7 286.2;" xml:space="preserve">
<style type="text/css">
	.st0{fill:#006838;}
	.st1{fill:#C1B49A;}
	.st2{fill:#9A8479;}
	.st3{fill:#3F3E31;}
	.st4{fill:#EBAD74;}
	.st5{fill:#FCE6A1;}
	.st6{fill:#443246;}
	.st7{fill:#5A4A42;}
	.st8{fill:#009ADE;}
	.st9{fill:#005B8C;}
	.st10{fill:#519446;}
</style>
<g>
	<path class="st0" d="M183.8,187.6c-7-3.2-7-13.1,0-16.3l38.7-18.1l9.2-4.3l27.1-12.6c2.4-1.1,5.2-1.1,7.6,0l64,29.6
		c7,3.2,7,13.1,0,16.3l-75.2,34.7c-2.4,1.1-5.1,1.1-7.5,0L183.8,187.6z"/>
	<polygon class="st1" points="136.3,165.8 136.2,132.7 214.5,165.2 304.1,127.5 304.1,160.9 214.8,202.1 	"/>
	<polygon class="st2" points="136,132.5 188.1,108.2 191.4,155.8 193.7,156.8 196.6,104.2 225.1,90.9 304.1,127.4 214.8,168.6 	"/>
	<polygon class="st3" points="215.1,168.8 215.1,202.1 304.1,160.9 304.1,127.7 	"/>
	<polygon class="st4" points="192.9,64.1 192.9,73.3 210.6,96.5 210.4,99.9 192.9,81.6 193,157.6 281.4,116.4 281.4,41.2 	"/>
	<polygon class="st3" points="242.7,82.4 222.2,92 222.2,144.1 242.7,134.5 	"/>
	<polygon class="st5" points="166.3,44.1 139.3,67.2 139.2,132.2 191.8,156.7 191.8,81.5 	"/>
	<polygon class="st3" points="172.9,115.5 172.9,96.3 159.3,90 159.3,109.1 	"/>
	<g>
		<polygon class="st6" points="219,159.8 214.4,161.9 214.4,87.8 219,85.6 		"/>
		<polygon class="st7" points="209.8,159.8 214.4,161.9 214.4,87.8 209.8,85.6 		"/>
	</g>
	<g>
		<polygon class="st6" points="293.1,125.6 289.7,127.2 289.7,71 293.1,69.4 		"/>
		<polygon class="st7" points="286.2,125.6 289.6,127.2 289.6,71 286.2,69.4 		"/>
	</g>
	<polygon class="st8" points="137.9,67.2 166.3,42.9 212.5,101.7 	"/>
	<path class="st9" d="M227.7,118.8c0.9-2.2,2.6-4.1,4.4-4.9c1.8-0.9,3.5-0.5,4.4,0.9l1.8-0.8c0.9-2.2,2.5-4.1,4.4-4.9
		c1.8-0.9,3.5-0.5,4.4,0.9l1.8-0.8c0.9-2.1,2.5-4,4.4-4.8c1.8-0.8,3.4-0.5,4.4,0.8l1.9-0.9c0.9-2.2,2.5-4.1,4.4-4.9
		c1.8-0.9,3.5-0.5,4.4,0.9l1.8-0.8c0.9-2.2,2.5-4,4.4-4.9c1.8-0.9,3.4-0.5,4.4,0.8l1.8-0.8c0.9-2.2,2.6-4.1,4.4-5
		c1.9-0.9,3.5-0.4,4.4,0.9l1.8-0.8c0.9-2.1,2.5-4,4.4-4.9c1.8-0.9,3.4-0.5,4.4,0.8l1.8-0.8c0.9-2.2,2.6-4.1,4.4-5
		c1.9-0.9,3.5-0.4,4.4,0.9l1.7-0.8c0.7-1.7,1.7-3.2,3-4.3L255.9,0l-89.6,40.3l-33.9,29v1l33.7-29l61.1,77.6L227.7,118.8z"/>
	<g>
		<polygon class="st2" points="260.7,149 232.9,161.8 240.6,165.3 268.4,152.5 		"/>
		<polygon class="st3" points="257.2,194.4 257.2,204.6 285,191.7 285,181.6 		"/>
		<polygon class="st2" points="277.1,177.8 249.3,190.6 257,194.2 284.7,181.4 		"/>
		<polygon class="st3" points="249.1,180.2 249.1,190.3 276.9,177.5 276.9,167.4 		"/>
		<polygon class="st2" points="268.9,163.6 241.2,176.4 248.9,179.9 276.6,167.1 		"/>
		<polygon class="st3" points="241.1,166.1 241.1,176.1 268.5,163.4 268.5,153.4 		"/>
		<polygon class="st1" points="248.1,190.7 248.2,180.6 240.2,176.9 240.1,166.4 233.1,163.1 233.3,192.6 233.3,193.9 256.9,204.8 
			256.9,194.7 		"/>
	</g>
</g>
<g>
	<path class="st0" d="M53.7,254.3c-5.1-2.3-5.1-9.5,0-11.9l43.5-20.3l9.2-4.3l28.1-13.1c1.7-0.8,3.8-0.8,5.5,0L210,237
		c5.1,2.3,5.1,9.5,0,11.9L131.6,285c-3.5,1.6-7.5,1.6-10.9,0L53.7,254.3z"/>
	<polygon class="st0" points="96,268.1 112.6,260.4 115.3,259.1 124.4,254.9 149.6,266.5 121.1,279.6 	"/>
	<polygon class="st1" points="4.1,231.4 4,195.6 88.8,230.7 185.8,190 185.8,226 89.1,270.6 	"/>
	<polygon class="st2" points="3.8,195.3 60.2,169 63.8,220.6 66.3,221.6 69.4,164.7 100.3,150.4 185.8,189.8 89.1,234.5 	"/>
	<polygon class="st3" points="89.4,234.6 89.4,270.6 185.7,226.1 185.7,190.1 	"/>
	<polygon class="st4" points="65.4,121.3 65.4,131.2 84.5,156.4 84.4,160 65.4,140.3 65.5,222.5 161.2,177.9 161.2,96.5 	"/>
	<polygon class="st3" points="119.3,141.1 97.1,151.5 97.1,207.9 119.3,197.5 	"/>
	<polygon class="st5" points="36.6,99.7 7.4,124.7 7.3,195 64.2,221.6 64.2,140.1 	"/>
	<polygon class="st3" points="43.8,176.9 43.8,156.2 29,149.3 29,170 	"/>
	<g>
		<polygon class="st6" points="93.7,224.8 88.7,227.2 88.7,146.9 93.7,144.6 		"/>
		<polygon class="st7" points="83.7,224.8 88.7,227.2 88.7,146.9 83.7,144.6 		"/>
	</g>
	<g>
		<polygon class="st6" points="173.9,187.9 170.1,189.6 170.1,128.8 173.9,127 		"/>
		<polygon class="st7" points="166.4,187.9 170.1,189.6 170.1,128.8 166.4,127 		"/>
	</g>
	<polygon class="st10" points="5.9,124.6 36.6,98.4 86.6,162 	"/>
	<path class="st0" d="M103,180.5c1-2.4,2.8-4.4,4.7-5.3c2-0.9,3.8-0.5,4.8,0.9l2-0.9c1-2.3,2.8-4.4,4.7-5.3c2-0.9,3.7-0.5,4.8,0.9
		l1.9-0.9c1-2.3,2.7-4.3,4.7-5.2c2-0.9,3.7-0.5,4.7,0.9l2-0.9c1-2.3,2.8-4.4,4.7-5.3c2-0.9,3.7-0.5,4.8,0.9l2-0.9
		c1-2.3,2.8-4.4,4.7-5.3c2-0.9,3.7-0.5,4.7,0.9l2-0.9c1-2.4,2.8-4.5,4.8-5.4c2-0.9,3.8-0.5,4.8,1l1.9-0.9c1-2.3,2.8-4.4,4.7-5.3
		c2-0.9,3.7-0.5,4.7,0.9l2-0.9c1-2.4,2.8-4.4,4.8-5.4c2-0.9,3.8-0.5,4.8,1l1.8-0.8c0.7-1.8,1.8-3.5,3.2-4.6l-64.2-81.6l-97,43.6
		L0,126.9v1.1l36.5-31.3l66.2,84L103,180.5z"/>
	<g>
		<polygon class="st2" points="138.8,213.2 108.7,227 117.1,230.9 147.1,217 		"/>
		<polygon class="st3" points="135,262.4 135.1,273.3 165.1,259.5 165.1,248.5 		"/>
		<polygon class="st2" points="156.5,244.4 126.5,258.3 134.8,262.1 164.8,248.2 		"/>
		<polygon class="st3" points="126.3,246.9 126.3,257.9 156.3,244 156.3,233.1 		"/>
		<polygon class="st2" points="147.7,229 117.7,242.8 126,246.7 156,232.8 		"/>
		<polygon class="st3" points="117.6,231.7 117.6,242.5 147.3,228.8 147.3,218 		"/>
		<polygon class="st1" points="125.2,258.3 125.2,247.4 116.6,243.4 116.5,232 108.9,228.5 109.1,260.4 109.1,261.8 134.6,273.6 
			134.7,262.7 		"/>
	</g>
</g>
</svg>
