<svg xmlns="http://www.w3.org/2000/svg" viewBox="0 0 70.93 192.17"><defs><style>.cls-1{fill:#3f3e31;}.cls-10,.cls-2{fill:#fff;}.cls-2,.cls-5{stroke:#005b8c;stroke-linecap:round;stroke-linejoin:round;}.cls-3{fill:#cb986d;}.cls-4{fill:#ebad74;}.cls-11,.cls-5{fill:none;}.cls-6{fill:#005b8c;}.cls-7{fill:#80c5a3;}.cls-8{fill:#224965;}.cls-9{fill:#7db0a1;}.cls-11{stroke:#fff;stroke-miterlimit:10;}.cls-12{fill:#443246;}</style></defs><title>sprite-Asset 1</title><g id="Layer_2" data-name="Layer 2"><g id="Layer_1-2" data-name="Layer 1"><path class="cls-1" d="M46.61,191.24l-31.5-14.06c-5.48-2.45-5.41-9,.16-14.65h0c5.57-5.61,14.62-8.2,20.1-5.75l31.5,14.06c5.48,2.45,5.41,9-.16,14.65h0C61.13,191.1,52.09,193.69,46.61,191.24Z"/><path class="cls-2" d="M30.68,158.78a2.32,2.32,0,0,0-1.06,2l9.51,6.65c.79.58,2.53,1.21,3.33.26,1.06-1.27-.16-3.7-.16-3.7Z"/><path class="cls-2" d="M30.26,162.07a2.32,2.32,0,0,1,1.06,2l-9.77,7.65a2.27,2.27,0,0,1-3-.16c-1.06-1.27.69-3.59.69-3.59Z"/><path class="cls-3" d="M42.8,132.81c0,.34-7.07,24.8-7.07,24.8S42,162.82,42,163.39s.23,3.74-.79,3.62-9.35-5.55-10-6,0-28.42,0-28.42Z"/><path class="cls-4" d="M18.86,135.19c0,.34,5.66,25.82,5.66,25.82s-5.1,6-5.1,6.57,0,3.28,1,3.17,9.4-6.91,10.08-7.36,0-28.42,0-28.42Z"/><path class="cls-5" d="M20.37,166.18a4.18,4.18,0,0,1,.42,2.53s1.79-2.9,3.43-.58"/><path class="cls-5" d="M40.85,162.8a4.18,4.18,0,0,0-.42,2.53s-1.79-2.9-3.43-.58"/><path class="cls-4" d="M59,94.83c-.22-.51-.93-1.74-1.56-2.8l.06-1.12L51.28,45.79h0a9.82,9.82,0,0,0-9.56-7.74H37l-1.66-6.63C39.43,29.18,42.28,24,42.28,18c0-8.08-5.13-14.64-11.45-14.64S19.39,9.88,19.39,18c0,6.1,2.91,11.32,7.06,13.52l-1.81,6.57H18.07a9.81,9.81,0,0,0-9.62,8H8.3l-6,44.62.31,1.8C1.47,96.24-.17,101.74,0,101.92s3.36,5.69,3.77,6S6.12,106,6.12,106l.29-3.71a1,1,0,0,1-.74.3c-.5-.12-1.19-3-1.19-3l.42-.12s.58,2.57.92,2.65c.15,0,.4-.15.62-.36v-.13a15.22,15.22,0,0,0,1.1-2.95c.14-1-1.3-3.36-1.44-3.84a3.9,3.9,0,0,1,.1-1.1l6.86-30.92L18.69,83c-4.92,7-8.95,17.75-8.95,29.77a64.1,64.1,0,0,0,1.59,14.37c1.19,5.14,38.88,4.37,40.05-1.29a64.68,64.68,0,0,0,1.31-13.08c0-11.9-3.09-22.51-7.92-29.48l2.9-12,6.46,21.94-.36.47a8.89,8.89,0,0,1,.42,2.35c-.21,2.08-.54,3.19.24,3.78a6.28,6.28,0,0,0,1.89,1.24c.91.13,0-3.33,0-3.33s1,3.7,1.19,4.67-1.8,4.29-1.24,4.84,2.63-1.27,3.19-1.82a18.15,18.15,0,0,0,2.22-5.61C61.78,98.66,59.44,95.8,59,94.83Z"/><path class="cls-3" d="M59,94.83c-.22-.51-.93-1.74-1.56-2.8l.12-1-6.3-45.21h0a9.82,9.82,0,0,0-9.56-7.74H37l-1.66-6.63C39.43,29.18,42.28,24,42.28,18c0-8.08-5.13-14.64-11.45-14.64h-.15V130.6c9.94-.2,20.1-1.81,20.7-4.7a64.68,64.68,0,0,0,1.31-13.08c0-11.9-3.09-22.51-7.92-29.48l2.9-12,6.1,21.41v1a8.89,8.89,0,0,1,.42,2.35c-.21,2.08-.54,3.19.24,3.78a6.28,6.28,0,0,0,1.89,1.24c.91.13,0-3.33,0-3.33s1,3.7,1.19,4.67-1.8,4.29-1.24,4.84,2.63-1.27,3.19-1.82a18.15,18.15,0,0,0,2.22-5.61C61.78,98.66,59.44,95.8,59,94.83Z"/><path class="cls-6" d="M58.65,133.75l-6.21-16.59c.11-1.52.17-3.07.17-4.65,0-11.9-3.09-22.51-7.92-29.48l0-.15h-27c-4.89,7-8,17.65-8,29.63,0,1.56.06,3.09.16,4.6L3.6,133.75a1.62,1.62,0,0,0,1,2.06l11.89,4.45a64.07,64.07,0,0,0,14.88,2.07,58.36,58.36,0,0,0,14.47-2.09l11.86-4.44A1.62,1.62,0,0,0,58.65,133.75Z"/><path class="cls-7" d="M16.47,140.27a67.5,67.5,0,0,0,10.42,1.85L20,117.61,14.15,139.4Z"/><path class="cls-8" d="M58.65,133.75l-6.21-16.59c.11-1.52.17-3.07.17-4.65,0-11.9-3.09-22.51-7.92-29.48l0-.15H30.79v59.45h.56a58.36,58.36,0,0,0,14.47-2.09l11.86-4.44A1.62,1.62,0,0,0,58.65,133.75Z"/><path class="cls-9" d="M45.82,140.25l3-1.14-6-21.48-6.59,24.43A60,60,0,0,0,45.82,140.25Z"/><path class="cls-7" d="M55.7,65.56,51.43,45.11h0a9.81,9.81,0,0,0-9.34-7.73L30.94,53.27l-.47-.11L19.82,37.37h-1.6a9.81,9.81,0,0,0-9.62,8H8.45l-4,19.68,8,2.39.67-3,4.85,18a47.07,47.07,0,0,0-7.87,19.69l42,.24c-1.18-7.86-3.73-14.72-7.19-19.71l2.54-14.71Z"/><path class="cls-9" d="M47.67,68l8-2.45L51.43,45.11h0a9.81,9.81,0,0,0-9.34-7.73L30.94,53.27V90.54h-.06v11.71l21.23.11c-1.18-7.86-3.73-14.72-7.19-19.71Z"/><circle class="cls-10" cx="17.15" cy="39.34" r="1.02"/><circle class="cls-10" cx="19.38" cy="42.47" r="1.02"/><circle class="cls-10" cx="21.42" cy="45.6" r="1.02"/><circle class="cls-10" cx="23.72" cy="48.6" r="1.02"/><circle class="cls-10" cx="25.76" cy="51.66" r="1.02"/><circle class="cls-10" cx="28" cy="54.85" r="1.02"/><circle class="cls-10" cx="30.87" cy="58.37" r="1.02"/><circle class="cls-10" cx="44.8" cy="39.47" r="1.02"/><circle class="cls-10" cx="42.56" cy="42.6" r="1.02"/><circle class="cls-10" cx="40.52" cy="45.73" r="1.02"/><circle class="cls-10" cx="38.22" cy="48.73" r="1.02"/><circle class="cls-10" cx="36.18" cy="51.79" r="1.02"/><circle class="cls-10" cx="33.94" cy="54.98" r="1.02"/><path class="cls-11" d="M44.31,50.5s4.85,9.65,4.85,10.73S45,82.67,45,82.67l3.09,4"/><path class="cls-12" d="M20.58,29a10.91,10.91,0,0,1-.26-2.39c0-.36,0-.72.05-1.07a17.16,17.16,0,0,1-.27-3.06C20.09,15,24.82,9,30.65,9s10.56,6,10.56,13.5a17.16,17.16,0,0,1-.27,3.06c0,.35.05.71.05,1.07a10.91,10.91,0,0,1-.28,2.45c-.39,1.7,5.83-4.4,5.83-11.11C46.55,8,39.43,0,30.65,0S14.76,8,14.76,17.95C14.76,24.66,21,30.72,20.58,29Z"/><path class="cls-7" d="M30.66,6.2A9.84,9.84,0,0,1,40,12.7c.17.49.53.51.53,0a9.72,9.72,0,0,0-9.87-9.56,9.72,9.72,0,0,0-9.87,9.56c0,.52.34.56.5.1A9.83,9.83,0,0,1,30.66,6.2Z"/></g></g></svg>