<?xml version="1.0" encoding="utf-8"?>
<!-- Generator: Adobe Illustrator 20.1.0, SVG Export Plug-In . SVG Version: 6.00 Build 0)  -->
<svg version="1.1" id="Layer_1" xmlns="http://www.w3.org/2000/svg" xmlns:xlink="http://www.w3.org/1999/xlink" x="0px" y="0px"
	 viewBox="0 0 84.8 187.4" style="enable-background:new 0 0 84.8 187.4;" xml:space="preserve">
<style type="text/css">
	.st0{fill:#3F3E31;}
	.st1{fill:#B9602E;stroke:#FFFFFF;stroke-linecap:round;stroke-linejoin:round;stroke-miterlimit:10;}
	.st2{fill:#FFFFFF;stroke:#005B8C;stroke-linecap:round;stroke-linejoin:round;stroke-miterlimit:10;}
	.st3{fill:#CB986D;}
	.st4{fill:#EBAD74;}
	.st5{fill:none;stroke:#005B8C;stroke-linecap:round;stroke-linejoin:round;stroke-miterlimit:10;}
	.st6{fill:#005B8C;}
	.st7{fill:#224965;}
	.st8{fill:none;stroke:#FFFFFF;stroke-linecap:round;stroke-linejoin:round;stroke-miterlimit:10;}
	.st9{fill:#FFFFFF;}
	.st10{fill:#B9602E;}
	.st11{fill:#BBBDBF;}
	.st12{fill:#654011;}
	.st13{fill:#FFFFFF;stroke:#B9602E;stroke-linecap:round;stroke-linejoin:round;stroke-miterlimit:10;}
	.st14{fill:none;stroke:#B9602E;stroke-linecap:round;stroke-linejoin:round;stroke-miterlimit:10;}
	.st15{fill:#BBBDBF;stroke:#B9602E;stroke-linecap:round;stroke-linejoin:round;stroke-miterlimit:10;}
	.st16{fill:none;stroke:#EE486A;stroke-linecap:round;stroke-linejoin:round;stroke-miterlimit:10;}
</style>
<path class="st0" d="M60.4,186.5l-31.5-14.1c-5.5-2.4-5.4-9,0.2-14.7l0,0c5.6-5.6,14.6-8.2,20.1-5.8L80.7,166
	c5.5,2.4,5.4,9-0.2,14.7l0,0C75,186.3,65.9,188.9,60.4,186.5z"/>
<g>
	<g>
		<path class="st1" d="M28.3,47.9L21,126.8l-13.7,1.6c0,0-3.8,0-2.6-3.6c1.2-3.6,1.4-11.9,1.4-11.9l-3.9-1.7c0,0-2.7-0.8-1.3-4.5
			c0.8-2.1,10.4-29.7,18.5-53L28.3,47.9z"/>
		<g>
			<path class="st2" d="M43.5,153.3c-0.9,0.5-0.9,1.7-0.9,1.7L51,161c0.7,0.5,2.2,1.1,3,0.2c0.9-1.1-0.1-3.3-0.1-3.3L43.5,153.3z"/>
			<path class="st2" d="M43.1,156.3c0.9,0.5,0.9,1.7,0.9,1.7l-8.7,6.8c-0.7,0.5-2,0.7-2.7-0.1c-0.9-1.1,0.6-3.2,0.6-3.2L43.1,156.3z
				"/>
			<path class="st3" d="M54.3,130.3c0,0.3-6.3,22-6.3,22s5.5,4.6,5.5,5.1s0.2,3.3-0.7,3.2c-0.9-0.1-8.3-4.9-8.9-5.3
				c-0.6-0.4,0-25.2,0-25.2L54.3,130.3z"/>
			<path class="st4" d="M33,132.4c0,0.3,5,22.9,5,22.9s-4.5,5.3-4.5,5.8s0,2.9,0.9,2.8c0.9-0.1,8.3-6.1,8.9-6.5
				c0.6-0.4,0-25.2,0-25.2L33,132.4z"/>
			<path class="st5" d="M34.4,159.9c0,0,0.5,0.8,0.4,2.2c0,0,1.6-2.6,3-0.5"/>
			<path class="st5" d="M52.5,156.9c0,0-0.5,0.8-0.4,2.2c0,0-1.6-2.6-3-0.5"/>
		</g>
		<path class="st4" d="M68.1,95.3c-0.2-0.5-0.8-1.6-1.4-2.5l0.2-0.8l-5.7-40.6l0,0c-0.8-3.9-4.4-6.9-8.5-6.9h-4.2l-1.5-5.9
			c3.6-2,6.2-6.6,6.2-12c0-7.2-4.6-13.1-10.2-13.1s-10.2,5.9-10.2,13.1c0,5.4,2.6,10.1,6.3,12.1l-1.6,5.9h-5.9
			c-4.3,0-7.9,3.1-8.6,7.2l-0.1,0l-5.6,39.8l0.5,1.7c-1,3.3-2,9.3-1.8,9.5c0.2,0.2,1.9,3,2.3,3.3c0.4,0.2,2.3-1.2,2.8-1.8
			c0.3-0.3,0.8-1.5,0.3-1.7c-0.5-0.2-1.7,1.1-2.3,0.9c-0.4-0.1-0.7-1.5-0.7-1.5l1.1-0.9c0,0-0.1,1.1,0.2,1.3
			c0.3,0.2,1.2-0.4,1.6-0.7l0,0c0,0,0.9-1.8,1-2.6c0.1-0.9-1.2-3-1.3-3.4c0-0.1,6.1-26.6,6.1-26.6l4.9,17.1
			C27.4,92,24,100.6,24,111.4c0,9.8,2.4,18.6,6.1,24.9h26.2c3.8-6.2,6.1-15,6.1-24.9c0-10.6-2.8-20.1-7.1-26.4l2.6-10.8l5.8,19.6
			c0,0,0.1,1.9,0.1,2.5c-0.2,1.9-0.5,2.9,0.2,3.4c0.6,0.5,1.2,1,1.7,1.1c0.8,0.1,0-3,0-3s0.9,3.3,1.1,4.2c0.1,0.9-0.8,2-0.3,2.5
			c0.5,0.5,1.8-0.1,2.3-0.6c0.5-0.5,1.6-3.1,1.7-4.3C70.5,98.7,68.4,96.1,68.1,95.3z"/>
		<path class="st3" d="M68.1,95.3c-0.2-0.5-0.8-1.6-1.4-2.5l0.2-0.8l-5.7-40.6l0,0c-0.8-3.9-4.4-6.9-8.5-6.9h-4.2l-1.5-5.9
			c3.6-2,6.2-6.6,6.2-12c0-7.1-4.4-12.9-9.9-13.1v122.7h13.1c3.8-6.2,6.1-15,6.1-24.9c0-10.6-2.8-20.1-7.1-26.4l2.6-10.8l5.8,19.6
			c0,0,0.1,1.9,0.1,2.5c-0.2,1.9-0.5,2.9,0.2,3.4c0.6,0.5,1.2,1,1.7,1.1c0.8,0.1,0-3,0-3s0.9,3.3,1.1,4.2c0.1,0.9-0.8,2-0.3,2.5
			c0.5,0.5,1.8-0.1,2.3-0.6c0.5-0.5,1.6-3.1,1.7-4.3C70.5,98.7,68.4,96.1,68.1,95.3z"/>
		<path class="st6" d="M30.9,89.9c-4,7.7-6.6,19.4-6.6,32.5c0,12.1,2.2,23.1,5.7,30.8h24.5c3.5-7.7,5.7-18.6,5.7-30.8
			c0-12.8-2.4-24.3-6.3-32L30.9,89.9z"/>
		<path class="st7" d="M53.9,90.4l-10.7-0.2v63h11.3c3.5-7.7,5.7-18.6,5.7-30.8C60.2,109.6,57.8,98.1,53.9,90.4z"/>
		<path class="st8" d="M30.2,126c0.6,1,1,2,1,3.2c0,2.8-2.1,5.3-5.2,6.3"/>
		<path class="st8" d="M32.9,127.2c1.2,5.2-2.5,10.5-6.6,11.5"/>
		<path class="st8" d="M35,126.9c1.5,6.4-3.1,12.9-8.1,14.1"/>
		<path class="st8" d="M38.5,127.4c1.9,8.3-4,16.7-10.4,18.3"/>
		<path class="st8" d="M41,152.6c0-7,5.7-12.7,12.7-12.7c1.5,0,2.9,0.3,4.2,0.7"/>
		<path class="st8" d="M58.5,136.7"/>
		<path class="st8" d="M58.5,136.7c-0.9,0.6-2,1-3.2,1c-3,0-5.4-2.4-5.4-5.4c0-3,2.4-5.4,5.4-5.4"/>
		<path class="st8" d="M52.3,140.1c-3.9-1-6.8-4.5-6.8-8.7c0-5,4-9,9-9"/>
		<path class="st8" d="M49,140.9c-5.4-0.4-9.7-4.9-9.7-10.5c0-5.8,4.7-10.5,10.5-10.5"/>
		<path class="st8" d="M36.1,139.6c1.5,0.6,2.9,1.6,4.2,2.8c1,1.1,1.8,2.2,2.4,3.5"/>
		<g>
			<path class="st9" d="M52,129.6H25.1c0,0-3-0.1-4.8-1.1c-2.4-1.3-2.8-3.3-2.8-3.4c0-0.1,0-0.2,0-0.3l5.3-13.5
				c0.4-9.6,3.1-18.6,7.4-24.7l-3.2-11.7c0,0.1-0.1,0.2-0.2,0.2c-0.1,0.1-0.2,0.1-0.3,0.1c-0.1,0-0.2,0-0.2-0.1l-8.8-4.5
				c-0.2-0.1-0.3-0.3-0.3-0.6l4.1-17.9c0-0.1,0.1-0.2,0.2-0.3c1-4.4,4.8-7.6,9.4-7.6h1.9c0.1,0,0.2,0,0.3,0.1l9.7,7.6l7.7-7.6
				c0.1-0.1,0.2-0.1,0.4-0.1H53c4.4,0,8.3,3.1,9.3,7.4c0,0,0,0.1,0.1,0.1l5.1,20.8c0,0.2,0,0.4-0.2,0.5l-8.6,6.6
				c-0.1,0.1-0.2,0.1-0.3,0.1c-0.1,0-0.2,0-0.2-0.1c0,0,0,0,0,0l-1.7,7c4.7,6.8,7.3,16.8,7.3,27.5c0,5.2-0.6,10.2-1.9,15
				c-0.1,0.2-0.3,0.4-0.5,0.4h-1.4c-0.1,0-0.1,0-0.2,0C59.7,129.7,52,129.6,52,129.6z"/>
			<path class="st10" d="M53,44.8c4.3,0,8,3.1,8.9,7.2l0,0l5.1,20.8l-8.6,6.6l0.2-3.6l-2.7,11.2c4.5,6.5,7.4,16.3,7.4,27.4
				c0,5.3-0.7,10.3-1.8,14.8h-1.6l0,0l-7.7,0H25.1c-0.2,0-2.9-0.2-4.6-1.1c-2.2-1.2-2.6-3-2.6-3l5.4-13.6c0.5-10,3.3-18.8,7.4-24.8
				L26.3,70l0.3,4.7l-8.8-4.5l4.1-17.9l0.1,0c0.8-4.2,4.5-7.5,8.9-7.5h1.9L43,52.7l8.1-7.9H53 M53,43.8h-1.9c-0.3,0-0.5,0.1-0.7,0.3
				l-7.4,7.3L33.6,44c-0.2-0.1-0.4-0.2-0.6-0.2H31c-4.7,0-8.8,3.2-9.8,7.8c-0.1,0.1-0.2,0.3-0.2,0.5L16.8,70
				c-0.1,0.4,0.1,0.9,0.5,1.1l8.8,4.5c0.1,0.1,0.3,0.1,0.5,0.1c0.1,0,0.1,0,0.2,0l2.9,10.8c-4.2,6.2-6.9,15.2-7.3,24.7l-5.3,13.4
				c-0.1,0.2-0.1,0.4-0.1,0.6c0,0.1,0.5,2.2,3.1,3.7c1.9,1.1,5,1.2,5,1.2H52l7.7,0c0,0,0,0,0,0c0.1,0,0.2,0,0.3,0h1.4
				c0.5,0,0.9-0.3,1-0.7c1.2-4.8,1.9-9.8,1.9-15.1c0-10.7-2.6-20.7-7.3-27.6l1.5-6.3c0.2,0,0.3-0.1,0.5-0.2l8.6-6.6
				c0.3-0.2,0.5-0.6,0.4-1l-5.1-20.8c0-0.1,0-0.1-0.1-0.2C61.7,47.1,57.6,43.8,53,43.8L53,43.8z"/>
		</g>
		<path class="st11" d="M58.5,75.7l-0.2,3.6l8.6-6.6L61.9,52l0,0c-0.9-4.1-4.5-7.2-8.9-7.2h-1.9L43,52.8l0.2,76.5l8.9-0.1l7.7,0l0,0
			h1.6c1.2-4.5,1.8-9.5,1.8-14.8c0-11.1-2.9-20.9-7.4-27.4L58.5,75.7z"/>
		<path class="st1" d="M62.4,49.4L45.8,66.9c0,0-1.5,1.9-4.3,0.3S18.8,54.9,18.8,54.9s1.2-7.6,3.5-9.1s13.6-2.7,13.6-2.7l7.9,7.5
			c0,0,1.6,2.1,3.1,0.9s7.9-8.1,7.9-8.1S61.6,43.6,62.4,49.4z"/>
		<g>
			<path class="st12" d="M54.9,43.9c0,0-7.3,7.9-8.1,8.3c-1.6,0.7-2.9-0.8-2.9-0.8L43.5,51v16.4c1.5,0,2.3-1.1,2.3-1.1l16.1-17
				C61,44.1,54.9,43.9,54.9,43.9z"/>
		</g>
		<path class="st8" d="M58.1,45.3L47.4,57.6c0,0-0.9,1.3-2.6,0.4c-2-1.1-10.3-5.7-10.3-5.7"/>
		<path class="st8" d="M48,63.4c0,0-0.9,1.3-2.6,0.4c-2-1.1-14.6-8.2-14.6-8.2"/>
		<g>
			<g>
				<path class="st13" d="M29.5,20c-1.1,0-1.2-1.6-1.7-2c-1.7-1.2-2.7,4.7-3.4,4.7c-0.8-0.1-3.2,0-3.1-4.7
					c0.2-8.5,7.3-14.9,14.9-14.9c3.1,0,6.2,0.9,8.4,3C45.6,7,29.8,20.1,29.5,20z"/>
				<path class="st13" d="M56.3,22.1c0,2.4-2.9,5.4-3.7,7.4c-2.3,6.2-1.5,3.6-7.7,3.6c-8.3,0-13.4,2.3-15.5-8.7
					c-0.2-0.8-3.2,0-3.1-4.7c0.2-8.5,7.3-14.9,14.9-14.9C49.6,4.8,56.3,12.5,56.3,22.1z"/>
				<path class="st14" d="M29.3,20.9c0.2-6.9,5.6-14.8,15-14.8"/>
				<path class="st14" d="M31.6,26.4c-0.3-1.2-0.5-2.5-0.5-3.9c0-7.1,5.1-12.7,11.3-13.3c0.7-0.1,1.8-0.1,2.9,0"/>
				<path class="st14" d="M33.9,21.5c0.4-3,1.8-5.5,4.3-7c2.5-1.5,5.4-1.6,8.3-0.6"/>
				<path class="st4" d="M40.7,18c-2.1,0-4.1,0.4-6,1.1c-1.2,2.1-1.9,4.7-1.9,7.4c0,7.1,4.6,12.8,10.3,12.8s10.3-5.7,10.3-12.8
					c0-1.2-0.1-2.4-0.4-3.5C49.8,19.9,45.5,18,40.7,18z"/>
				<path class="st3" d="M53,23c-2.6-2.5-6-4.3-9.8-4.8v21.1c5.6-0.1,10.2-5.8,10.2-12.8C53.4,25.3,53.3,24.1,53,23z"/>
				<path class="st14" d="M53,23c-3.2-3.1-7.5-5-12.3-5c-2.1,0-4.1,0.4-6,1.1"/>
				<g>
					
						<rect x="49.4" y="0.7" transform="matrix(0.829 0.5593 -0.5593 0.829 10.7002 -27.3485)" class="st11" width="1.3" height="6.2"/>
					<g>
						<path class="st13" d="M55.3,2.3l-2.2-1.6c-0.3-0.2-0.6-0.2-0.9-0.2c0.2,0.3,0.2,0.8,0,1.2l-3.3,4.8c-0.3,0.4-0.7,0.5-1.1,0.4
							c0.1,0.3,0.2,0.5,0.5,0.7l2.2,1.6c0.5,0.4,1.2,0.2,1.6-0.3l3.6-5.1C56,3.4,55.8,2.6,55.3,2.3z"/>
					</g>
					<path class="st13" d="M51.6,1c-0.2,0-0.5,0.2-0.7,0.5l-2.7,4C48,5.7,48,6,48,6.2"/>
				</g>
				<path class="st11" d="M47.3,8.3c0,0.6,0,0.9,0.6,1.5c0.3,0.3,0,0.7,2.2-0.2c0.9-0.4,2-1.1,1.9-1.4c-0.2-1.8-2.3-0.9-3.8-0.9"/>
				<path class="st15" d="M50.2,7.1c0.7,0,2,0.8,2,0.6c-0.1-1.3-1.3-2.2-2.5-2.2c-1.5,0-2.7,1.3-2.7,2.9c0,0.4,0.3,1.3,0.8,1.7
					C47.9,10.3,47.7,7.1,50.2,7.1z"/>
				<g>
					
						<rect x="52.3" y="5.9" transform="matrix(-0.2483 0.9687 -0.9687 -0.2483 75.347 -39.2942)" class="st11" width="1.3" height="7.3"/>
					<g>
						<path class="st13" d="M56.6,14.2l0.8-2.7c0.1-0.3,0-0.7-0.1-0.9c-0.3,0.3-0.7,0.5-1.1,0.4l-5.9-1.6c-0.4-0.1-0.8-0.5-0.8-1
							C49.2,8.5,49,8.7,48.9,9l-0.8,2.7c-0.2,0.6,0.2,1.3,0.8,1.5l6.2,1.8C55.7,15.2,56.4,14.9,56.6,14.2z"/>
					</g>
					<path class="st13" d="M56.6,10.1c-0.1-0.2-0.4-0.4-0.7-0.5L51,8.3c-0.3-0.1-0.6-0.1-0.8,0.1"/>
				</g>
			</g>
			<path class="st13" d="M53.1,21.4c0,0-0.1-3.1-1.4-4.8"/>
		</g>
		<g>
			<circle class="st10" cx="33.7" cy="74.3" r="1"/>
			<ellipse class="st10" cx="33.6" cy="70.8" rx="0.6" ry="1.9"/>
			
				<ellipse transform="matrix(0.7104 -0.7038 0.7038 0.7104 -40.0593 46.2179)" class="st10" cx="36.1" cy="71.8" rx="1.9" ry="0.6"/>
			
				<ellipse transform="matrix(0.9657 -0.2595 0.2595 0.9657 -17.9686 12.1999)" class="st10" cx="37.2" cy="74.2" rx="1.9" ry="0.6"/>
			<ellipse transform="matrix(0.7038 -0.7104 0.7104 0.7038 -41.8175 43.2789)" class="st10" cx="31" cy="71.8" rx="0.6" ry="1.9"/>
			
				<ellipse transform="matrix(0.2595 -0.9657 0.9657 0.2595 -49.4816 83.7882)" class="st10" cx="29.9" cy="74.2" rx="0.6" ry="1.9"/>
		</g>
		<g>
			<circle class="st10" cx="48.5" cy="75" r="1"/>
			<ellipse class="st10" cx="48.4" cy="71.5" rx="0.6" ry="1.9"/>
			<ellipse transform="matrix(0.7104 -0.7038 0.7038 0.7104 -36.2201 56.8348)" class="st10" cx="51" cy="72.4" rx="1.9" ry="0.6"/>
			<ellipse transform="matrix(0.9657 -0.2595 0.2595 0.9657 -17.6279 16.0676)" class="st10" cx="52" cy="74.8" rx="1.9" ry="0.6"/>
			
				<ellipse transform="matrix(0.7038 -0.7104 0.7104 0.7038 -37.8846 53.9979)" class="st10" cx="45.8" cy="72.4" rx="0.6" ry="1.9"/>
			
				<ellipse transform="matrix(0.2595 -0.9657 0.9657 0.2595 -39.1282 98.5773)" class="st10" cx="44.7" cy="74.8" rx="0.6" ry="1.9"/>
		</g>
		<g>
			<circle class="st10" cx="57.1" cy="65.9" r="1"/>
			<ellipse class="st10" cx="56.9" cy="62.4" rx="0.6" ry="1.9"/>
			
				<ellipse transform="matrix(0.7038 -0.7104 0.7104 0.7038 -28.8914 57.395)" class="st10" cx="54.4" cy="63.3" rx="0.6" ry="1.9"/>
			
				<ellipse transform="matrix(0.2595 -0.9657 0.9657 0.2595 -24.0071 100.1258)" class="st10" cx="53.3" cy="65.7" rx="0.6" ry="1.9"/>
			<path class="st10" d="M58.7,63.4c-0.4,0.6-0.6,1.1-0.5,1.2c0.1,0.1,0.5,0,0.9-0.2L58.7,63.4z"/>
			<path class="st10" d="M59.6,65.5c-0.5,0.2-0.9,0.5-0.8,0.7c0.1,0.2,0.6,0.3,1.2,0.2L59.6,65.5z"/>
		</g>
		<g>
			<path class="st10" d="M64.1,74.5c-0.2-0.1-0.4-0.2-0.6-0.2c-1-0.3-1.8-0.7-2,0.1c-0.2,0.7,0.6,0.8,1.5,1L64.1,74.5z"/>
			<path class="st10" d="M64,72.8c0.4,0.4,0.8,0.7,1.1,0.8l0.6-0.5c-0.2-0.3-0.5-0.8-0.9-1.2c-0.7-0.7-1.2-1.5-1.7-0.9
				C62.5,71.7,63.2,72.1,64,72.8z"/>
		</g>
		<g>
			<circle class="st10" cx="22.1" cy="65.9" r="1"/>
			<ellipse class="st10" cx="22" cy="62.4" rx="0.6" ry="1.9"/>
			<ellipse transform="matrix(0.7104 -0.7038 0.7038 0.7104 -37.469 35.628)" class="st10" cx="24.6" cy="63.3" rx="1.9" ry="0.6"/>
			
				<ellipse transform="matrix(0.9657 -0.2595 0.2595 0.9657 -16.1742 8.9076)" class="st10" cx="25.7" cy="65.7" rx="1.9" ry="0.6"/>
			<path class="st10" d="M19.9,63l-0.3,1.3c0.5,0.4,1,0.6,1.2,0.4C21,64.4,20.6,63.7,19.9,63z"/>
			<path class="st10" d="M19.4,65.5l-0.2,1c0.5,0,0.9,0,1-0.2C20.2,66,19.9,65.7,19.4,65.5z"/>
		</g>
		<g>
			<ellipse class="st10" cx="57.2" cy="79.6" rx="0.6" ry="1.9"/>
			
				<ellipse transform="matrix(0.7038 -0.7104 0.7104 0.7038 -41.0571 62.6507)" class="st10" cx="54.6" cy="80.6" rx="0.6" ry="1.9"/>
			
				<ellipse transform="matrix(0.2595 -0.9657 0.9657 0.2595 -40.4714 113.0872)" class="st10" cx="53.5" cy="82.9" rx="0.6" ry="1.9"/>
		</g>
		<g>
			<circle class="st10" cx="40.9" cy="83.1" r="1"/>
			<ellipse class="st10" cx="40.8" cy="79.6" rx="0.6" ry="1.9"/>
			<ellipse transform="matrix(0.7104 -0.7038 0.7038 0.7104 -44.124 53.888)" class="st10" cx="43.4" cy="80.6" rx="1.9" ry="0.6"/>
			
				<ellipse transform="matrix(0.9657 -0.2595 0.2595 0.9657 -19.9957 14.3915)" class="st10" cx="44.5" cy="82.9" rx="1.9" ry="0.6"/>
			
				<ellipse transform="matrix(0.7038 -0.7104 0.7104 0.7038 -45.892 51.0551)" class="st10" cx="38.3" cy="80.6" rx="0.6" ry="1.9"/>
			
				<ellipse transform="matrix(0.2595 -0.9657 0.9657 0.2595 -52.5585 97.3236)" class="st10" cx="37.2" cy="82.9" rx="0.6" ry="1.9"/>
		</g>
		<g>
			<circle class="st10" cx="32.5" cy="91.3" r="1"/>
			<ellipse class="st10" cx="32.4" cy="87.8" rx="0.6" ry="1.9"/>
			<ellipse transform="matrix(0.7104 -0.7038 0.7038 0.7104 -52.3563 50.363)" class="st10" cx="35" cy="88.8" rx="1.9" ry="0.6"/>
			
				<ellipse transform="matrix(0.9657 -0.2595 0.2595 0.9657 -22.4218 12.4942)" class="st10" cx="36.1" cy="91.2" rx="1.9" ry="0.6"/>
			<path class="st10" d="M28.9,90.6c-0.1,0-0.2-0.1-0.3-0.1l-0.6,1.1c0.2,0,0.4,0.1,0.5,0.1c1,0.3,1.9,0.2,2-0.1
				C30.7,91.4,29.9,90.9,28.9,90.6z"/>
			<path class="st10" d="M30.3,88.4c-0.1-0.1-0.2-0.3-0.4-0.4l-0.6,1.1c0,0,0.1,0.1,0.1,0.1c0.7,0.7,1.5,1.1,1.7,0.9
				C31.4,89.9,31,89.1,30.3,88.4z"/>
		</g>
		<g>
			<circle class="st10" cx="48.5" cy="91.3" r="1"/>
			<ellipse class="st10" cx="48.4" cy="87.8" rx="0.6" ry="1.9"/>
			<ellipse transform="matrix(0.7104 -0.7038 0.7038 0.7104 -47.7424 61.576)" class="st10" cx="51" cy="88.8" rx="1.9" ry="0.6"/>
			<ellipse transform="matrix(0.9657 -0.2595 0.2595 0.9657 -21.8761 16.6284)" class="st10" cx="52" cy="91.2" rx="1.9" ry="0.6"/>
			
				<ellipse transform="matrix(0.7038 -0.7104 0.7104 0.7038 -49.515 58.8472)" class="st10" cx="45.8" cy="88.8" rx="0.6" ry="1.9"/>
			
				<ellipse transform="matrix(0.2595 -0.9657 0.9657 0.2595 -54.939 110.7006)" class="st10" cx="44.7" cy="91.2" rx="0.6" ry="1.9"/>
		</g>
		<g>
			<circle class="st10" cx="55.3" cy="100.2" r="1"/>
			<ellipse class="st10" cx="55.2" cy="96.7" rx="0.6" ry="1.9"/>
			
				<ellipse transform="matrix(0.7104 -0.7038 0.7038 0.7104 -51.9893 68.9027)" class="st10" cx="57.7" cy="97.6" rx="1.9" ry="0.6"/>
			
				<ellipse transform="matrix(0.9657 -0.2595 0.2595 0.9657 -23.9336 18.6899)" class="st10" cx="58.8" cy="100" rx="1.9" ry="0.6"/>
			
				<ellipse transform="matrix(0.7038 -0.7104 0.7104 0.7038 -53.7754 66.277)" class="st10" cx="52.6" cy="97.6" rx="0.6" ry="1.9"/>
			
				<ellipse transform="matrix(0.2595 -0.9657 0.9657 0.2595 -58.4403 123.782)" class="st10" cx="51.5" cy="100" rx="0.6" ry="1.9"/>
		</g>
		<g>
			<circle class="st10" cx="39.8" cy="100.2" r="1"/>
			<ellipse class="st10" cx="39.7" cy="96.7" rx="0.6" ry="1.9"/>
			
				<ellipse transform="matrix(0.7104 -0.7038 0.7038 0.7104 -56.4562 58.0469)" class="st10" cx="42.3" cy="97.6" rx="1.9" ry="0.6"/>
			
				<ellipse transform="matrix(0.9657 -0.2595 0.2595 0.9657 -24.4619 14.6873)" class="st10" cx="43.4" cy="100" rx="1.9" ry="0.6"/>
			
				<ellipse transform="matrix(0.7038 -0.7104 0.7104 0.7038 -58.3443 55.3193)" class="st10" cx="37.2" cy="97.6" rx="0.6" ry="1.9"/>
			
				<ellipse transform="matrix(0.2595 -0.9657 0.9657 0.2595 -69.8625 108.8857)" class="st10" cx="36.1" cy="100" rx="0.6" ry="1.9"/>
		</g>
		<g>
			<circle class="st10" cx="30.5" cy="108.9" r="1"/>
			<ellipse class="st10" cx="30.4" cy="105.4" rx="0.6" ry="1.9"/>
			
				<ellipse transform="matrix(0.7104 -0.7038 0.7038 0.7104 -65.3131 54.0399)" class="st10" cx="33" cy="106.4" rx="1.9" ry="0.6"/>
			
				<ellipse transform="matrix(0.9657 -0.2595 0.2595 0.9657 -27.0532 12.5748)" class="st10" cx="34.1" cy="108.8" rx="1.9" ry="0.6"/>
			
				<ellipse transform="matrix(0.7038 -0.7104 0.7104 0.7038 -67.3204 51.3088)" class="st10" cx="27.9" cy="106.4" rx="0.6" ry="1.9"/>
			
				<ellipse transform="matrix(0.2595 -0.9657 0.9657 0.2595 -85.2061 106.3927)" class="st10" cx="26.8" cy="108.8" rx="0.6" ry="1.9"/>
		</g>
		<g>
			<circle class="st10" cx="46.5" cy="108.9" r="1"/>
			<ellipse class="st10" cx="46.4" cy="105.4" rx="0.6" ry="1.9"/>
			
				<ellipse transform="matrix(0.7104 -0.7038 0.7038 0.7104 -60.6993 65.2528)" class="st10" cx="48.9" cy="106.4" rx="1.9" ry="0.6"/>
			
				<ellipse transform="matrix(0.9657 -0.2595 0.2595 0.9657 -26.5075 16.7089)" class="st10" cx="50" cy="108.8" rx="1.9" ry="0.6"/>
			
				<ellipse transform="matrix(0.7038 -0.7104 0.7104 0.7038 -62.6013 62.6269)" class="st10" cx="43.8" cy="106.4" rx="0.6" ry="1.9"/>
			
				<ellipse transform="matrix(0.2595 -0.9657 0.9657 0.2595 -73.4082 121.779)" class="st10" cx="42.7" cy="108.8" rx="0.6" ry="1.9"/>
		</g>
		<g>
			<circle class="st10" cx="54.5" cy="116.9" r="1"/>
			<ellipse class="st10" cx="54.4" cy="113.4" rx="0.6" ry="1.9"/>
			
				<ellipse transform="matrix(0.7104 -0.7038 0.7038 0.7104 -64.0094 73.2536)" class="st10" cx="57" cy="114.4" rx="1.9" ry="0.6"/>
			
				<ellipse transform="matrix(0.9657 -0.2595 0.2595 0.9657 -28.3129 19.077)" class="st10" cx="58.1" cy="116.8" rx="1.9" ry="0.6"/>
			
				<ellipse transform="matrix(0.7038 -0.7104 0.7104 0.7038 -65.9112 70.734)" class="st10" cx="51.9" cy="114.4" rx="0.6" ry="1.9"/>
			
				<ellipse transform="matrix(0.2595 -0.9657 0.9657 0.2595 -75.1824 135.5104)" class="st10" cx="50.8" cy="116.8" rx="0.6" ry="1.9"/>
		</g>
		<g>
			<circle class="st10" cx="39.1" cy="116.9" r="1"/>
			<ellipse class="st10" cx="39" cy="113.4" rx="0.6" ry="1.9"/>
			
				<ellipse transform="matrix(0.7104 -0.7038 0.7038 0.7104 -68.4764 62.3978)" class="st10" cx="41.6" cy="114.4" rx="1.9" ry="0.6"/>
			
				<ellipse transform="matrix(0.9657 -0.2595 0.2595 0.9657 -28.8413 15.0745)" class="st10" cx="42.7" cy="116.8" rx="1.9" ry="0.6"/>
			
				<ellipse transform="matrix(0.7038 -0.7104 0.7104 0.7038 -70.48 59.7763)" class="st10" cx="36.4" cy="114.4" rx="0.6" ry="1.9"/>
			
				<ellipse transform="matrix(0.2595 -0.9657 0.9657 0.2595 -86.6046 120.6141)" class="st10" cx="35.3" cy="116.8" rx="0.6" ry="1.9"/>
		</g>
		<g>
			<circle class="st10" cx="29.8" cy="125.2" r="1"/>
			<ellipse class="st10" cx="29.7" cy="121.7" rx="0.6" ry="1.9"/>
			
				<ellipse transform="matrix(0.7104 -0.7038 0.7038 0.7104 -76.9687 58.2408)" class="st10" cx="32.3" cy="122.6" rx="1.9" ry="0.6"/>
			
				<ellipse transform="matrix(0.9657 -0.2595 0.2595 0.9657 -31.2981 12.9442)" class="st10" cx="33.4" cy="125" rx="1.9" ry="0.6"/>
			
				<ellipse transform="matrix(0.7038 -0.7104 0.7104 0.7038 -79.0881 55.6123)" class="st10" cx="27.1" cy="122.6" rx="0.6" ry="1.9"/>
			
				<ellipse transform="matrix(0.2595 -0.9657 0.9657 0.2595 -101.4479 117.7375)" class="st10" cx="26.1" cy="125" rx="0.6" ry="1.9"/>
		</g>
		<g>
			<circle class="st10" cx="45.7" cy="125.2" r="1"/>
			<ellipse class="st10" cx="45.6" cy="121.7" rx="0.6" ry="1.9"/>
			
				<ellipse transform="matrix(0.7104 -0.7038 0.7038 0.7104 -72.3548 69.4537)" class="st10" cx="48.2" cy="122.6" rx="1.9" ry="0.6"/>
			
				<ellipse transform="matrix(0.9657 -0.2595 0.2595 0.9657 -30.7524 17.0784)" class="st10" cx="49.3" cy="125" rx="1.9" ry="0.6"/>
			
				<ellipse transform="matrix(0.7038 -0.7104 0.7104 0.7038 -74.369 66.9304)" class="st10" cx="43.1" cy="122.6" rx="0.6" ry="1.9"/>
			<ellipse transform="matrix(0.2595 -0.9657 0.9657 0.2595 -89.65 133.1238)" class="st10" cx="42" cy="125" rx="0.6" ry="1.9"/>
		</g>
		<g>
			<ellipse class="st10" cx="62" cy="122" rx="0.6" ry="1.9"/>
			<ellipse transform="matrix(0.7038 -0.7104 0.7104 0.7038 -69.7913 78.628)" class="st10" cx="59.4" cy="123" rx="0.6" ry="1.9"/>
			
				<ellipse transform="matrix(0.2595 -0.9657 0.9657 0.2595 -77.9145 149.1473)" class="st10" cx="58.3" cy="125.4" rx="0.6" ry="1.9"/>
			<path class="st10" d="M62.4,124.6c-0.1,0-0.2-0.1-0.4-0.1c-0.6,0-1,0.5-1,1c0,0.5,0.4,1,0.9,1L62.4,124.6z"/>
		</g>
		<g>
			<circle class="st10" cx="22.9" cy="116.8" r="1"/>
			
				<ellipse transform="matrix(0.7104 -0.7038 0.7038 0.7104 -73.0435 50.9182)" class="st10" cx="25.4" cy="114.2" rx="1.9" ry="0.6"/>
			
				<ellipse transform="matrix(0.9657 -0.2595 0.2595 0.9657 -29.348 10.8558)" class="st10" cx="26.4" cy="116.6" rx="1.9" ry="0.6"/>
			<path class="st10" d="M22.2,113.9c0.1,0.7,0.3,1.3,0.5,1.3c0.3,0,0.6-0.8,0.6-1.9c0-0.7,0.1-1.3-0.1-1.6L22.2,113.9z"/>
		</g>
		<g>
			
				<ellipse transform="matrix(0.9657 -0.2595 0.2595 0.9657 -25.0352 10.3445)" class="st10" cx="26.7" cy="100" rx="1.9" ry="0.6"/>
			<path class="st10" d="M26.9,96.3c-0.3-0.3-0.6-0.2-0.9,0l-0.6,2.2c0.2-0.1,0.3-0.3,0.5-0.4C26.7,97.3,27.5,96.9,26.9,96.3z"/>
		</g>
		<g>
			
				<ellipse transform="matrix(0.7038 -0.7104 0.7104 0.7038 -57.7119 74.3535)" class="st10" cx="60.3" cy="106.4" rx="0.6" ry="1.9"/>
			
				<ellipse transform="matrix(0.2595 -0.9657 0.9657 0.2595 -61.1846 137.7206)" class="st10" cx="59.2" cy="108.8" rx="0.6" ry="1.9"/>
			<path class="st10" d="M62.8,107.9c-0.5,0.1-0.9,0.5-0.9,1c0,0.5,0.4,1,1,1L62.8,107.9z"/>
		</g>
		<path class="st8" d="M47,152.7c0-3.9,3.2-7.1,7.1-7.1c0.8,0,1.6,0.1,2.3,0.4"/>
		<path class="st8" d="M43.9,152.6c0-5.6,4.5-10.1,10.1-10.1c1.2,0,2.3,0.2,3.3,0.6"/>
		<path class="st16" d="M55.3,126.9"/>
		<path class="st8" d="M28.5,146.9c3.2-0.5,6.7,0.3,9.5,2.4c1.2,0.9,2.2,1.9,2.9,3.1"/>
		<path class="st8" d="M33.1,142.9c1.9,0.3,3.8,1.1,5.4,2.4c1.2,0.9,2.2,1.9,2.9,3.1"/>
		<path class="st14" d="M55.9,57.7c0,0,4.3,8.6,4.3,9.6c0,1-3.8,19.9-3.8,19.9l2.1,3.3"/>
	</g>
</g>
</svg>
