<?xml version="1.0" encoding="utf-8"?>
<!-- Generator: Adobe Illustrator 20.1.0, SVG Export Plug-In . SVG Version: 6.00 Build 0)  -->
<svg version="1.1" id="Layer_1" xmlns="http://www.w3.org/2000/svg" xmlns:xlink="http://www.w3.org/1999/xlink" x="0px" y="0px"
	 viewBox="0 0 348.7 281.7" style="enable-background:new 0 0 348.7 281.7;" xml:space="preserve">
<style type="text/css">
	.st0{fill:#006838;}
	.st1{fill:#9A8479;}
	.st2{fill:#D27328;}
	.st3{fill:#FCE6A1;}
	.st4{fill:#EBAD74;}
	.st5{fill:#3F3E31;}
	.st6{fill:#941B1F;}
</style>
<g>
	<polygon class="st0" points="154.8,240 214.8,212 224.7,207.4 257.6,192.1 348.7,234.1 245.7,281.7 	"/>
	<polygon class="st0" points="198.2,268.8 204.5,265.9 205.5,265.4 208.9,263.8 218.5,268.2 207.7,273.2 	"/>
	<polygon class="st0" points="29.9,173.8 89.9,145.8 99.8,141.2 132.6,125.9 223.7,167.9 120.8,215.5 	"/>
	<polygon class="st0" points="73.3,202.6 79.6,199.7 80.6,199.2 84,197.6 93.5,202 82.8,207 	"/>
	<g>
		<g>
			<polygon class="st1" points="36.5,138.1 37.1,129.9 33,131.8 33.5,139.4 			"/>
			<polygon class="st2" points="123.8,127.3 120.2,179.3 117.7,180.4 114.5,123 95.1,114 8.6,153.7 94.7,193.3 180.7,153.8 			"/>
		</g>
		<polygon class="st3" points="100.1,102.2 100.1,110.7 100.2,118.3 100.3,188 19.1,150.5 18.8,81.5 		"/>
		<polygon class="st4" points="7.7,153.8 7.7,162.9 94.4,203 94.4,193.8 		"/>
		<polygon class="st5" points="65.8,117.7 87.2,127.7 87.2,181.9 65.8,171.9 		"/>
		<g>
			<polygon class="st4" points="73.6,191.5 73.6,201.3 46.6,188.8 46.6,179 			"/>
			<polygon class="st2" points="54.3,175.3 81.3,187.8 73.8,191.2 46.8,178.8 			"/>
			<g>
				<polygon class="st5" points="82.5,188.8 74,192.7 74,202.6 82.5,198.6 				"/>
			</g>
		</g>
		<polygon class="st6" points="181.7,154 181.7,163.1 95,203.2 95,194 		"/>
		<g>
			<path class="st2" d="M149.3,47.5l0.1-4c0-1.8-0.8-3.1-2-3.4l0-0.1L59.6,0v0.2c-0.5,0-1.1,0.1-1.7,0.3c-2.3,1.1-4.2,4.2-4.2,7v3.9
				L0,79.8c1.2,1,2.3,2.5,2.9,4.2l1.6,0.7c0.9-1.3,2.5-1.7,4.3-0.9c1.8,0.8,3.4,2.7,4.3,4.8l1.8,0.8c0.9-1.3,2.5-1.6,4.3-0.8
				c1.8,0.8,3.3,2.6,4.2,4.7l1.8,0.8c0.9-1.3,2.5-1.7,4.3-0.9c1.8,0.8,3.4,2.7,4.3,4.9l1.8,0.8c0.9-1.3,2.5-1.7,4.3-0.8
				c1.8,0.8,3.3,2.7,4.3,4.8l1.8,0.8c0.9-1.3,2.5-1.7,4.3-0.8c1.8,0.8,3.4,2.7,4.3,4.8l1.8,0.8c0.9-1.2,2.5-1.6,4.3-0.8
				c1.8,0.8,3.3,2.6,4.2,4.7l1.8,0.8c0.9-1.3,2.5-1.7,4.3-0.8c1.8,0.8,3.4,2.7,4.3,4.8l1.8,0.8c0.9-1.3,2.5-1.7,4.3-0.8
				c1.8,0.8,3.4,2.7,4.3,4.8l0.3,0.1l59.6-75.6L178,74.8l0-2.3L149.3,47.5z"/>
			<g>
				<polygon class="st4" points="172.9,154.9 172.8,75.1 172.8,71.3 145.5,47.9 100.9,104.6 100.8,113.2 100.9,113.2 100.9,188.4 
									"/>
				<g>
					<g>
						<path class="st6" d="M94.5,107.6c-0.9-2-2.4-3.7-4.2-4.5c-1.8-0.8-3.4-0.4-4.3,0.8l-1.8-0.8c-0.9-2.1-2.5-4-4.3-4.8
							c-1.8-0.8-3.4-0.4-4.3,0.8l-1.8-0.8c-0.9-2.1-2.5-3.9-4.2-4.7c-1.8-0.8-3.3-0.5-4.3,0.8l-1.8-0.8c-0.9-2.1-2.5-4-4.3-4.8
							c-1.8-0.8-3.4-0.4-4.3,0.8l-1.8-0.8c-0.9-2.1-2.5-3.9-4.3-4.8c-1.8-0.8-3.4-0.4-4.3,0.8L43,84c-0.9-2.1-2.5-4-4.3-4.9
							c-1.8-0.8-3.4-0.4-4.3,0.9l-1.8-0.8c-0.9-2.1-2.5-3.9-4.2-4.7c-1.8-0.8-3.3-0.5-4.3,0.8l-1.8-0.8c-0.9-2.1-2.5-4-4.3-4.8
							c-1.8-0.8-3.4-0.4-4.3,0.9l-1.6-0.7c-0.5-1.3-1.3-2.5-2.2-3.5L9,67.4c1.2,1,2.3,2.5,2.9,4.2l1.6,0.7c0.9-1.3,2.5-1.7,4.3-0.9
							c1.8,0.8,3.4,2.7,4.3,4.8l1.8,0.8c0.9-1.3,2.5-1.6,4.3-0.8c1.8,0.8,3.3,2.6,4.2,4.7l1.8,0.8c0.9-1.3,2.5-1.7,4.3-0.9
							c1.8,0.8,3.4,2.7,4.3,4.9l1.8,0.8c0.9-1.3,2.5-1.7,4.3-0.8c1.8,0.8,3.3,2.7,4.3,4.8l1.8,0.8c0.9-1.3,2.5-1.7,4.3-0.8
							c1.8,0.8,3.4,2.7,4.3,4.8l1.8,0.8c0.9-1.2,2.5-1.6,4.3-0.8c1.8,0.8,3.3,2.6,4.2,4.7l1.8,0.8c0.9-1.3,2.5-1.7,4.3-0.8
							c1.8,0.8,3.4,2.7,4.3,4.8l1.8,0.8c0.9-1.3,2.5-1.7,4.3-0.8c1.8,0.8,3.4,2.7,4.3,4.8l0.1,0V107.6z"/>
					</g>
					<g>
						<path class="st6" d="M104.8,94.8c-0.9-2-2.4-3.7-4.2-4.5c-1.8-0.8-3.4-0.4-4.3,0.8l-1.8-0.8c-0.9-2.1-2.5-4-4.3-4.8
							c-1.8-0.8-3.4-0.4-4.3,0.8l-1.8-0.8c-0.9-2.1-2.5-3.9-4.2-4.7c-1.8-0.8-3.3-0.5-4.3,0.8L74,80.8c-0.9-2.1-2.5-4-4.3-4.8
							c-1.8-0.8-3.4-0.4-4.3,0.8L63.7,76c-0.9-2.1-2.5-3.9-4.3-4.8c-1.8-0.8-3.4-0.4-4.3,0.8l-1.8-0.8c-0.9-2.1-2.5-4-4.3-4.9
							c-1.8-0.8-3.4-0.4-4.3,0.9L43,66.4c-0.9-2.1-2.5-3.9-4.2-4.7c-1.8-0.8-3.3-0.5-4.3,0.8l-1.8-0.8c-0.9-2.1-2.5-4-4.3-4.8
							c-1.8-0.8-3.4-0.4-4.3,0.9L22.5,57c-0.5-1.3-1.3-2.5-2.2-3.5l-0.9,1.2c1.2,1,2.3,2.5,2.9,4.2l1.6,0.7c0.9-1.3,2.5-1.7,4.3-0.9
							c1.8,0.8,3.4,2.7,4.3,4.8l1.8,0.8c0.9-1.3,2.5-1.6,4.3-0.8c1.8,0.8,3.3,2.6,4.2,4.7l1.8,0.8c0.9-1.3,2.5-1.7,4.3-0.9
							c1.8,0.8,3.4,2.7,4.3,4.9l1.8,0.8c0.9-1.3,2.5-1.7,4.3-0.8c1.8,0.8,3.3,2.7,4.3,4.8l1.8,0.8c0.9-1.3,2.5-1.7,4.3-0.8
							c1.8,0.8,3.4,2.7,4.3,4.8l1.8,0.8c0.9-1.2,2.5-1.6,4.3-0.8c1.8,0.8,3.3,2.6,4.2,4.7l1.8,0.8c0.9-1.3,2.5-1.7,4.3-0.8
							c1.8,0.8,3.4,2.7,4.3,4.8l1.8,0.8c0.9-1.3,2.5-1.7,4.3-0.8c1.8,0.8,3.4,2.7,4.3,4.8l0.1,0V94.8z"/>
					</g>
					<g>
						<path class="st6" d="M114.3,83.3c-0.9-2-2.4-3.7-4.2-4.5c-1.8-0.8-3.4-0.4-4.3,0.8l-1.8-0.8c-0.9-2.1-2.5-4-4.3-4.8
							c-1.8-0.8-3.4-0.4-4.3,0.8L93.8,74c-0.9-2.1-2.5-3.9-4.2-4.7c-1.8-0.8-3.3-0.5-4.3,0.8l-1.8-0.8c-0.9-2.1-2.5-4-4.3-4.8
							c-1.8-0.8-3.4-0.4-4.3,0.8l-1.8-0.8c-0.9-2.1-2.5-3.9-4.3-4.8c-1.8-0.8-3.4-0.4-4.3,0.8l-1.8-0.8c-0.9-2.1-2.5-4-4.3-4.9
							c-1.8-0.8-3.4-0.4-4.3,0.9l-1.8-0.8c-0.9-2.1-2.5-3.9-4.2-4.7c-1.8-0.8-3.3-0.5-4.3,0.8l-1.8-0.8c-0.9-2.1-2.5-4-4.3-4.8
							c-1.8-0.8-3.4-0.4-4.3,0.9L32,45.4c-0.5-1.3-1.3-2.5-2.2-3.5l-0.9,1.2c1.2,1,2.3,2.5,2.9,4.2l1.6,0.7c0.9-1.3,2.5-1.7,4.3-0.9
							c1.8,0.8,3.4,2.7,4.3,4.8l1.8,0.8c0.9-1.3,2.5-1.6,4.3-0.8c1.8,0.8,3.3,2.6,4.2,4.7l1.8,0.8c0.9-1.3,2.5-1.7,4.3-0.9
							c1.8,0.8,3.4,2.7,4.3,4.9l1.8,0.8c0.9-1.3,2.5-1.7,4.3-0.8c1.8,0.8,3.3,2.7,4.3,4.8l1.8,0.8c0.9-1.3,2.5-1.7,4.3-0.8
							c1.8,0.8,3.4,2.7,4.3,4.8l1.8,0.8c0.9-1.2,2.5-1.6,4.3-0.8c1.8,0.8,3.3,2.6,4.2,4.7l1.8,0.8c0.9-1.3,2.5-1.7,4.3-0.8
							c1.8,0.8,3.4,2.7,4.3,4.8l1.8,0.8c0.9-1.3,2.5-1.7,4.3-0.8c1.8,0.8,3.4,2.7,4.3,4.8l0.1,0V83.3z"/>
					</g>
					<g>
						<path class="st6" d="M121.7,73.4c-0.9-2-2.4-3.7-4.2-4.5c-1.8-0.8-3.4-0.4-4.3,0.8l-1.8-0.8c-0.9-2.1-2.5-4-4.3-4.8
							c-1.8-0.8-3.4-0.4-4.3,0.8l-1.8-0.8c-0.9-2.1-2.5-3.9-4.2-4.7c-1.8-0.8-3.3-0.5-4.3,0.8l-1.8-0.8c-0.9-2.1-2.5-4-4.3-4.8
							c-1.8-0.8-3.4-0.4-4.3,0.8l-1.8-0.8c-0.9-2.1-2.5-3.9-4.3-4.8C74.5,49,73,49.4,72,50.7l-1.8-0.8c-0.9-2.1-2.5-4-4.3-4.9
							c-1.8-0.8-3.4-0.4-4.3,0.9l-1.8-0.8c-0.9-2.1-2.5-3.9-4.2-4.7c-1.8-0.8-3.3-0.5-4.3,0.8l-1.8-0.8c-0.9-2.1-2.5-4-4.3-4.8
							c-1.8-0.8-3.4-0.4-4.3,0.9l-1.6-0.7c-0.5-1.3-1.3-2.5-2.2-3.5l-0.9,1.2c1.2,1,2.3,2.5,2.9,4.2l1.6,0.7
							c0.9-1.3,2.5-1.7,4.3-0.9c1.8,0.8,3.4,2.7,4.3,4.8l1.8,0.8c0.9-1.3,2.5-1.6,4.3-0.8c1.8,0.8,3.3,2.6,4.2,4.7l1.8,0.8
							c0.9-1.3,2.5-1.7,4.3-0.9c1.8,0.8,3.4,2.7,4.3,4.9l1.8,0.8c0.9-1.3,2.5-1.7,4.3-0.8c1.8,0.8,3.3,2.7,4.3,4.8l1.8,0.8
							c0.9-1.3,2.5-1.7,4.3-0.8c1.8,0.8,3.4,2.7,4.3,4.8l1.8,0.8c0.9-1.2,2.5-1.6,4.3-0.8c1.8,0.8,3.3,2.6,4.2,4.7l1.8,0.8
							c0.9-1.3,2.5-1.7,4.3-0.8c1.8,0.8,3.4,2.7,4.3,4.8l1.8,0.8c0.9-1.3,2.5-1.7,4.3-0.8c1.8,0.8,3.4,2.7,4.3,4.8l0.1,0V73.4z"/>
					</g>
					<g>
						<path class="st6" d="M130,62.7c-0.9-2-2.4-3.7-4.2-4.5c-1.8-0.8-3.4-0.4-4.3,0.8l-1.8-0.8c-0.9-2.1-2.5-4-4.3-4.8
							c-1.8-0.8-3.4-0.4-4.3,0.8l-1.8-0.8c-0.9-2.1-2.5-3.9-4.2-4.7c-1.8-0.8-3.3-0.5-4.3,0.8l-1.8-0.8c-0.9-2.1-2.5-4-4.3-4.8
							c-1.8-0.8-3.4-0.4-4.3,0.8l-1.8-0.8c-0.9-2.1-2.5-3.9-4.3-4.8c-1.8-0.8-3.4-0.4-4.3,0.8l-1.8-0.8c-0.9-2.1-2.5-4-4.3-4.9
							c-1.8-0.8-3.4-0.4-4.3,0.9l-1.8-0.8c-0.9-2.1-2.5-3.9-4.2-4.7c-1.8-0.8-3.3-0.5-4.3,0.8l-1.8-0.8c-0.9-2.1-2.5-4-4.3-4.8
							c-1.8-0.8-3.4-0.4-4.3,0.9l-1.6-0.7c-0.5-1.3-1.3-2.5-2.2-3.5l-0.9,1.2c1.2,1,2.3,2.5,2.9,4.2l1.6,0.7
							c0.9-1.3,2.5-1.7,4.3-0.9c1.8,0.8,3.4,2.7,4.3,4.8l1.8,0.8c0.9-1.3,2.5-1.6,4.3-0.8c1.8,0.8,3.3,2.6,4.2,4.7l1.8,0.8
							c0.9-1.3,2.5-1.7,4.3-0.9c1.8,0.8,3.4,2.7,4.3,4.9l1.8,0.8c0.9-1.3,2.5-1.7,4.3-0.8c1.8,0.8,3.3,2.7,4.3,4.8l1.8,0.8
							c0.9-1.3,2.5-1.7,4.3-0.8c1.8,0.8,3.4,2.7,4.3,4.8l1.8,0.8c0.9-1.2,2.5-1.6,4.3-0.8c1.8,0.8,3.3,2.6,4.2,4.7L111,56
							c0.9-1.3,2.5-1.7,4.3-0.8c1.8,0.8,3.4,2.7,4.3,4.8l1.8,0.8c0.9-1.3,2.5-1.7,4.3-0.8c1.8,0.8,3.4,2.7,4.3,4.8l0.1,0V62.7z"/>
					</g>
					<path class="st6" d="M55,10.9c0.5,0.5,1,1.2,1.4,1.8l3.3,1.5c0.9-0.6,2.1-0.6,3.4,0c1.3,0.6,2.5,1.8,3.4,3.2l3.6,1.7
						c0.9-0.5,2.1-0.6,3.3,0c1.3,0.6,2.4,1.7,3.3,3l3.6,1.7c0.9-0.6,2.1-0.6,3.4,0c1.3,0.6,2.5,1.8,3.4,3.2l3.6,1.7
						c0.9-0.5,2.1-0.6,3.3,0c1.3,0.6,2.4,1.7,3.3,3l3.6,1.7c0.9-0.5,2.1-0.6,3.4,0c1.3,0.6,2.4,1.7,3.3,3.1l3.7,1.7
						c0.9-0.5,2-0.5,3.3,0.1c1.2,0.6,2.4,1.7,3.3,3l3.6,1.7c0.9-0.5,2.1-0.6,3.4,0c1.3,0.6,2.4,1.7,3.3,3.1l3.7,1.7
						c0.9-0.5,2.1-0.6,3.4,0c1.3,0.6,2.4,1.7,3.3,3.1l0.4,0.2v-3.5L54.6,8.5v2.1L55,10.9z"/>
				</g>
				<g>
					<g>
						<polygon class="st6" points="121.6,60.2 132.2,46.8 130,45.8 119.5,59.2 						"/>
						<polygon class="st6" points="94.6,90.8 83.9,104.4 86,105.4 96.8,91.8 						"/>
						<polygon class="st6" points="111.2,69.7 102.8,80.3 105,81.3 113.4,70.7 						"/>
					</g>
					<g>
						<polygon class="st6" points="102.7,65.7 111.1,55 109.4,54.2 101,64.9 						"/>
						<polygon class="st6" points="74,98.4 63.6,111.7 65.7,112.7 76.2,99.4 						"/>
						<polygon class="st6" points="92.9,75.1 83.3,87.3 85.7,88.4 95.4,76.2 						"/>
					</g>
					<g>
						<polygon class="st6" points="101.2,50.4 111.8,37 109.6,36 99.1,49.4 						"/>
						<polygon class="st6" points="74.2,80.9 63.5,94.5 65.6,95.5 76.4,81.9 						"/>
						<polygon class="st6" points="90.8,59.8 82.4,70.5 84.6,71.5 93,60.8 						"/>
					</g>
					<g>
						<polygon class="st6" points="82.3,55.8 90.7,45.2 89,44.4 80.6,55 						"/>
						<polygon class="st6" points="53.6,88.5 43.2,101.8 45.3,102.8 55.8,89.5 						"/>
						<polygon class="st6" points="72.5,65.2 62.9,77.4 65.3,78.5 74.9,66.3 						"/>
					</g>
					<g>
						<polygon class="st6" points="80.2,41.1 90.7,27.7 88.6,26.7 78,40.1 						"/>
						<polygon class="st6" points="53.1,71.6 42.4,85.2 44.6,86.3 55.3,72.6 						"/>
						<polygon class="st6" points="69.8,50.5 61.4,61.2 63.5,62.2 71.9,51.5 						"/>
					</g>
					<g>
						<polygon class="st6" points="61.3,46.6 69.7,35.9 67.9,35.1 59.5,45.8 						"/>
						<polygon class="st6" points="32.6,79.2 22.1,92.5 24.2,93.5 34.7,80.2 						"/>
						<polygon class="st6" points="51.4,55.9 41.8,68.1 44.3,69.3 53.9,57.1 						"/>
					</g>
					<g>
						<polygon class="st6" points="59.8,31.5 70.4,18.1 68.2,17.1 57.6,30.5 						"/>
						<polygon class="st6" points="32.8,62.1 22.1,75.7 24.2,76.7 35,63.1 						"/>
						<polygon class="st6" points="49.4,41 41,51.6 43.2,52.6 51.6,42 						"/>
					</g>
					<g>
						<polygon class="st6" points="40.9,37 49.3,26.3 47.6,25.5 39.2,36.2 						"/>
						<polygon class="st6" points="12.2,69.7 1.7,83 3.9,83.9 14.3,70.6 						"/>
						<polygon class="st6" points="31.1,46.3 21.4,58.5 23.9,59.7 33.5,47.5 						"/>
					</g>
				</g>
			</g>
			<path class="st6" d="M178.7,72.3l-0.5-0.6c-0.5-0.9-0.8-1.8-1.1-2.8l-3.7-3.1c-1.3,0.4-2.9,0.1-4.3-1.2c-1.4-1.2-2.5-3.1-3.2-5.2
				l-4-3.4c-1.3,0.3-2.8,0-4.2-1.2c-1.4-1.2-2.5-3-3.1-5l-4-3.4c-0.7,0.2-1.4,0.2-2.1,0v-2.4c0-3.2-2.1-4.8-4.8-3.6l0,0
				c-2.6,1.2-4.8,4.8-4.8,8v3.1L84.9,121l1.1,2.9l59.7-76.2L178,75L178.7,72.3z"/>
		</g>
		<polygon class="st5" points="132.4,117.3 132.4,87.7 153.5,77.9 153.5,107.5 		"/>
		<polygon class="st5" points="50.6,151.6 50.6,122 29.5,112.2 29.5,141.7 		"/>
	</g>
	<g>
		<g>
			<polygon class="st1" points="157.9,200.3 158.5,191.4 154.1,193.5 154.6,201.7 			"/>
			<polygon class="st2" points="252.3,188.6 248.5,244.9 245.7,246.1 242.2,183.9 221.2,174.2 127.7,217.2 220.8,260.1 313.9,217.2 
							"/>
		</g>
		<polygon class="st3" points="226.7,161.5 226.7,170.6 226.7,178.9 226.9,254.3 139,213.7 138.7,139.1 		"/>
		<polygon class="st4" points="126.6,217.3 126.6,227.2 220.5,270.5 220.5,260.6 		"/>
		<polygon class="st5" points="189.5,178.2 212.7,189 212.7,247.7 189.5,236.9 		"/>
		<g>
			<polygon class="st4" points="198,258.1 198,268.7 168.8,255.2 168.8,244.6 			"/>
			<polygon class="st2" points="177.1,240.6 206.4,254.1 198.2,257.8 169,244.3 			"/>
			<g>
				<polygon class="st5" points="207.2,254.4 198.2,258.5 198.2,268.9 207.2,264.8 				"/>
			</g>
		</g>
		<polygon class="st6" points="315,217.5 315,227.4 221.2,270.7 221.2,260.8 		"/>
		<g>
			<path class="st2" d="M280,102.2l0.1-4.3c0-2-0.9-3.3-2.2-3.7l0-0.1l-95.1-43.3V51c-0.6,0-1.2,0.1-1.8,0.4
				c-2.5,1.2-4.5,4.6-4.5,7.6v4.2l-58.1,73.9c1.3,1.1,2.4,2.7,3.1,4.5l1.8,0.8c1-1.4,2.7-1.9,4.7-0.9c1.9,0.9,3.7,2.9,4.6,5.2
				l1.9,0.9c1-1.4,2.7-1.8,4.6-0.9c1.9,0.9,3.6,2.9,4.6,5.1l1.9,0.9c1-1.4,2.7-1.9,4.7-1c2,0.9,3.7,2.9,4.7,5.3l1.9,0.9
				c1-1.4,2.7-1.8,4.6-0.9c1.9,0.9,3.6,2.9,4.6,5.2l1.9,0.9c1-1.4,2.7-1.8,4.6-0.9c1.9,0.9,3.6,2.9,4.6,5.2l2,0.9
				c1-1.3,2.7-1.8,4.6-0.9c1.9,0.9,3.6,2.9,4.6,5.1l1.9,0.9c1-1.4,2.7-1.8,4.6-0.9c1.9,0.9,3.6,2.9,4.6,5.2l1.9,0.9
				c1-1.4,2.7-1.8,4.6-0.9c1.9,0.9,3.6,2.9,4.6,5.2l0.3,0.2l64.5-81.8l35.6,30.5l0-2.4L280,102.2z"/>
			<g>
				<polygon class="st4" points="305.4,218.4 305.4,132.1 305.4,128 275.8,102.7 227.5,164.1 227.4,173.4 227.5,173.3 227.5,254.8 
									"/>
				<g>
					<g>
						<path class="st6" d="M220.6,167.3c-1-2.2-2.6-4.1-4.5-4.9c-1.9-0.9-3.7-0.5-4.6,0.9l-1.9-0.9c-1-2.3-2.7-4.3-4.6-5.2
							c-1.9-0.9-3.7-0.5-4.6,0.9l-1.9-0.9c-1-2.3-2.7-4.2-4.6-5.1c-1.9-0.9-3.6-0.5-4.6,0.9l-2-0.9c-1-2.3-2.7-4.3-4.6-5.2
							c-1.9-0.9-3.6-0.5-4.6,0.9l-1.9-0.9c-1-2.3-2.7-4.3-4.6-5.2c-1.9-0.9-3.6-0.5-4.6,0.9l-1.9-0.9c-1-2.3-2.7-4.4-4.7-5.3
							c-2-0.9-3.7-0.5-4.7,1l-1.9-0.9c-1-2.3-2.7-4.2-4.6-5.1c-1.9-0.9-3.6-0.5-4.6,0.9l-1.9-0.9c-1-2.3-2.7-4.3-4.6-5.2
							c-2-0.9-3.7-0.5-4.7,0.9l-1.8-0.8c-0.6-1.4-1.4-2.7-2.4-3.8l-1,1.3c1.3,1.1,2.4,2.7,3.1,4.5l1.8,0.8c1-1.4,2.7-1.9,4.7-0.9
							c1.9,0.9,3.7,2.9,4.6,5.2l1.9,0.9c1-1.4,2.7-1.8,4.6-0.9c1.9,0.9,3.6,2.9,4.6,5.1l1.9,0.9c1-1.4,2.7-1.9,4.7-1
							c2,0.9,3.7,2.9,4.7,5.3l1.9,0.9c1-1.4,2.7-1.8,4.6-0.9c1.9,0.9,3.6,2.9,4.6,5.2l1.9,0.9c1-1.4,2.7-1.8,4.6-0.9
							c1.9,0.9,3.6,2.9,4.6,5.2l2,0.9c1-1.3,2.7-1.8,4.6-0.9c1.9,0.9,3.6,2.9,4.6,5.1l1.9,0.9c1-1.4,2.7-1.8,4.6-0.9
							c1.9,0.9,3.6,2.9,4.6,5.2l1.9,0.9c1-1.4,2.7-1.8,4.6-0.9c1.9,0.9,3.6,2.9,4.6,5.2l0.1,0.1V167.3z"/>
					</g>
					<g>
						<path class="st6" d="M231.8,153.4c-1-2.2-2.6-4.1-4.5-4.9c-1.9-0.9-3.7-0.5-4.6,0.9l-1.9-0.9c-1-2.3-2.7-4.3-4.6-5.2
							c-1.9-0.9-3.7-0.5-4.6,0.9l-1.9-0.9c-1-2.3-2.7-4.2-4.6-5.1c-1.9-0.9-3.6-0.5-4.6,0.9l-2-0.9c-1-2.3-2.7-4.3-4.6-5.2
							c-1.9-0.9-3.6-0.5-4.6,0.9l-1.9-0.9c-1-2.3-2.7-4.3-4.6-5.2c-1.9-0.9-3.6-0.5-4.6,0.9l-1.9-0.9c-1-2.3-2.7-4.4-4.7-5.3
							c-2-0.9-3.7-0.5-4.7,1l-1.9-0.9c-1-2.3-2.7-4.2-4.6-5.1c-1.9-0.9-3.6-0.5-4.6,0.9l-1.9-0.9c-1-2.3-2.7-4.3-4.6-5.2
							c-2-0.9-3.7-0.5-4.7,0.9l-1.8-0.8c-0.6-1.4-1.4-2.7-2.4-3.8l-1,1.3c1.3,1.1,2.4,2.7,3.1,4.5l1.8,0.8c1-1.4,2.7-1.9,4.7-0.9
							c1.9,0.9,3.7,2.9,4.6,5.2l1.9,0.9c1-1.4,2.7-1.8,4.6-0.9c1.9,0.9,3.6,2.9,4.6,5.1l1.9,0.9c1-1.4,2.7-1.9,4.7-1
							c2,0.9,3.7,2.9,4.7,5.3l1.9,0.9c1-1.4,2.7-1.8,4.6-0.9c1.9,0.9,3.6,2.9,4.6,5.2l1.9,0.9c1-1.4,2.7-1.8,4.6-0.9
							c1.9,0.9,3.6,2.9,4.6,5.2l2,0.9c1-1.3,2.7-1.8,4.6-0.9c1.9,0.9,3.6,2.9,4.6,5.1l1.9,0.9c1-1.4,2.7-1.8,4.6-0.9
							c1.9,0.9,3.6,2.9,4.6,5.2l1.9,0.9c1-1.4,2.7-1.8,4.6-0.9c1.9,0.9,3.6,2.9,4.6,5.2l0.1,0.1V153.4z"/>
					</g>
					<g>
						<path class="st6" d="M242,141c-1-2.2-2.6-4.1-4.5-4.9c-1.9-0.9-3.7-0.5-4.6,0.9l-1.9-0.9c-1-2.3-2.7-4.3-4.6-5.2
							c-1.9-0.9-3.7-0.5-4.6,0.9l-1.9-0.9c-1-2.3-2.7-4.2-4.6-5.1c-1.9-0.9-3.6-0.5-4.6,0.9l-2-0.9c-1-2.3-2.7-4.3-4.6-5.2
							c-1.9-0.9-3.6-0.5-4.6,0.9l-1.9-0.9c-1-2.3-2.7-4.3-4.6-5.2c-1.9-0.9-3.6-0.5-4.6,0.9l-1.9-0.9c-1-2.3-2.7-4.4-4.7-5.3
							c-2-0.9-3.7-0.5-4.7,1l-1.9-0.9c-1-2.3-2.7-4.2-4.6-5.1c-1.9-0.9-3.6-0.5-4.6,0.9l-1.9-0.9c-1-2.3-2.7-4.3-4.6-5.2
							c-2-0.9-3.7-0.5-4.7,0.9L153,100c-0.6-1.4-1.4-2.7-2.4-3.8l-1,1.3c1.3,1.1,2.4,2.7,3.1,4.5l1.8,0.8c1-1.4,2.7-1.9,4.7-0.9
							c1.9,0.9,3.7,2.9,4.6,5.2l1.9,0.9c1-1.4,2.7-1.8,4.6-0.9c1.9,0.9,3.6,2.9,4.6,5.1l1.9,0.9c1-1.4,2.7-1.9,4.7-1
							c2,0.9,3.7,2.9,4.7,5.3l1.9,0.9c1-1.4,2.7-1.8,4.6-0.9c1.9,0.9,3.6,2.9,4.6,5.2l1.9,0.9c1-1.4,2.7-1.8,4.6-0.9
							c1.9,0.9,3.6,2.9,4.6,5.2l2,0.9c1-1.3,2.7-1.8,4.6-0.9c1.9,0.9,3.6,2.9,4.6,5.1l1.9,0.9c1-1.4,2.7-1.8,4.6-0.9
							c1.9,0.9,3.6,2.9,4.6,5.2l1.9,0.9c1-1.4,2.7-1.8,4.6-0.9c1.9,0.9,3.6,2.9,4.6,5.2l0.1,0.1V141z"/>
					</g>
					<g>
						<path class="st6" d="M250.1,130.3c-1-2.2-2.6-4.1-4.5-4.9c-1.9-0.9-3.7-0.5-4.6,0.9l-1.9-0.9c-1-2.3-2.7-4.3-4.6-5.2
							c-1.9-0.9-3.7-0.5-4.6,0.9l-1.9-0.9c-1-2.3-2.7-4.2-4.6-5.1c-1.9-0.9-3.6-0.5-4.6,0.9l-2-0.9c-1-2.3-2.7-4.3-4.6-5.2
							c-1.9-0.9-3.6-0.5-4.6,0.9l-1.9-0.9c-1-2.3-2.7-4.3-4.6-5.2c-1.9-0.9-3.6-0.5-4.6,0.9l-1.9-0.9c-1-2.3-2.7-4.4-4.7-5.3
							c-2-0.9-3.7-0.5-4.7,1l-1.9-0.9c-1-2.3-2.7-4.2-4.6-5.1c-1.9-0.9-3.6-0.5-4.6,0.9l-1.9-0.9c-1-2.3-2.7-4.3-4.6-5.2
							c-2-0.9-3.7-0.5-4.7,0.9l-1.8-0.8c-0.6-1.4-1.4-2.7-2.4-3.8l-1,1.3c1.3,1.1,2.4,2.7,3.1,4.5l1.8,0.8c1-1.4,2.7-1.9,4.7-0.9
							c1.9,0.9,3.7,2.9,4.6,5.2l1.9,0.9c1-1.4,2.7-1.8,4.6-0.9c1.9,0.9,3.6,2.9,4.6,5.1l1.9,0.9c1-1.4,2.7-1.9,4.7-1
							c2,0.9,3.7,2.9,4.7,5.3l1.9,0.9c1-1.4,2.7-1.8,4.6-0.9c1.9,0.9,3.6,2.9,4.6,5.2l1.9,0.9c1-1.4,2.7-1.8,4.6-0.9
							c1.9,0.9,3.6,2.9,4.6,5.2l2,0.9c1-1.3,2.7-1.8,4.6-0.9c1.9,0.9,3.6,2.9,4.6,5.1l1.9,0.9c1-1.4,2.7-1.8,4.6-0.9
							c1.9,0.9,3.6,2.9,4.6,5.2l1.9,0.9c1-1.4,2.7-1.8,4.6-0.9c1.9,0.9,3.6,2.9,4.6,5.2l0.1,0.1V130.3z"/>
					</g>
					<g>
						<path class="st6" d="M259,118.7c-1-2.2-2.6-4.1-4.5-4.9c-1.9-0.9-3.7-0.5-4.6,0.9l-1.9-0.9c-1-2.3-2.7-4.3-4.6-5.2
							c-1.9-0.9-3.7-0.5-4.6,0.9l-1.9-0.9c-1-2.3-2.7-4.2-4.6-5.1c-1.9-0.9-3.6-0.5-4.6,0.9l-2-0.9c-1-2.3-2.7-4.3-4.6-5.2
							c-1.9-0.9-3.6-0.5-4.6,0.9l-1.9-0.9c-1-2.3-2.7-4.3-4.6-5.2c-1.9-0.9-3.6-0.5-4.6,0.9l-1.9-0.9c-1-2.3-2.7-4.4-4.7-5.3
							c-2-0.9-3.7-0.5-4.7,1l-1.9-0.9c-1-2.3-2.7-4.2-4.6-5.1c-1.9-0.9-3.6-0.5-4.6,0.9l-1.9-0.9c-1-2.3-2.7-4.3-4.6-5.2
							c-2-0.9-3.7-0.5-4.7,0.9l-1.8-0.8c-0.6-1.4-1.4-2.7-2.4-3.8l-1,1.3c1.3,1.1,2.4,2.7,3.1,4.5l1.8,0.8c1-1.4,2.7-1.9,4.7-0.9
							c1.9,0.9,3.7,2.9,4.6,5.2l1.9,0.9c1-1.4,2.7-1.8,4.6-0.9c1.9,0.9,3.6,2.9,4.6,5.1l1.9,0.9c1-1.4,2.7-1.9,4.7-1
							c2,0.9,3.7,2.9,4.7,5.3L205,96c1-1.4,2.7-1.8,4.6-0.9c1.9,0.9,3.6,2.9,4.6,5.2l1.9,0.9c1-1.4,2.7-1.8,4.6-0.9
							c1.9,0.9,3.6,2.9,4.6,5.2l2,0.9c1-1.3,2.7-1.8,4.6-0.9c1.9,0.9,3.6,2.9,4.6,5.1l1.9,0.9c1-1.4,2.7-1.8,4.6-0.9
							c1.9,0.9,3.6,2.9,4.6,5.2l1.9,0.9c1-1.4,2.7-1.8,4.6-0.9c1.9,0.9,3.6,2.9,4.6,5.2l0.1,0.1V118.7z"/>
					</g>
					<path class="st6" d="M177.9,62.7c0.6,0.6,1.1,1.3,1.5,2l3.6,1.7c1-0.6,2.3-0.7,3.7,0c1.4,0.7,2.7,1.9,3.7,3.4l3.9,1.8
						c1-0.6,2.2-0.6,3.6,0c1.4,0.6,2.6,1.8,3.6,3.3l3.9,1.8c1-0.6,2.3-0.7,3.7,0c1.4,0.7,2.7,1.9,3.7,3.4l3.9,1.8
						c1-0.6,2.2-0.6,3.6,0c1.4,0.6,2.6,1.8,3.6,3.3l3.9,1.8c1-0.6,2.2-0.6,3.6,0c1.4,0.6,2.6,1.9,3.6,3.3l4,1.9
						c1-0.5,2.2-0.6,3.6,0.1c1.4,0.6,2.6,1.8,3.5,3.2l3.9,1.8c1-0.6,2.2-0.6,3.6,0c1.4,0.6,2.6,1.9,3.6,3.3l4,1.8
						c1-0.6,2.2-0.6,3.6,0c1.4,0.6,2.6,1.9,3.6,3.3l0.4,0.2v-3.8L177.4,60v2.3L177.9,62.7z"/>
				</g>
				<g>
					<g>
						<polygon class="st6" points="250,116 261.4,101.5 259.1,100.4 247.7,114.9 						"/>
						<polygon class="st6" points="220.7,149.1 209.1,163.8 211.5,164.9 223.1,150.2 						"/>
						<polygon class="st6" points="238.7,126.2 229.7,137.8 232,138.9 241.1,127.3 						"/>
					</g>
					<g>
						<polygon class="st6" points="229.5,121.9 238.6,110.4 236.8,109.5 227.7,121.1 						"/>
						<polygon class="st6" points="198.5,157.3 187.1,171.7 189.4,172.8 200.8,158.4 						"/>
						<polygon class="st6" points="218.9,132 208.5,145.3 211.1,146.5 221.5,133.3 						"/>
					</g>
					<g>
						<polygon class="st6" points="227.9,105.3 239.3,90.8 237,89.7 225.6,104.2 						"/>
						<polygon class="st6" points="198.7,138.4 187,153.1 189.4,154.2 201,139.5 						"/>
						<polygon class="st6" points="216.7,115.6 207.6,127.1 209.9,128.2 219,116.6 						"/>
					</g>
					<g>
						<polygon class="st6" points="207.4,111.2 216.5,99.7 214.7,98.8 205.6,110.4 						"/>
						<polygon class="st6" points="176.4,146.6 165,161 167.3,162.1 178.7,147.7 						"/>
						<polygon class="st6" points="196.8,121.4 186.4,134.6 189.1,135.8 199.5,122.6 						"/>
					</g>
					<g>
						<polygon class="st6" points="205.1,95.3 216.6,80.8 214.2,79.7 202.8,94.2 						"/>
						<polygon class="st6" points="175.9,128.3 164.2,143.1 166.6,144.2 178.2,129.4 						"/>
						<polygon class="st6" points="193.9,105.5 184.8,117 187.1,118.1 196.2,106.6 						"/>
					</g>
					<g>
						<polygon class="st6" points="184.7,101.2 193.8,89.7 191.9,88.8 182.8,100.3 						"/>
						<polygon class="st6" points="153.6,136.6 142.3,151 144.6,152 155.9,137.6 						"/>
						<polygon class="st6" points="174,111.3 163.6,124.5 166.3,125.8 176.7,112.6 						"/>
					</g>
					<g>
						<polygon class="st6" points="183.1,84.9 194.5,70.4 192.2,69.3 180.7,83.8 						"/>
						<polygon class="st6" points="153.8,118 142.2,132.7 144.5,133.8 156.2,119.1 						"/>
						<polygon class="st6" points="171.8,95.1 162.7,106.7 165.1,107.8 174.2,96.2 						"/>
					</g>
					<g>
						<polygon class="st6" points="162.6,90.8 171.7,79.3 169.8,78.4 160.8,90 						"/>
						<polygon class="st6" points="131.6,126.2 120.2,140.6 122.5,141.7 133.9,127.3 						"/>
						<polygon class="st6" points="151.9,101 141.5,114.2 144.2,115.4 154.6,102.2 						"/>
					</g>
				</g>
			</g>
			<path class="st6" d="M311.8,129.1l-0.5-0.7c-0.5-0.9-0.9-2-1.2-3l-4-3.4c-1.5,0.4-3.1,0.1-4.7-1.3c-1.5-1.3-2.7-3.3-3.4-5.6
				l-4.3-3.7c-1.4,0.4-3,0-4.5-1.3c-1.5-1.3-2.7-3.2-3.4-5.4l-4.3-3.6c-0.7,0.2-1.5,0.2-2.3,0v-2.6c0-3.4-2.3-5.2-5.1-3.9l0,0
				c-2.8,1.3-5.1,5.2-5.1,8.7v3.3l-58.7,75l1.1,3.1l64.6-82.5l35,29.7L311.8,129.1z"/>
		</g>
		<polygon class="st5" points="261.7,177.8 261.7,145.8 284.5,135.1 284.5,167.1 		"/>
		<polygon class="st5" points="173.1,214.9 173.1,182.9 150.2,172.2 150.2,204.2 		"/>
	</g>
</g>
</svg>
