<?xml version="1.0" encoding="utf-8"?>
<!-- Generator: Adobe Illustrator 20.1.0, SVG Export Plug-In . SVG Version: 6.00 Build 0)  -->
<svg version="1.1" id="Layer_1" xmlns="http://www.w3.org/2000/svg" xmlns:xlink="http://www.w3.org/1999/xlink" x="0px" y="0px"
	 viewBox="0 0 153.4 68.8" style="enable-background:new 0 0 153.4 68.8;" xml:space="preserve">
<style type="text/css">
	.st0{fill:#3F3E31;}
	.st1{fill:#009ADE;}
	.st2{fill:#DEECF8;stroke:#009ADE;stroke-miterlimit:10;}
	.st3{fill:none;stroke:#009ADE;stroke-miterlimit:10;}
</style>
<g>
	<rect x="64" y="5.8" class="st0" width="1.7" height="62.2"/>
	<rect x="61.7" y="65.9" class="st0" width="6.4" height="2.2"/>
	<rect x="91.2" y="49.8" class="st0" width="1.5" height="17.7"/>
	<rect x="88.6" y="66.1" class="st0" width="6.4" height="2.2"/>
	<rect x="64.9" y="49.3" class="st0" width="27.8" height="1.3"/>
	<polygon class="st0" points="92.5,49.5 91.7,51.3 64.2,6.7 65.6,5.9 	"/>
	<rect x="131" y="49.8" class="st0" width="1.5" height="17.7"/>
	<rect x="128.5" y="66.1" class="st0" width="6.4" height="2.2"/>
	
		<rect x="77.1" y="42.7" transform="matrix(-0.5186 -0.855 0.855 -0.5186 68.4716 154.3889)" class="st0" width="1.2" height="30.4"/>
	<rect x="78.3" y="42.7" transform="matrix(0.5186 -0.855 0.855 0.5186 -11.517 95.3292)" class="st0" width="1.2" height="30.4"/>
	<rect y="45.3" class="st0" width="52.2" height="23.5"/>
	<polygon class="st1" points="153.4,49.2 95.7,49.2 67.3,0 125,0 	"/>
	<path class="st2" d="M122,47.4h-21.2c-1.7,0-3.8-1.4-4.8-3L73.3,5.1c-1-1.7-0.4-3,1.3-3h21.2c1.7,0,3.8,1.4,4.8,3l22.7,39.3
		C124.2,46.1,123.6,47.4,122,47.4z"/>
	<path class="st2" d="M146.4,47.4l-16.6,0c-1.7,0-3.8-1.4-4.8-3L102.3,5.1c-1-1.7-0.4-3,1.3-3l17.7,0.1c1.7,0,3.5,1,4.6,2.9l23,39.9
		C149.9,46.6,148.1,47.4,146.4,47.4z"/>
	<g>
		<line class="st3" x1="73.9" y1="6.3" x2="101.5" y2="6.5"/>
		<line class="st3" x1="75.9" y1="10" x2="103.6" y2="10.3"/>
		<line class="st3" x1="78.5" y1="13.6" x2="106.1" y2="13.9"/>
		<line class="st3" x1="80.3" y1="17.5" x2="107.9" y2="17.7"/>
		<line class="st3" x1="82.7" y1="21.2" x2="110.3" y2="21.5"/>
		<line class="st3" x1="85.1" y1="25.6" x2="112.7" y2="25.8"/>
		<line class="st3" x1="87.5" y1="29.9" x2="115.1" y2="30.2"/>
		<line class="st3" x1="90.5" y1="35" x2="118.1" y2="35.2"/>
		<line class="st3" x1="92.5" y1="38.7" x2="120.1" y2="39"/>
		<line class="st3" x1="94.9" y1="43.1" x2="122.5" y2="43.3"/>
		<line class="st3" x1="93.9" y1="1.9" x2="119.8" y2="47.3"/>
		<line class="st3" x1="88.7" y1="2.1" x2="114.5" y2="47.5"/>
		<line class="st3" x1="83.8" y1="2.1" x2="109.7" y2="47.5"/>
		<line class="st3" x1="77.7" y1="2" x2="103.5" y2="47.4"/>
	</g>
	<g>
		<line class="st3" x1="103.1" y1="6.3" x2="126.7" y2="6.6"/>
		<line class="st3" x1="105.2" y1="10.1" x2="129" y2="10.3"/>
		<line class="st3" x1="107.3" y1="13.7" x2="131" y2="13.9"/>
		<line class="st3" x1="109.5" y1="17.5" x2="133.3" y2="17.7"/>
		<line class="st3" x1="111.7" y1="21.3" x2="135.5" y2="21.5"/>
		<line class="st3" x1="114.3" y1="25.6" x2="137.9" y2="25.8"/>
		<line class="st3" x1="116.8" y1="29.9" x2="140.4" y2="30.2"/>
		<line class="st3" x1="119.7" y1="35" x2="143.3" y2="35.2"/>
		<line class="st3" x1="121.8" y1="38.8" x2="145.6" y2="39"/>
		<line class="st3" x1="124.3" y1="43.1" x2="148.1" y2="43.3"/>
		<line class="st3" x1="121.6" y1="2.1" x2="147.4" y2="47.3"/>
		<line class="st3" x1="116.2" y1="2.2" x2="142.1" y2="47.5"/>
		<line class="st3" x1="111.4" y1="2.2" x2="137.3" y2="47.5"/>
		<line class="st3" x1="105.2" y1="2" x2="131.1" y2="47.4"/>
	</g>
	
		<rect x="49.1" y="33.6" transform="matrix(-1 -1.224647e-16 1.224647e-16 -1 99.8528 86.8249)" class="st0" width="1.6" height="19.6"/>
	
		<rect x="41" y="22.4" transform="matrix(-4.481145e-11 1 -1 -4.481145e-11 72.0413 -11.5016)" class="st0" width="1.6" height="15.8"/>
	<path class="st0" d="M45.2,29C45.2,29,45.2,29,45.2,29l4.3,0c1,0,1.8,0.8,1.8,1.8v5.4h-2.7v-3.9c0-0.3-0.3-0.6-0.6-0.6h-2.8V29z"/>
	<path class="st0" d="M32.9,33.6C32.9,33.6,32.9,33.6,32.9,33.6l0-3c0-0.7,0.6-1.3,1.3-1.3H38v1.9h-2.8c-0.2,0-0.4,0.2-0.4,0.4v2
		H32.9z"/>
	
		<rect x="36.6" y="27.3" transform="matrix(-1 -1.224647e-16 1.224647e-16 -1 73.781 56.811)" class="st0" width="0.7" height="2.2"/>
	<path class="st0" d="M35.2,27.4h3.5c0.2,0,0.3-0.1,0.3-0.3v-1c0-0.2-0.1-0.3-0.3-0.3c0,0-1.3,0.4-1.7,0.4c-0.4,0-1.7-0.4-1.7-0.4
		c-0.2,0-0.3,0.1-0.3,0.3v1C34.9,27.3,35,27.4,35.2,27.4z"/>
	<path class="st0" d="M61.9,11.5c-2.3,0-4.2,1.9-4.2,4.2v28.8h0V52c0,2.3-1.9,4.2-4.2,4.2h-0.8v1.9h2.6c2.3,0,4.2-1.9,4.2-4.2v-7.5
		h0V17.5c0-2.1,1.5-3.8,3.5-4.1v-1.9H61.9z"/>
</g>
</svg>
