<?xml version="1.0" encoding="utf-8"?>
<!-- Generator: Adobe Illustrator 20.1.0, SVG Export Plug-In . SVG Version: 6.00 Build 0)  -->
<svg version="1.1" id="Layer_1" xmlns="http://www.w3.org/2000/svg" xmlns:xlink="http://www.w3.org/1999/xlink" x="0px" y="0px"
	 viewBox="0 0 81.6 184" style="enable-background:new 0 0 81.6 184;" xml:space="preserve">
<style type="text/css">
	.st0{fill:#3F3E31;}
	.st1{fill:#685B8E;}
	.st2{fill:#806CAF;}
	.st3{fill:#EBAD74;}
	.st4{fill:#CB986D;}
	.st5{fill:#FFFFFF;stroke:#005B8C;stroke-linecap:round;stroke-linejoin:round;stroke-miterlimit:10;}
	.st6{fill:none;stroke:#005B8C;stroke-linecap:round;stroke-linejoin:round;stroke-miterlimit:10;}
	.st7{fill:#FFFFFF;}
	.st8{fill:#005B8C;}
	.st9{fill:#BBBDBF;}
	.st10{fill:#224965;}
	.st11{fill:none;stroke:#005B8C;stroke-width:0.8504;stroke-linecap:round;stroke-linejoin:round;stroke-miterlimit:10;}
	.st12{fill:none;stroke:#FFFFFF;stroke-width:0.5669;stroke-linecap:round;stroke-linejoin:round;stroke-miterlimit:10;}
</style>
<path class="st0" d="M57.2,183.1L25.7,169c-5.5-2.4-5.4-9,0.2-14.7l0,0c5.6-5.6,14.6-8.2,20.1-5.8l31.5,14.1c5.5,2.4,5.4,9-0.2,14.7
	l0,0C71.8,182.9,62.7,185.5,57.2,183.1z"/>
<g>
	<rect x="28.7" y="17.4" class="st1" width="23.4" height="22.3"/>
	<path class="st2" d="M29.3,33.4l-7.7,83.3l-14.5,1.7c0,0-4.1,0-2.8-3.8c1.3-3.8,1.5-12.6,1.5-12.6l-4.1-1.8c0,0-2.8-0.9-1.3-4.7
		c0.9-2.2,11-31.4,19.6-55.9L29.3,33.4z"/>
	<path class="st3" d="M67.3,89.1c-0.2-0.5-0.9-1.6-1.5-2.6l-0.3-1l-6.4-40.9l-0.6-1.4c-0.9-4.2-3.2-7.7-7.6-7.7h-4.4L45,29.2
		c3.8-2.1,6.5-7,6.5-12.7c0-7.6-4.8-13.8-10.8-13.8S29.9,8.9,29.9,16.5c0,5.8,2.8,10.7,6.7,12.8l-1.7,6.2h-6.2
		c-4.5,0-6.7,4.4-7.5,8.7l-0.5,1.2l-6.7,41.4c-1.1,3.5-2.6,8.7-2.4,8.9c0.3,0.3,3.2,5.4,3.6,5.6c0.4,0.3,2.2-1.7,2.2-1.7l0.3-3.5
		c-0.4,0.1-1,0.2-1.3-0.1c-0.4-0.5-0.6-2.4-0.4-2.9c0.2-0.5,0.5-0.2,0.5,0c0,0.6-0.1,2.3,0.3,2.6c0.3,0.2,0.6,0.1,0.9-0.1l0,0
		c0,0,0.9-1.9,1-2.8c0.1-0.9-1.2-3.2-1.4-3.6c0-0.1,0-0.5,0.1-1L23.8,61l4.6,17c-4.6,6.6-7.6,16.7-7.6,28c0,10.4,2.5,19.7,6.4,26.2
		h27.6c4-6.5,3.6-15.9,3.6-26.2c0-11.2-5.3-20.2-9.9-26.8l4-6.3c0.7-2,1.5-4.2,2.3-6.4l-1.5-19.3c0,0,4.6,9.1,4.6,10.1
		c0,0.4-1.4,4.6-3,9.2l0.2,2.5l1.4-2.2l5.6,19.9l0.2,1.3c0,0,0.5,1.5,0.4,2.2c-0.2,2-0.5,3,0.2,3.6c0.7,0.5,1.3,1.1,1.8,1.2
		c0.9,0.1,0-3.1,0-3.1s1,3.5,1.1,4.4c0.1,0.9-1.7,4-1.2,4.6c0.5,0.5,2.5-1.2,3-1.7c0.5-0.5,2-4.1,2.1-5.3
		C69.9,92.7,67.7,90,67.3,89.1z"/>
	<path class="st4" d="M67.3,89.1c-0.2-0.5-0.9-1.6-1.5-2.6l-0.3-1l-6.4-40.9l-0.6-1.4c-0.9-4.2-3.2-7.7-7.6-7.7h-4.4L45,29.2
		c3.8-2.1,6.5-7,6.5-12.7c0-7.6-4.8-13.8-10.8-13.8c-0.2,0-0.3,0-0.5,0v129.5h14.7c4-6.5,3.6-15.9,3.6-26.2
		c0-11.2-5.3-20.2-9.9-26.8l4-6.3c0.7-2,1.5-4.2,2.3-6.4l-1.5-19.3c0,0,4.6,9.1,4.6,10.1c0,0.4-1.4,4.6-3,9.2l0.2,2.5l1.4-2.2
		l5.6,19.9l0.2,1.3c0,0,0.5,1.5,0.4,2.2c-0.2,2-0.5,3,0.2,3.6c0.7,0.5,1.3,1.1,1.8,1.2c0.9,0.1,0-3.1,0-3.1s1,3.5,1.1,4.4
		c0.1,0.9-1.7,4-1.2,4.6c0.5,0.5,2.5-1.2,3-1.7c0.5-0.5,2-4.1,2.1-5.3C69.9,92.7,67.7,90,67.3,89.1z"/>
	<g>
		<path class="st5" d="M40.6,149.8c-1,0.5-1,1.8-1,1.8l9,6.3c0.7,0.5,2.4,1.1,3.1,0.2c1-1.2-0.1-3.5-0.1-3.5L40.6,149.8z"/>
		<path class="st5" d="M40.2,152.9c1,0.5,1,1.8,1,1.8L32,162c-0.7,0.5-2.1,0.7-2.8-0.1c-1-1.2,0.6-3.4,0.6-3.4L40.2,152.9z"/>
		<path class="st4" d="M52,125.3c0,0.3-6.7,23.4-6.7,23.4s5.9,4.9,5.9,5.5s0.2,3.5-0.7,3.4c-1-0.1-8.8-5.2-9.5-5.7
			c-0.6-0.4,0-26.8,0-26.8L52,125.3z"/>
		<path class="st3" d="M29.4,127.5c0,0.3,5.3,24.4,5.3,24.4s-4.8,5.7-4.8,6.2s0,3.1,1,3c1-0.1,8.9-6.5,9.5-6.9
			c0.6-0.4,0-26.8,0-26.8L29.4,127.5z"/>
		<path class="st6" d="M30.9,156.8c0,0,0.5,0.8,0.4,2.4c0,0,1.7-2.7,3.2-0.5"/>
		<path class="st6" d="M50.2,153.6c0,0-0.5,0.8-0.4,2.4c0,0-1.7-2.7-3.2-0.5"/>
	</g>
	<g>
		<path class="st7" d="M26.7,147.1c-0.2,0-0.3-0.1-0.4-0.2c-4-8.8-6.2-20.7-6.2-33.6c0-15.1,2.3-26.2,7.3-35
			c0.1-0.1,0.2-0.2,0.4-0.2l24.9,0c0.2,0,0.3,0.1,0.4,0.2c4.4,8.8,6.9,21.5,6.9,35c0,13.4-2.6,22.9-5.3,31.6
			c-0.1,0.2-0.2,0.3-0.4,0.3c0,0-5.9-0.1-5.9-0.1l-0.8,1.8c-0.1,0.2-0.2,0.3-0.4,0.3C47.1,147,26.7,147.1,26.7,147.1z"/>
		<path class="st8" d="M52.6,78.5c4.2,8.4,6.8,20.8,6.8,34.8c0,13.2-2.6,22.7-5.3,31.4l-6.1-0.1l-0.9,2l-20.4,0.1
			c-3.8-8.3-6.2-20.2-6.2-33.4c0-14.2,2.1-25.7,7.2-34.8L52.6,78.5 M52.6,77.6C52.6,77.6,52.6,77.6,52.6,77.6l-24.9,0
			c-0.3,0-0.6,0.2-0.7,0.4c-5,8.8-7.3,20-7.3,35.2c0,12.9,2.2,24.9,6.3,33.8c0.1,0.3,0.4,0.5,0.8,0.5c0,0,0,0,0,0l20.4-0.1
			c0.3,0,0.6-0.2,0.8-0.5l0.7-1.5l5.6,0.1c0,0,0,0,0,0c0.4,0,0.7-0.2,0.8-0.6c2.7-8.7,5.3-18.2,5.3-31.7c0-13.5-2.5-26.3-6.9-35.1
			C53.3,77.8,53,77.6,52.6,77.6L52.6,77.6z"/>
	</g>
	<g>
		<path class="st9" d="M52.6,78.5l-12.2,0v68.1l6.7,0l0.9-2l6.1,0.1c2.7-8.7,5.3-18.2,5.3-31.4C59.5,99.3,56.8,86.9,52.6,78.5z"/>
	</g>
	<g>
		<path class="st8" d="M19.1,87.8c-0.7,0-1.7-0.3-1.7-0.3l-3.3-1.2c-0.2,0.1-0.6,0.2-1,0.2c-0.8,0-1.3-0.4-1.5-1.2
			c-2.8-9.6,7.2-41.9,7.6-43.2c0-0.1,0.1-0.2,0.2-0.2c0.9-4.4,4.8-7.6,9.3-7.6h6.1c0,0,0.1,0,0.1,0c0,0,0,0,0.1,0
			c1.9,0.7,3.9,1.1,5.9,1.1c2,0,3.9-0.4,5.8-1.1l4.3,0c4.4,0,8.3,3.1,9.3,7.4c0,0,0,0,0,0.1C60.8,43.1,73,74,69,83.9
			c-0.3,0.8-2.6,1.7-3.1,1.9l-3.2,1.2c0,0-0.1,0-0.1,0c0,0,0,0,0,0c-0.1,0-1.8,0-2.6-1.1c-2.2-3.3-3.3-13.8-3.7-18.1l-2.3,9.5
			c0.9,1.4,1.8,2.9,2.7,4.7c0,0.1,0,0.2,0,0.3s-0.1,0.1-0.2,0.1c0,0-31.7,0.2-31.7,0.2c-0.1,0-0.2,0-0.2-0.1c-0.1-0.1-0.1-0.2,0-0.3
			c0.6-1.3,1.4-2.9,2.1-4.2c0.3-0.5,0.5-1.1,0.8-1.5l-3.3-13.5c0.1,6.3,0,21.3-4.4,24.8C19.6,87.7,19.4,87.8,19.1,87.8z"/>
		<path class="st7" d="M34.9,34.5c1.9,0.7,3.9,1.1,6,1.1c2.1,0,4-0.4,5.9-1.1h4.2c4.4,0,8.1,3.1,9,7.3l0,0c0,0,12.7,32,8.7,41.9
			c-0.3,0.7-2.9,1.7-2.9,1.7l-3.1,1.2c0,0-1.7,0-2.3-1c-2.7-4.1-3.8-19.7-3.8-19.7l-2.7,11.4c1,1.4,1.9,3,2.7,4.7l-31.7,0.2
			c0.9-1.9,2.2-4.3,2.9-5.8l-4-16.3c0,0,1.2,23-4.2,27.3c-0.1,0.1-0.3,0.1-0.5,0.1c-0.7,0-1.7-0.3-1.7-0.3l-3.4-1.2
			c0,0-0.5,0.2-1,0.2c-0.5,0-1-0.2-1.2-1c-2.8-9.6,7.6-43.1,7.6-43.1l0.1,0c0.8-4.3,4.6-7.6,9.1-7.6L34.9,34.5L34.9,34.5 M34.9,33.9
			c-0.1,0-0.1,0-0.2,0h-6c-4.6,0-8.6,3.2-9.6,7.7c-0.1,0.1-0.2,0.2-0.2,0.3c-0.4,1.4-10.4,33.7-7.6,43.4c0.3,0.9,0.9,1.4,1.8,1.4
			c0.4,0,0.8-0.1,1-0.2l3.2,1.2c0.1,0,1.1,0.3,1.9,0.3c0.4,0,0.6-0.1,0.8-0.2c2.4-1.9,3.9-7.1,4.4-15.6c0.1-2.5,0.2-4.9,0.2-6.9
			l2.7,11c-0.2,0.4-0.5,0.9-0.7,1.4c-0.7,1.4-1.5,2.9-2.1,4.2c-0.1,0.2-0.1,0.4,0,0.5c0.1,0.2,0.3,0.3,0.5,0.3c0,0,0,0,0,0l31.7-0.2
			c0.2,0,0.4-0.1,0.5-0.3c0.1-0.2,0.1-0.4,0-0.5c-0.8-1.7-1.7-3.2-2.6-4.6l1.9-7.7c0.5,4.9,1.6,13.5,3.6,16.5
			c0.8,1.2,2.6,1.3,2.8,1.3c0,0,0,0,0,0c0.1,0,0.1,0,0.2,0L66,86c1.1-0.4,2.9-1.2,3.2-2c1.7-4.2,0.8-12.7-2.8-25
			c-2.7-9.2-5.9-17.2-5.9-17.3c0,0,0-0.1,0-0.1c-1-4.4-5-7.6-9.5-7.6h-4.2c-0.1,0-0.1,0-0.2,0c-1.9,0.7-3.8,1-5.7,1
			c-1.9,0-3.9-0.4-5.8-1.1C35,33.9,34.9,33.9,34.9,33.9L34.9,33.9z"/>
	</g>
	<g>
		<path class="st10" d="M60,41.8L60,41.8c-0.9-4.2-4.6-7.3-9-7.3h-4.2c-1.9,0.7-3.8,1.1-5.9,1.1c-0.1,0-0.2,0-0.3,0v46.5l16-0.1
			c-0.8-1.7-1.7-3.3-2.7-4.7l2.7-11.4c0,0,1.1,15.6,3.8,19.7c0.6,1,2.3,1,2.3,1l3.1-1.2c0,0,2.6-1,2.9-1.7
			C72.7,73.9,60,41.8,60,41.8z"/>
	</g>
	<path class="st2" d="M23.7,138.3c0.9,3.1,1.9,5.9,3,8.4l20.4-0.1l0.9-2l6.1,0.1c0.6-2.1,1.3-4.2,1.9-6.4H23.7z"/>
	<path class="st2" d="M21.8,129.5h36.3c0.5-3.1,1-6.3,1.2-9.9H20.7C20.9,123,21.3,126.3,21.8,129.5z"/>
	<path class="st2" d="M20.6,108.8h38.8c-0.2-4.6-0.7-9-1.4-13.1H22C21.3,99.7,20.8,104.2,20.6,108.8z"/>
	<g>
		<path class="st2" d="M49.6,86.1c-3.2,0-9.1-0.5-12.5-3.7c-7.6-7.2-5.9-27.3-3.6-44c0.1-1.1,0.1-1.8-0.2-2.2
			c-0.3-0.4-0.8-0.4-1.3-0.5c-0.5-0.1-1.2-0.2-1.5-0.7c-0.1-0.2-0.2-0.3-0.2-0.6l-0.2,0c0,0-2.8,0.1-5.3,0.9
			c-2.6,0.9-3.1,1.9-3.1,1.9L21.1,37c6.3-18.2,9.5-29.5,9.6-29.6c0-0.1,3.2-6.9,10.1-7.1c0.2,0,0.4,0,0.6,0c7.6,0,10.3,4.6,11.3,7.4
			c1.1,3.3,3.5,30.6,3,37.3c-0.3,3.4,0.8,5.8,1.6,7.8l0.3,0.6c1,2.3,1.1,3.5,1.1,3.5c0,0.2-2.6,18.2-1.7,21.1
			c0.5,1.7,1.2,4.2,1.9,5.7c0.1,0.2,0.1,0.4-0.1,0.6C57.8,85.3,53.8,86.1,49.6,86.1z M32.5,31.7c1.1,0,2.1,0.2,3.2,0.7l0.8,0.4
			c2.6,1.2,5.5,2.5,8.2,2.5c2.9,0,4.8-1.7,5.8-5.3c0,0,1.1-8.7,0.8-13.6C50.9,12.1,49.4,5,42.6,4.9l-0.3,0c-5,0-8.5,1.9-11.8,27.1
			C30.7,32,31.4,31.7,32.5,31.7z"/>
		<path class="st7" d="M41.3,0.6c6.4,0,9.7,3.5,11,7.2c1.1,3.2,3.5,30.6,2.9,37.2c-0.3,3.8,1,6.4,1.9,8.5c1,2.3,1,3.5,1,3.5
			s-2.6,18.1-1.7,21.1c0.4,1.5,1.2,4.1,1.9,5.8c0.4,0.9-3.8,2-8.7,2c-4.4,0-9.4-0.9-12.3-3.7c-7.2-6.8-6-25.8-3.5-43.8
			c0.8-5.6-4.4-0.5-3.1-6.1c0,0,0.7-0.3,1.9-0.3c0.8,0,1.9,0.1,3,0.7c2.7,1.2,6.1,2.9,9.1,2.9c2.6,0,4.9-1.3,6.1-5.5
			c0,0,1.1-8.8,0.8-13.7C51,10.6,48.8,4.7,42.6,4.6c-0.1,0-0.2,0-0.3,0c-5.3,0-9,2.3-12.3,29.5c0,0-2.8,0.1-5.4,0.9
			c-2.8,0.9-3.3,2.1-3.3,2.1c6.4-18.4,9.6-29.7,9.6-29.7s3-6.7,9.8-6.9C40.9,0.6,41.1,0.6,41.3,0.6 M41.3,0c-0.2,0-0.4,0-0.6,0
			c-7.1,0.2-10.2,6.9-10.3,7.2l0,0l0,0c0,0.1-3.2,11.5-9.5,29.6l1,0.4v0c0,0,0.5-0.9,2.9-1.8c2.3-0.8,4.7-0.9,5.1-0.9
			c0.1,0.2,0.1,0.3,0.2,0.4c0.4,0.6,1.1,0.7,1.7,0.8c0.5,0.1,0.9,0.1,1.1,0.4c0.3,0.3,0.3,1,0.2,2c-2.3,16.8-3.9,37,3.7,44.3
			c3.5,3.3,9.5,3.8,12.7,3.8c3.9,0,8.4-0.7,9.2-2c0.2-0.3,0.2-0.6,0.1-0.8c-0.7-1.6-1.4-4-1.9-5.7c-0.7-2.4,1-15.9,1.7-20.9l0-0.1
			l0-0.1c0-0.1-0.1-1.3-1.1-3.6c-0.1-0.2-0.2-0.4-0.3-0.6c-0.9-2-1.8-4.4-1.6-7.6c0.5-6.7-1.8-34.1-3-37.4C51.8,4.8,49,0,41.3,0
			L41.3,0z M30.9,31.6C34.3,5.2,38.4,5.2,42.3,5.2c0.1,0,0.2,0,0.3,0c6.5,0.1,8,7.1,8.2,11.2c0.3,4.7-0.7,12.9-0.8,13.6
			c-1,3.4-2.8,5.1-5.6,5.1c-2.6,0-5.5-1.3-8-2.5l-0.8-0.4c-1.1-0.5-2.2-0.7-3.3-0.7C31.8,31.5,31.2,31.6,30.9,31.6L30.9,31.6z"/>
	</g>
	<path class="st7" d="M29.1,144.8c-0.5,0-1.3-2.4-1.3-3.5c0-0.4,0.3-0.7,0.7-0.7h1c0.4,0,0.8,0.3,0.7,0.7
		C30.2,142.6,29.5,144.8,29.1,144.8z"/>
	<circle class="st7" cx="33.7" cy="142.7" r="1.2"/>
	<path class="st7" d="M38.5,144.8c-0.5,0-1.3-2.4-1.3-3.5c0-0.4,0.3-0.7,0.7-0.7h1c0.4,0,0.8,0.3,0.7,0.7
		C39.7,142.6,39,144.8,38.5,144.8z"/>
	<circle class="st7" cx="43.5" cy="142.7" r="1.2"/>
	<path class="st7" d="M47.9,144.8c-0.5,0-1.3-2.4-1.3-3.5c0-0.4,0.3-0.7,0.7-0.7h1c0.4,0,0.8,0.3,0.7,0.7
		C49,142.6,48.4,144.8,47.9,144.8z"/>
	<circle class="st7" cx="52.4" cy="142.7" r="1.2"/>
	<path class="st7" d="M24.9,127c-0.5,0-1.4-2.7-1.4-3.8c0-0.5,0.4-0.8,0.8-0.8h1.1c0.5,0,0.8,0.4,0.8,0.8
		C26.1,124.5,25.4,126.9,24.9,127z"/>
	<circle class="st7" cx="30" cy="124.6" r="1.4"/>
	<path class="st7" d="M35.3,127c-0.5,0-1.4-2.7-1.4-3.8c0-0.5,0.4-0.8,0.8-0.8h1.1c0.5,0,0.8,0.4,0.8,0.8
		C36.6,124.5,35.9,126.9,35.3,127z"/>
	<circle class="st7" cx="40.9" cy="124.6" r="1.4"/>
	<path class="st7" d="M45.7,127c-0.5,0-1.4-2.7-1.4-3.8c0-0.5,0.4-0.8,0.8-0.8h1.1c0.5,0,0.8,0.4,0.8,0.8
		C47,124.5,46.2,126.9,45.7,127z"/>
	<circle class="st7" cx="50.7" cy="124.6" r="1.4"/>
	<path class="st7" d="M25,105.4c-0.5,0-1.4-2.7-1.4-3.8c0-0.5,0.4-0.8,0.8-0.8h1.1c0.5,0,0.8,0.4,0.8,0.8
		C26.3,102.9,25.5,105.3,25,105.4z"/>
	<circle class="st7" cx="30.1" cy="103.1" r="1.4"/>
	<path class="st7" d="M35.5,105.4c-0.5,0-1.4-2.7-1.4-3.8c0-0.5,0.4-0.8,0.8-0.8H36c0.5,0,0.8,0.4,0.8,0.8
		C36.7,102.9,36,105.3,35.5,105.4z"/>
	<circle class="st7" cx="41" cy="103.1" r="1.4"/>
	<path class="st7" d="M45.9,105.4c-0.5,0-1.4-2.7-1.4-3.8c0-0.5,0.4-0.8,0.8-0.8h1.1c0.5,0,0.8,0.4,0.8,0.8
		C47.1,102.9,46.4,105.3,45.9,105.4z"/>
	<circle class="st7" cx="50.8" cy="103.1" r="1.4"/>
	<path class="st7" d="M56.3,105.4c-0.5,0-1.4-2.7-1.4-3.8c0-0.5,0.4-0.8,0.8-0.8h1.1c0.5,0,0.8,0.4,0.8,0.8
		C57.6,102.9,56.8,105.3,56.3,105.4z"/>
	<path class="st7" d="M56.1,122.3h-0.5c-0.5,0-0.8,0.4-0.8,0.8c0,0.6,0.2,1.5,0.5,2.3C55.5,124.4,55.9,122.9,56.1,122.3z"/>
	<path class="st11" d="M48.5,145.2c0,0,9.8-23.6,10-31.8"/>
	<g>
		<path class="st1" d="M58.2,83.7c-0.7-1.7-1.5-4.3-1.9-5.8C55.5,75,58,56.8,58,56.8s-0.1-1.1-1-3.5c-0.9-2.2-2.2-4.7-1.9-8.5
			c0.5-6.6-1.9-34-2.9-37.1c-1.3-3.8-4.7-7.4-11.6-7.2c-0.1,0-0.3,0-0.4,0v4.2c0.7-0.2,1.5-0.2,2.4-0.2c6.2,0.1,8.4,6,8.8,11.7
			c0.3,5-0.8,13.7-0.8,13.7c-1.8,6.4-6.2,6.2-10.4,4.7V84C47.3,87.2,58.8,85.1,58.2,83.7z"/>
	</g>
	<path class="st12" d="M36.8,34.3c4.5,5.3,11,6.1,14.3,3.4c2.7-2.2,2.5-6.3,2.5-7.1"/>
	<path class="st12" d="M36.1,36.5c2.9,9.1,8.6,14.8,13.5,14.3c1-0.1,2.4-0.5,4-1.8"/>
	<path class="st12" d="M36,39.6c-0.6,18.7,4.2,32.1,11.4,33.7c1.5,0.3,3.8,0.3,7-1.6"/>
	<path class="st12" d="M33.2,54.1c0.4,25.7,15.7,25.7,22,23.2"/>
</g>
</svg>
