<?xml version="1.0" encoding="utf-8"?>
<!-- Generator: Adobe Illustrator 20.1.0, SVG Export Plug-In . SVG Version: 6.00 Build 0)  -->
<svg version="1.1" id="Layer_1" xmlns="http://www.w3.org/2000/svg" xmlns:xlink="http://www.w3.org/1999/xlink" x="0px" y="0px"
	 viewBox="0 0 324.4 194" style="enable-background:new 0 0 324.4 194;" xml:space="preserve">
<style type="text/css">
	.st0{fill:#006838;}
	.st1{fill:#941B1E;}
	.st2{fill:#941B1E;stroke:#FFFFFF;stroke-miterlimit:10;}
	.st3{fill:#EBAD74;}
	.st4{fill:#CB986D;}
	.st5{fill:#731F26;}
	.st6{fill:#FFFFFF;stroke:#005B8C;stroke-linecap:round;stroke-linejoin:round;stroke-miterlimit:10;}
	.st7{fill:#FFFFFF;stroke:#941B1E;stroke-width:1.4173;stroke-linecap:round;stroke-linejoin:round;stroke-miterlimit:10;}
	.st8{fill:#224965;stroke:#FFFFFF;stroke-width:0.5669;stroke-miterlimit:10;}
	.st9{fill:none;stroke:#005B8C;stroke-linecap:round;stroke-linejoin:round;stroke-miterlimit:10;}
	.st10{fill:#B9602E;}
	.st11{fill:#005B8C;stroke:#FFFFFF;stroke-width:0.5669;stroke-linecap:round;stroke-linejoin:round;stroke-miterlimit:10;}
	.st12{fill:#BBBDBF;}
	.st13{fill:#941B1E;stroke:#FFFFFF;stroke-width:0.5669;stroke-linecap:round;stroke-linejoin:round;stroke-miterlimit:10;}
	.st14{fill:none;stroke:#FFFFFF;stroke-linecap:round;stroke-linejoin:round;stroke-miterlimit:10;}
	.st15{fill:#654011;stroke:#231F20;stroke-miterlimit:10;}
	.st16{fill:#231F20;}
	.st17{fill:none;stroke:#231F20;stroke-miterlimit:10;}
	.st18{fill:#FCE6A1;}
	.st19{fill:#DFECF9;}
	.st20{fill:#25A9E0;}
	.st21{fill:#3F3E31;}
	.st22{fill:#FFFFFF;}
</style>
<path class="st0" d="M135.6,170.7l-25.1-11.2c-4.4-2-4.3-7.2,0.1-11.7l0,0c4.4-4.5,11.7-6.5,16-4.6l25.1,11.2
	c4.4,2,4.3,7.2-0.1,11.7l0,0C147.2,170.6,140,172.7,135.6,170.7z"/>
<g>
	<g>
		<rect x="111.5" y="18.2" class="st1" width="21.9" height="23.8"/>
		<path class="st2" d="M111.1,35L104,112l-13.4,1.6c0,0-3.8,0-2.6-3.6c1.2-3.6,1.4-11.7,1.4-11.7l-3.8-1.7c0,0-2.6-0.8-1.2-4.3
			c0.8-2,10.2-29,18.1-51.8L111.1,35z"/>
		<g>
			<path class="st3" d="M147.3,85.1c-0.2-0.4-0.8-1.5-1.4-2.5l0.2-0.1l-5.6-40.8l0,0c-0.8-3.9-4.3-6.8-8.4-6.8h-4.1l-1.5-5.9
				c3.6-2,6.1-6.6,6.1-11.9c0-7.1-4.5-12.9-10.1-12.9c-5.6,0-10.1,5.8-10.1,12.9c0,5.4,2.6,10,6.2,11.9l-1.6,5.8h-5.8
				c-4.2,0-7.8,3.1-8.5,7.1l-0.1,0l-5.6,40.8l0.6,0.2c-1,3.3-2,8.4-1.9,8.5c0.2,0.2,1.7,5.3,2.9,5.1c1.2-0.2,2.1-1.6,2.1-1.6
				l0.3-3.5c0,0-0.9,0.6-1.3,0.5c-0.7-0.2-0.5-2.2-0.5-2.8c0-0.4,0.3-0.4,0.3-0.2c0,0.2-0.3,2.4,0.4,2.6c0.3,0.1,1-0.4,1-0.4
				s0.8-1.8,1-2.6c0.1-0.8-1.2-3-1.3-3.4c0-0.1,0-0.5,0.1-1l0.3,0.1l5.6-25.5l4.3,15.9c-4.3,6.2-4,17.8-4,28.5
				c0,9.7-0.8,16.2,2.9,22.3h25.9c3.7-6.1,5.1-13.1,5.1-22.8c0-10.5-1.8-21.6-6-27.8l2.6-10.6l4.7,19.8l1-0.4l-0.3,0.4
				c0,0,0.4,1.4,0.4,2.1c-0.1,2.9-0.3,2.2,0.8,3.5c0.5,0.6,0.6,0.9,1.1,1c0.6,0.1,0.3-1.7,0.1-2.5c-0.1-0.1-0.2-0.2-0.3-0.3
				c0,0-0.1-0.4,0.2-0.2c0,0,1.1,0.7,0.8,3c0.1,0.5,0.2,1,0.3,1.2c0.1,0.9-1.6,3.8-1.1,4.3c0.5,0.5,2.3-1.1,2.8-1.6
				c0.5-0.5,1.8-3.8,2-5C149.7,88.5,147.7,86,147.3,85.1z"/>
			<path class="st4" d="M147.3,85.1c-0.2-0.4-0.8-1.5-1.4-2.5l0.2-0.1l-5.6-40.8l0,0c-0.8-3.9-4.3-6.8-8.4-6.8h-4.1l-1.5-5.9
				c3.6-2,6.1-6.6,6.1-11.9c0-6.7-4-12.3-9.2-12.9v121.2h12.3c3.7-6.1,5.1-13.1,5.1-22.8c0-10.5-1.8-21.6-6-27.8l2.6-10.6l4.7,19.8
				l1-0.4l-0.3,0.4c0,0,0.4,1.4,0.4,2.1c-0.1,2.9-0.3,2.2,0.8,3.5c0.5,0.6,0.6,0.9,1.1,1c0.6,0.1,0.3-1.7,0.1-2.5
				c-0.1-0.1-0.2-0.2-0.3-0.3c0,0-0.1-0.4,0.2-0.2c0,0,1.1,0.7,0.8,3c0.1,0.5,0.2,1,0.3,1.2c0.1,0.9-1.6,3.8-1.1,4.3
				c0.5,0.5,2.3-1.1,2.8-1.6c0.5-0.5,1.8-3.8,2-5C149.7,88.5,147.7,86,147.3,85.1z"/>
		</g>
		<path class="st1" d="M130.7,7.4c-0.2-0.3-6.2-3.1-6.2-3.1l-7.3,2.6l-3.7,9.3c2.4-1.9,5.8-3.1,9.5-3.1c4.3,0,8.1,1.6,10.5,4
			C133.6,17,130.9,7.7,130.7,7.4z M117.3,12.4c-0.4,0-0.6-0.3-0.6-0.6c0-0.4,0.3-0.6,0.6-0.6c0.4,0,0.6,0.3,0.6,0.6
			C117.9,12.1,117.6,12.4,117.3,12.4z M120,11.6c-0.4,0-0.6-0.3-0.6-0.6c0-0.4,0.3-0.6,0.6-0.6c0.4,0,0.6,0.3,0.6,0.6
			C120.6,11.3,120.3,11.6,120,11.6z M122.8,11.3c-0.4,0-0.6-0.3-0.6-0.6c0-0.4,0.3-0.6,0.6-0.6c0.4,0,0.6,0.3,0.6,0.6
			C123.5,11,123.2,11.3,122.8,11.3z M125.7,11.5c-0.4,0-0.6-0.3-0.6-0.6c0-0.4,0.3-0.6,0.6-0.6c0.4,0,0.6,0.3,0.6,0.6
			C126.3,11.2,126,11.5,125.7,11.5z M128.5,12c-0.4,0-0.6-0.3-0.6-0.6c0-0.4,0.3-0.6,0.6-0.6c0.4,0,0.6,0.3,0.6,0.6
			C129.1,11.7,128.9,12,128.5,12z M130.8,13.3c-0.4,0-0.6-0.3-0.6-0.6c0-0.4,0.3-0.6,0.6-0.6c0.4,0,0.6,0.3,0.6,0.6
			C131.5,13,131.2,13.3,130.8,13.3z"/>
		<path class="st5" d="M123.2,10.1c0.2,0.1,0.3,0.3,0.3,0.5s-0.1,0.4-0.3,0.5V13c4.2,0,8,1.6,10.4,4c0,0-2.7-9.3-2.9-9.6
			s-6.2-3.1-6.2-3.1l-1.4,0.5V10.1z M130.8,12c0.4,0,0.6,0.3,0.6,0.6c0,0.4-0.3,0.6-0.6,0.6s-0.6-0.3-0.6-0.6
			C130.2,12.3,130.5,12,130.8,12z M128.5,10.7c0.4,0,0.6,0.3,0.6,0.6c0,0.4-0.3,0.6-0.6,0.6c-0.4,0-0.6-0.3-0.6-0.6
			C127.9,11,128.1,10.7,128.5,10.7z M125.7,10.2c0.4,0,0.6,0.3,0.6,0.6c0,0.4-0.3,0.6-0.6,0.6c-0.4,0-0.6-0.3-0.6-0.6
			C125,10.5,125.3,10.2,125.7,10.2z"/>
		<path class="st6" d="M123,143c-0.9,0.5-0.9,1.7-0.9,1.7l8.2,5.8c0.7,0.5,2.2,1.1,2.9,0.2c0.9-1.1-0.1-3.2-0.1-3.2L123,143z"/>
		<path class="st4" d="M133.4,120.3c0,0.3-6.1,21.5-6.1,21.5s5.4,4.5,5.4,5s0.2,3.2-0.7,3.1c-0.9-0.1-8.1-4.8-8.7-5.2
			c-0.6-0.4,0-24.6,0-24.6L133.4,120.3z"/>
		<path class="st6" d="M123,145.9c0.9,0.5,0.9,1.7,0.9,1.7l-8.5,6.6c-0.7,0.5-1.9,0.7-2.6-0.1c-0.9-1.1,0.6-3.1,0.6-3.1L123,145.9z"
			/>
		<path class="st3" d="M112.7,122.3c0,0.3,4.9,22.4,4.9,22.4s-4.4,5.2-4.4,5.7c0,0.5,0,2.8,0.9,2.7s8.1-6,8.7-6.4
			c0.6-0.4,0-24.6,0-24.6L112.7,122.3z"/>
		<path class="st7" d="M110.9,74.9c-4.2,8.2-6.9,20.5-6.9,34.4c0,12.9,2.3,24.4,6,32.5h25.9c3.7-8.1,6-19.7,6-32.5
			c0-13.6-2.6-25.7-6.7-33.9L110.9,74.9z"/>
		<path class="st8" d="M140.7,41.5L140.7,41.5c-0.8-3.8-4.2-6.7-8.1-6.8c-0.3,4.4-4.1,8-8.9,8.4v41.1h15.9c-1.2-3.7-2.7-6.9-4.5-9.5
			l2-10.5l4.6,19.9l1.7-0.7l2.9-1.1l0.2-0.1L140.7,41.5z"/>
		<path class="st9" d="M114.1,148.7c0,0,0.5,0.8,0.4,2.2c0,0,1.6-2.5,3-0.5"/>
		<path class="st9" d="M131.8,145.8c0,0-0.5,0.8-0.4,2.2c0,0-1.6-2.5-3-0.5"/>
		<path class="st10" d="M114.3,122.5l6.4,1.8l-2.2-5.6l5.7-1.7l-5.4-3.8l3.7-5.5l-6,0.4l0.1-6l-5.3,3.9l-4-5.1l-1.5,5.7l-1.1-0.4
			c0,0.9,0,1.8,0,2.7c0,0.1,0,0.3,0,0.4c2.1-2.2,5.4-3,8.4-1.8c4,1.6,5.9,6.1,4.3,10.1c-1.6,4-6.1,5.9-10.1,4.3
			c-0.7-0.3-1.4-0.7-2-1.2c0.2,1.8,0.5,3.6,0.8,5.3l2.8-2.3l3.4,4.9L114.3,122.5z"/>
		<path class="st11" d="M123.3,56V43.1c-0.2,0-0.5,0-0.7,0c-5.4,0-9.8-3.7-10.2-8.5H111c-4.3,0-8,3.1-8.7,7.1l-5.9,40.8l0.6,0.2
			l3.3,1.2l1.3,0.5l5.4-25.5l0.9,5.1c0,0,4.1-1.4,7.9-3.2C119.7,59,123.3,56,123.3,56z"/>
		<path class="st12" d="M134.9,75.4l-12.3-0.3v66.2h13c3.6-8.1,5.9-19.5,5.9-32.3C141.3,95.5,138.8,83.5,134.9,75.4z"/>
		<path class="st13" d="M103.5,38.6c5.9-17,10-29.6,10-29.6s2.8-6.2,9.1-6.4c6.3-0.2,9.7,3.1,10.7,6.7c0.5,1.8,5.9,46.1,5.9,46.1
			s-3.6,16.8-2.8,19.6s3,7.5,3,7.5s-1,12.2-20.9,15.2c0,0-10.4,1.7-14.2-5.7c-0.5-1-0.4-1.6-0.4-1.6s3.3-19.1,3.1-25.9
			c0,0,20.2-6.9,23.8-19.6c0,0,2.1-23.1,1.8-27.7c-0.3-5.3-2.4-10.8-8.1-10.9c-5.1-0.1-9.1,2.7-12.2,28.4c0,0-2.1-0.5-4.5,0.3
			C105.1,36,103.5,38.6,103.5,38.6z"/>
		<path class="st10" d="M136.9,110.9c-3.2-1.3-4.7-4.8-3.4-8c1.2-2.9,4.4-4.5,7.4-3.6c0-0.5-0.1-1-0.2-1.5l-0.6,0.5l-3.2-4.1
			l-1.2,4.5l-4.5-1.5l1.7,5l-4.9,1.8l4,2.5l-2.8,3.7l5.2,0l0.2,5.3l3.7-3l2.7,3.8l0.2-0.8c0.1-1.5,0.2-3,0.2-4.5
			C140,111.5,138.4,111.5,136.9,110.9z"/>
		<path class="st10" d="M129.5,141.4c-2.5-2.1-3.5-5.7-2.3-8.9c1.6-4,6.1-5.9,10.1-4.3c0.7,0.3,1.4,0.7,2,1.2
			c0.5-2.1,0.8-4.2,1.2-6.4l-5,3.7l-4-5.1l-1.5,5.7l-5.7-2l2.1,6.3l-6.2,2.2l5,3.2l-3.3,4.4H129.5z"/>
		<path class="st14" d="M136.7,69.4c0,0-5.2,12.9-15.4,12.1c-9.8-0.8-9.8-5-9.8-5"/>
		<path class="st14" d="M136.4,74.6c0,0-2.9,14.4-13.4,16.1c-11.2,1.9-14.9-5.6-14.9-5.6"/>
		<path class="st5" d="M136.2,74.5c-0.8-2.8,2.7-19.1,2.7-19.1s-5.1-44.3-5.6-46.1c-1-3.5-4.1-6.4-10-6.4v3.3c0.3,0,0.7,0,1,0
			c5.7,0.1,8.1,6,8.5,11.3c0.3,4.6-1.9,27.4-1.9,27.4c-1.2,6.1-8.5,11.5-8.5,11.5v40.3c16-4.3,16.6-14.2,16.6-14.2
			S137,77.2,136.2,74.5z"/>
	</g>
</g>
<path class="st0" d="M257.4,191.5l-86.8-38.8c-15.1-6.7-14.9-24.9,0.4-40.4l0,0c15.4-15.5,40.3-22.6,55.4-15.9l86.8,38.8
	c15.1,6.7,14.9,24.9-0.4,40.4l0,0C297.4,191.1,272.5,198.2,257.4,191.5z"/>
<g>
	<path class="st15" d="M263.1,155.6h-82.7c-11.8,0-21.4-9.6-21.4-21.4V90.3c0-11.8,9.6-21.4,21.4-21.4h82.7
		c11.8,0,21.4,9.6,21.4,21.4v43.9C284.5,146,274.9,155.6,263.1,155.6z"/>
	<g>
		<g>
			<path class="st16" d="M216.9,2.9l-2,0c-0.2,0-0.5,0.1-0.6,0.3c0.3,0.1,0.5,0.4,0.5,0.7l0.1,4.4c0,0.3-0.2,0.6-0.5,0.7
				c0.2,0.1,0.4,0.2,0.6,0.2l2,0c0.5,0,0.9-0.4,0.9-0.9l0-4.7C217.8,3.3,217.4,2.9,216.9,2.9z"/>
		</g>
	</g>
	<g>
		<g>
			<path class="st16" d="M220.4,2.9l-2,0c-0.2,0-0.5,0.1-0.6,0.3c0.3,0.1,0.5,0.4,0.5,0.7l0.1,4.4c0,0.3-0.2,0.6-0.5,0.7
				c0.2,0.1,0.4,0.2,0.6,0.2l2,0c0.5,0,0.9-0.4,0.9-0.9l0-4.7C221.3,3.3,220.9,2.9,220.4,2.9z"/>
		</g>
	</g>
	<g>
		<g>
			<path class="st16" d="M224,2.9l-2,0c-0.2,0-0.5,0.1-0.6,0.3c0.3,0.1,0.5,0.4,0.5,0.7l0.1,4.4c0,0.3-0.2,0.6-0.5,0.7
				c0.2,0.1,0.4,0.2,0.6,0.2l2,0c0.5,0,0.9-0.4,0.9-0.9l0-4.7C224.8,3.3,224.4,2.9,224,2.9z"/>
		</g>
	</g>
	<g>
		<path class="st16" d="M165.5,85.9h-0.3c-1.2,0-2.1-1-2.1-2.1V11.8c0-1.2,1-2.1,2.1-2.1h0.3c1.2,0,2.1,1,2.1,2.1v72.1
			C167.6,85,166.7,85.9,165.5,85.9z"/>
		<g>
			<g>
				<path class="st16" d="M167.8,0l-3.4,0c-0.4,0-0.8,0.2-1.1,0.5c0.5,0.2,0.8,0.7,0.8,1.2l0.2,7.5c0,0.6-0.3,1.1-0.9,1.3
					c0.3,0.2,0.6,0.4,1,0.4l3.4,0c0.8,0,1.5-0.7,1.5-1.5l0-7.9C169.2,0.7,168.6,0,167.8,0z"/>
			</g>
		</g>
		<g>
			<path class="st16" d="M163.6,3.7l0-1.6c0-0.5-0.3-0.9-0.7-1c-0.2,0.2-0.3,0.5-0.3,0.7v1.9H163.6z"/>
			<path class="st16" d="M162.6,8.9L162.6,8.9c0,0.4,0.1,0.7,0.4,0.9c0.4-0.2,0.6-0.5,0.7-0.9H162.6z"/>
		</g>
	</g>
	<g>
		<path class="st16" d="M277.8,85.9h-0.3c-1.2,0-2.1-1-2.1-2.1V11.8c0-1.2,1-2.1,2.1-2.1h0.3c1.2,0,2.1,1,2.1,2.1v72.1
			C279.9,85,279,85.9,277.8,85.9z"/>
		<g>
			<g>
				<path class="st16" d="M280,0l-3.4,0c-0.4,0-0.8,0.2-1.1,0.5c0.5,0.2,0.8,0.7,0.8,1.2l0.2,7.5c0,0.6-0.3,1.1-0.9,1.3
					c0.3,0.2,0.6,0.4,1,0.4l3.4,0c0.8,0,1.5-0.7,1.5-1.5l0-7.9C281.5,0.7,280.8,0,280,0z"/>
			</g>
		</g>
		<g>
			<path class="st16" d="M275.9,3.7l0-1.6c0-0.5-0.3-0.9-0.7-1c-0.2,0.2-0.3,0.5-0.3,0.7v1.9H275.9z"/>
			<path class="st16" d="M274.9,8.9L274.9,8.9c0,0.4,0.1,0.7,0.4,0.9c0.4-0.2,0.6-0.5,0.7-0.9H274.9z"/>
		</g>
	</g>
	<g>
		<g>
			<path class="st16" d="M227.6,2.9l-2,0c-0.2,0-0.5,0.1-0.6,0.3c0.3,0.1,0.5,0.4,0.5,0.7l0.1,4.4c0,0.3-0.2,0.6-0.5,0.7
				c0.2,0.1,0.4,0.2,0.6,0.2l2,0c0.5,0,0.9-0.4,0.9-0.9l0-4.7C228.5,3.3,228.1,2.9,227.6,2.9z"/>
		</g>
	</g>
	<path class="st16" d="M288.3,56.5c-2.8-5.6-7.7-13-16.2-16.6c-6.1-2.6-10.4-1.6-15.6-2.4c-7.4-1.2-17.7-6.2-28.7-24.3
		c-0.1-0.1-1.2-1.9-1.4-2.9h1.3c0,0.5,0.7,1.6,0.9,1.9c10.9,17.7,21,22.6,28.4,23.8c5.2,0.8,9.5-0.2,15.6,2.4
		c8.5,3.6,13.4,11,16.2,16.6L288.3,56.5z"/>
	<g>
		<path class="st16" d="M213.8,4h-56.7c-0.6,0-1.2,0.5-1.2,1.2v2.2c0,0.6,0.5,1.2,1.2,1.2h56.7V4z"/>
		<path class="st16" d="M284.3,4h-55.1v4.5h55.1c0.6,0,1.2-0.5,1.2-1.2V5.1C285.5,4.5,284.9,4,284.3,4z"/>
	</g>
	<path class="st15" d="M262.6,68.8h-81.7c-12.1,0-21.9,9.9-21.9,21.9v16.7c0.7,6,5.9,10.8,12.1,10.8h101c6.7,0,12.2-5.5,12.2-12.2
		V87.4C282.6,76.9,273.5,68.8,262.6,68.8z"/>
	<path class="st17" d="M272,118.3H171c-6.2,0-11.4-4.7-12.1-10.8V91c-0.1,0.6-0.1,1.2-0.1,1.9v34c0,6.7,5.5,12.2,12.2,12.2h101
		c6.7,0,12.2-5.5,12.2-12.2v-19.7C283.6,113.4,278.4,118.3,272,118.3z"/>
	<line class="st17" x1="180.5" y1="100.4" x2="180.5" y2="117.8"/>
	<line class="st17" x1="180.5" y1="139.9" x2="180.6" y2="154.5"/>
	<line class="st17" x1="197.3" y1="119.7" x2="197.3" y2="137.2"/>
	<line class="st17" x1="213.8" y1="100.4" x2="213.8" y2="117.8"/>
	<line class="st17" x1="213.7" y1="139.9" x2="213.8" y2="154.5"/>
	<line class="st17" x1="245.1" y1="100.4" x2="245.1" y2="117.8"/>
	<line class="st17" x1="245.1" y1="139.9" x2="245.2" y2="154.5"/>
	<line class="st17" x1="274.1" y1="139.9" x2="274.1" y2="151.3"/>
	<line class="st17" x1="230.3" y1="119.7" x2="230.3" y2="137.2"/>
	<line class="st17" x1="260.8" y1="119.7" x2="260.8" y2="137.2"/>
	<path class="st17" d="M274.3,117v-16.1c-0.4-2.8-1.4-5.3-2.7-7.7"/>
	<path class="st18" d="M258.7,99.6h-75.1c-7.3,0-13.4-6-13.4-13.4v0c0-7.3,6-13.4,13.4-13.4h75.1c7.3,0,13.4,6,13.4,13.4v0
		C272.1,93.5,266,99.6,258.7,99.6z"/>
	<rect x="214.6" y="10.4" class="st16" width="1.4" height="88"/>
</g>
<path class="st0" d="M73.3,165.4l-18-8c-3.1-1.4-3.1-5.2,0.1-8.4h0c3.2-3.2,8.3-4.7,11.5-3.3l18,8c3.1,1.4,3.1,5.2-0.1,8.4l0,0
	C81.6,165.3,76.4,166.8,73.3,165.4z"/>
<path class="st0" d="M26.2,169L3.6,159c-3.9-1.8-3.9-6.5,0.1-10.5l0,0c4-4,10.5-5.9,14.4-4.1l22.6,10.1c3.9,1.8,3.9,6.5-0.1,10.5
	l0,0C36.6,168.9,30.1,170.8,26.2,169z"/>
<g>
	<path class="st19" d="M74.7,132.7h-23c-2.3,0-4.1-1.9-4.1-4.1v-0.5c0-2.3,1.9-4.1,4.1-4.1h23c2.3,0,4.1,1.9,4.1,4.1v0.5
		C78.8,130.8,77,132.7,74.7,132.7z"/>
	<path class="st20" d="M73.8,136.5H54.3c-2.3,0-4.1-1.9-4.1-4.1v-0.5c0-2.3,1.9-4.1,4.1-4.1h19.5c2.3,0,4.1,1.9,4.1,4.1v0.5
		C78,134.7,76.1,136.5,73.8,136.5z"/>
	<path class="st21" d="M62.4,100.6c-8.8,0-16,7.1-16,15.9c0,3.8,1.4,7.3,3.7,10.1c0,0,0.5,0.7,1.1,1.2c0.3,0.3,0.6,0.6,0.9,0.8
		c0.4,0.5,0.7,1.1,0.8,1.7l1.6,0c-0.1-0.7-0.3-1.4-0.7-2c0,0-0.7-0.8-1-1.1c-3-2.6-4.8-6.4-4.8-10.7c0-7.9,6.5-14.4,14.5-14.4
		c8,0,14.5,6.4,14.5,14.4c0,2.3-0.6,4.5-1.5,6.5l1.7,0c0.9-2,1.4-4.2,1.4-6.5C78.4,107.7,71.3,100.6,62.4,100.6z"/>
	<path class="st21" d="M80.9,128.7c0-2.7-2.2-4.9-4.9-4.9l-23.9,0c-0.5,0-1,0.1-1.4,0.2c0.2,0.4,0.5,0.8,0.8,1.1
		c0.4-0.2,0.9-0.3,1.4-0.4l22.2,0c1.7,0,3.1,1.4,3.1,3.1c0,1.7-1.4,3.1-3.1,3.1l-22.2,0c-1.7,0-3.1-1.4-3.1-3.1c0-0.3,0-0.6,0.1-0.9
		c-0.5-0.4-1.1-1-1.3-1.7c-0.8,0.9-1.4,2.1-1.4,3.4l5.7,21.8c0,2.7-0.5,4.6,1.8,4.7l19.1-0.1c1.6-0.1,1.2-2,1.2-4.7L80.9,128.7z"/>
</g>
<g>
	<path class="st22" d="M37.7,112.5H2.8c-1.6,0-2.8,1.3-2.8,2.8v37.9c0,1.6,1.3,2.8,2.8,2.8h5.8v-1.6c0-0.6,0.5-1.1,1.1-1.1h21.2
		c0.6,0,1.1,0.5,1.1,1.1v1.6h5.8c1.6,0,2.8-1.3,2.8-2.8v-37.9C40.6,113.8,39.3,112.5,37.7,112.5z"/>
	<rect x="23.6" y="110.1" class="st22" width="12.8" height="1.9"/>
	<rect x="21.5" y="104.5" class="st22" width="16.4" height="4.9"/>
	<path class="st22" d="M18.2,105.6h-11c-1,0-1.9,0.8-1.9,1.9v6.4c0,1,0.8,1.9,1.9,1.9h11c1,0,1.9-0.8,1.9-1.9v-6.4
		C20,106.5,19.2,105.6,18.2,105.6z M17.5,113.7c0,0.7-0.6,1.2-1.2,1.2H9.1c-0.7,0-1.2-0.6-1.2-1.2v-4.2c0-0.7,0.6-1.2,1.2-1.2h7.2
		c0.7,0,1.2,0.6,1.2,1.2V113.7z"/>
	<path class="st19" d="M33,143.4v-2.6l-8.2-8.2l8.2-8.2v-2.6c0-1.6-1.3-2.8-2.8-2.8h-1l-9,9l-9-9h-0.7c-1.6,0-2.8,1.3-2.8,2.8v2.9
		l7.9,7.9l-7.9,7.9v2.9c0,1.6,1.3,2.8,2.8,2.8h0.7l9-9l9,9h1C31.7,146.2,33,144.9,33,143.4z"/>
</g>
</svg>
