<?xml version="1.0" encoding="utf-8"?>
<!-- Generator: Adobe Illustrator 20.1.0, SVG Export Plug-In . SVG Version: 6.00 Build 0)  -->
<svg version="1.1" id="Layer_1" xmlns="http://www.w3.org/2000/svg" xmlns:xlink="http://www.w3.org/1999/xlink" x="0px" y="0px"
	 viewBox="0 0 150 150" style="enable-background:new 0 0 150 150;" xml:space="preserve">
<style type="text/css">
	.st0{clip-path:url(#SVGID_2_);fill:#B5D892;}
	.st1{opacity:0.48;clip-path:url(#SVGID_2_);fill:#39687A;}
	.st2{clip-path:url(#SVGID_2_);}
	.st3{fill:#3F3E31;}
	.st4{fill:#A39186;}
	.st5{fill:#005B8C;}
	.st6{fill:#B5D892;}
	.st7{fill:#009ADE;}
	.st8{fill:#DEECF8;}
	.st9{fill:#BBDAF3;}
	.st10{fill:none;stroke:#58595B;stroke-width:0.2835;stroke-miterlimit:10;}
	.st11{fill:#A6A8AB;}
	.st12{fill:#58595B;}
	.st13{clip-path:url(#SVGID_4_);fill:#B5D892;}
	.st14{clip-path:url(#SVGID_4_);}
	.st15{opacity:0.3;fill:#39687A;}
	.st16{fill:#158347;}
	.st17{fill:#DFECF9;}
	.st18{fill:#ABD592;}
	.st19{fill:#8BC53F;}
	.st20{fill:#A39186;stroke:#F1F1F2;stroke-miterlimit:10;}
	.st21{fill:#654011;}
	.st22{fill:#3F3E31;stroke:#F1F1F2;stroke-miterlimit:10;}
	.st23{fill:none;stroke:#F1F1F2;stroke-miterlimit:10;}
	.st24{fill:#E1B969;stroke:#F1F1F2;stroke-miterlimit:10;}
</style>
<g>
	<defs>
		<polygon id="SVGID_3_" points="-162,43.8 -95.9,0.1 -27.9,41.9 -27.9,108.7 -93,149.9 -162.1,112.6 		"/>
	</defs>
	<clipPath id="SVGID_2_">
		<use xlink:href="#SVGID_3_"  style="overflow:visible;"/>
	</clipPath>
	<g class="st2">
		<polygon class="st15" points="-49.1,26 -90,54.3 -14,101.9 5.5,51.5 		"/>
	</g>
</g>
<g>
	<polygon class="st6" points="8,43.8 74.1,0.1 142.1,41.9 142.1,108.7 77,149.9 7.9,112.6 	"/>
	<g>
		<path class="st20" d="M89,126.6H64.7c-14.9,0-27.1-12.2-27.1-27.1v0c0-14.9,12.2-27.1,27.1-27.1H89c14.9,0,27.1,12.2,27.1,27.1v0
			C116.1,114.4,103.9,126.6,89,126.6z"/>
		<g>
			<g>
				<path class="st21" d="M73.8,31.1l-1.3,0c-0.2,0-0.3,0.1-0.4,0.2c0.2,0.1,0.3,0.2,0.3,0.5l0.1,2.8c0,0.2-0.1,0.4-0.3,0.5
					c0.1,0.1,0.2,0.1,0.4,0.1l1.3,0c0.3,0,0.5-0.2,0.5-0.5l0-2.9C74.4,31.4,74.1,31.1,73.8,31.1z"/>
			</g>
		</g>
		<g>
			<g>
				<path class="st21" d="M76,31.1l-1.3,0c-0.2,0-0.3,0.1-0.4,0.2c0.2,0.1,0.3,0.2,0.3,0.5l0.1,2.8c0,0.2-0.1,0.4-0.3,0.5
					c0.1,0.1,0.2,0.1,0.4,0.1l1.3,0c0.3,0,0.5-0.2,0.5-0.5l0-2.9C76.6,31.4,76.3,31.1,76,31.1z"/>
			</g>
		</g>
		<g>
			<g>
				<path class="st21" d="M78.3,31.1l-1.3,0c-0.2,0-0.3,0.1-0.4,0.2c0.2,0.1,0.3,0.2,0.3,0.5l0.1,2.8c0,0.2-0.1,0.4-0.3,0.5
					c0.1,0.1,0.2,0.1,0.4,0.1l1.3,0c0.3,0,0.5-0.2,0.5-0.5l0-2.9C78.8,31.4,78.6,31.1,78.3,31.1z"/>
			</g>
		</g>
		<g>
			<path class="st3" d="M41.6,83L41.6,83c-0.8,0-1.4-0.6-1.4-1.4V36.8c0-0.8,0.6-1.4,1.4-1.4l0,0c0.8,0,1.4,0.6,1.4,1.4v44.9
				C43,82.4,42.4,83,41.6,83z"/>
			<g>
				<g>
					<path class="st3" d="M43.1,29.3l-2.1,0c-0.3,0-0.5,0.1-0.7,0.3c0.3,0.1,0.5,0.4,0.5,0.8l0.1,4.7c0,0.4-0.2,0.7-0.6,0.8
						c0.2,0.2,0.4,0.3,0.6,0.2l2.1,0c0.5,0,0.9-0.4,0.9-0.9l0-4.9C44,29.7,43.6,29.3,43.1,29.3z"/>
				</g>
			</g>
			<g>
				<path class="st3" d="M40.5,31.6l0-1c0-0.3-0.2-0.5-0.4-0.7c-0.1,0.1-0.2,0.3-0.2,0.5v1.2H40.5z"/>
				<path class="st3" d="M39.9,34.9L39.9,34.9c0,0.3,0.1,0.4,0.2,0.6c0.3-0.1,0.4-0.3,0.4-0.6H39.9z"/>
			</g>
		</g>
		<g>
			<path class="st3" d="M111.8,83L111.8,83c-0.8,0-1.4-0.6-1.4-1.4V36.8c0-0.8,0.6-1.4,1.4-1.4l0,0c0.8,0,1.4,0.6,1.4,1.4v44.9
				C113.2,82.4,112.6,83,111.8,83z"/>
			<g>
				<g>
					<path class="st3" d="M113.3,29.3l-2.1,0c-0.3,0-0.5,0.1-0.7,0.3c0.3,0.1,0.5,0.4,0.5,0.8l0.1,4.7c0,0.4-0.2,0.7-0.6,0.8
						c0.2,0.2,0.4,0.3,0.6,0.2l2.1,0c0.5,0,0.9-0.4,0.9-0.9l0-4.9C114.2,29.7,113.8,29.3,113.3,29.3z"/>
				</g>
			</g>
			<g>
				<path class="st3" d="M110.7,31.6l0-1c0-0.3-0.2-0.5-0.4-0.7c-0.1,0.1-0.2,0.3-0.2,0.5v1.2H110.7z"/>
				<path class="st3" d="M110.1,34.9L110.1,34.9c0,0.3,0.1,0.4,0.2,0.6c0.3-0.1,0.4-0.3,0.4-0.6H110.1z"/>
			</g>
		</g>
		<g>
			<g>
				<path class="st21" d="M80.5,31.1l-1.3,0c-0.2,0-0.3,0.1-0.4,0.2c0.2,0.1,0.3,0.2,0.3,0.5l0.1,2.8c0,0.2-0.1,0.4-0.3,0.5
					c0.1,0.1,0.2,0.1,0.4,0.1l1.3,0c0.3,0,0.5-0.2,0.5-0.5l0-2.9C81.1,31.4,80.8,31.1,80.5,31.1z"/>
			</g>
		</g>
		<path class="st21" d="M118.5,64.7c-1.8-3.5-4.8-8.1-10.1-10.4c-3.8-1.6-6.5-1-9.8-1.5c-4.6-0.7-11.1-3.9-18-15.2
			c-0.1-0.1-0.8-1.2-0.8-1.8h0.8c0,0.3,0.4,1,0.6,1.2C88,48,94.3,51.1,98.9,51.8c3.2,0.5,5.9-0.1,9.8,1.5c5.3,2.2,8.4,6.9,10.1,10.4
			L118.5,64.7z"/>
		<g>
			<path class="st3" d="M71.9,31.8H36.4c-0.4,0-0.7,0.3-0.7,0.7v1.4c0,0.4,0.3,0.7,0.7,0.7h35.5V31.8z"/>
			<path class="st3" d="M116,31.8H81.5v2.8H116c0.4,0,0.7-0.3,0.7-0.7v-1.4C116.7,32.1,116.4,31.8,116,31.8z"/>
		</g>
		<path class="st20" d="M102.4,72.4H51.3c-7.5,0-13.7,6.2-13.7,13.7v10.5c0.4,3.8,3.7,6.7,7.6,6.7h63.2c4.2,0,7.6-3.4,7.6-7.6V83.9
			C114.9,77.4,109.2,72.4,102.4,72.4z"/>
		<path class="st22" d="M108.3,103.3H45.2c-3.9,0-7.1-3-7.6-6.7V86.2c-0.1,0.4-0.1,0.8-0.1,1.2v21.3c0,4.2,3.4,7.6,7.6,7.6h63.2
			c4.2,0,7.6-3.4,7.6-7.6V96.3C115.6,100.2,112.3,103.3,108.3,103.3z"/>
		<line class="st23" x1="51.1" y1="92.1" x2="51.1" y2="103"/>
		<line class="st23" x1="51.1" y1="116.8" x2="51.1" y2="125.9"/>
		<line class="st23" x1="61.6" y1="104.2" x2="61.6" y2="115.1"/>
		<line class="st23" x1="71.9" y1="92.1" x2="71.9" y2="103"/>
		<line class="st23" x1="71.9" y1="116.8" x2="71.9" y2="125.9"/>
		<line class="st23" x1="91.5" y1="92.1" x2="91.5" y2="103"/>
		<line class="st23" x1="91.5" y1="116.8" x2="91.5" y2="125.9"/>
		<line class="st23" x1="109.6" y1="116.8" x2="109.6" y2="123.9"/>
		<line class="st23" x1="82.2" y1="104.2" x2="82.2" y2="115.1"/>
		<line class="st23" x1="101.3" y1="104.2" x2="101.3" y2="115.1"/>
		<path class="st23" d="M109.7,102.5V92.4c-0.3-1.7-0.9-3.3-1.7-4.8"/>
		<path class="st24" d="M100,91.6H53c-4.6,0-8.4-3.8-8.4-8.4v0c0-4.6,3.8-8.4,8.4-8.4h47c4.6,0,8.4,3.8,8.4,8.4v0
			C108.3,87.8,104.6,91.6,100,91.6z"/>
		<rect x="72.4" y="35.8" class="st21" width="0.9" height="55"/>
	</g>
</g>
</svg>
