<?xml version="1.0" encoding="utf-8"?>
<!-- Generator: Adobe Illustrator 20.1.0, SVG Export Plug-In . SVG Version: 6.00 Build 0)  -->
<svg version="1.1" id="Layer_1" xmlns="http://www.w3.org/2000/svg" xmlns:xlink="http://www.w3.org/1999/xlink" x="0px" y="0px"
	 viewBox="0 0 150 150" style="enable-background:new 0 0 150 150;" xml:space="preserve">
<style type="text/css">
	.st0{clip-path:url(#SVGID_2_);fill:#B5D892;}
	.st1{opacity:0.48;clip-path:url(#SVGID_2_);fill:#39687A;}
	.st2{clip-path:url(#SVGID_2_);}
	.st3{fill:#3F3E31;}
	.st4{fill:#A39186;}
	.st5{fill:#005B8C;}
	.st6{fill:#B5D892;}
	.st7{fill:#009ADE;}
	.st8{fill:#DEECF8;}
	.st9{fill:#BBDAF3;}
	.st10{fill:none;stroke:#58595B;stroke-width:0.2835;stroke-miterlimit:10;}
	.st11{fill:#A6A8AB;}
	.st12{fill:#58595B;}
	.st13{clip-path:url(#SVGID_4_);fill:#B5D892;}
	.st14{clip-path:url(#SVGID_4_);}
	.st15{opacity:0.3;fill:#39687A;}
	.st16{fill:#158347;}
	.st17{fill:#DFECF9;}
	.st18{fill:#ABD592;}
	.st19{fill:#8BC53F;}
	.st20{fill:#A39186;stroke:#F1F1F2;stroke-miterlimit:10;}
	.st21{fill:#654011;}
	.st22{fill:#3F3E31;stroke:#F1F1F2;stroke-miterlimit:10;}
	.st23{fill:none;stroke:#F1F1F2;stroke-miterlimit:10;}
	.st24{fill:#E1B969;stroke:#F1F1F2;stroke-miterlimit:10;}
</style>
<g>
	<defs>
		<polygon id="SVGID_3_" points="8,43.8 74.1,0.1 142.1,41.9 142.1,108.7 77,149.9 7.9,112.6 		"/>
	</defs>
	<clipPath id="SVGID_2_">
		<use xlink:href="#SVGID_3_"  style="overflow:visible;"/>
	</clipPath>
	<polygon class="st0" points="8,43.8 74.1,0.1 142.1,41.9 142.1,108.7 77,149.9 7.9,112.6 	"/>
	<g class="st2">
		<polygon class="st15" points="120.9,26 80,54.3 156,101.9 175.5,51.5 		"/>
		<polygon class="st15" points="168.4,49.9 115.8,19.8 53.8,52.9 45.3,56.2 55.2,65 58.9,78.9 9.7,126 81.3,184.4 164,105.8 		"/>
		<path class="st16" d="M101.4,13.8c0,0-20.2,4.3-23.2,4c-3-0.2-8-0.2-9.1,1.9c-0.2,0.3-2.3,0.2-2.3,0.2s-7.1-2.3-7.1,5.2
			c0,7.5,6.2,20.7-6.4,21.9c-12.6,1.1-13.5,9.9-11.5,13.7c1.2,2.4,8.4,1.3,6.8,5.8c-1.7,4.8-83,26.1-83,26.1s80.4-20.2,84.7-24.1
			c4.4-3.9-0.2-6.5-4.1-7.1c-2.5-0.4-6-6.7,2-8.6c8.5-2,19.2-0.4,18.9-3c-2.3-15.6,0.9-27.3,2.3-28.7c1.4-1.4,3.2-1.8,5.7-1.8
			c2.5,0,4.6,0.6,11-0.1c2.3-0.2,2.3-0.2,16.6-2.3l1.8-1.4L101.4,13.8z"/>
		<g>
			<path class="st17" d="M82.5,50.9c0,0-4.2-7.4-7.4-17.9c-3.2-10.6,4.4-12.1,8.6-11.6c4.2,0.5,23.8-2.7,23.8-2.7l4.5,2.4
				c-0.8-2.8-4.4-4.3-7.5-5.5l-1.6,1.2c-14.4,2-14.3,2-16.6,2.3c-6.4,0.7-8.5,0.1-11,0.1c-2.5,0-4.4,0.5-5.7,1.8
				c-1.4,1.4-4.6,13.1-2.3,28.7c0.4,2.6-10.4,1-18.9,3c-8,1.9-4.6,8.2-2,8.6c3.9,0.6,8.4,3.2,4.1,7.1c-4.4,3.9-84.7,24.1-84.7,24.1
				s-5.5,1.1-5.3,9.1c-0.2,2.2,0.6,3.8,1.9,5l61.9,20.3l29.2-25c0,0,6.8-6.4,10.7-7.4c3.9-1,16.6-8.7,13.5-18.7
				c-3-10-22.6-13.2-25.5-15.2c-3-2.2-3.3-5.3,4.2-6.5c9.8-1.7,24.8,2.8,26-1.9l0.9,0c0.1-0.4,0.2-0.9,0.2-1.3L82.5,50.9z"/>
		</g>
		<path class="st16" d="M107.4,18.8c0,0-19.6,3.2-23.8,2.7c-4.2-0.5-11.8,1-8.6,11.6c1.8,5.9,4.9,12.8,6.5,16.6
			c1.3,2.9-1.5,4.7-1.5,4.7l39.5-1.5l1.4-26.8L107.4,18.8z"/>
		<path class="st18" d="M67.1,49.4H45.4c-4.9,3.2-5,8.5-3.6,11.3c1.2,2.4,8.4,1.3,6.8,5.8c-1.7,4.8-83,26.1-83,26.1
			s80.4-20.2,84.7-24.1c4.4-3.9-0.2-6.5-4.1-7.1c-2.5-0.4-6-6.7,2-8.6c8.5-2,19.2-0.4,18.9-3C67.1,49.7,67.1,49.5,67.1,49.4z"/>
		<g>
			<path class="st19" d="M48.2,63.9c0.6,0.6,0.8,1.4,0.4,2.6c-1.7,4.8-83,26.1-83,26.1s80.4-20.2,84.7-24.1c2.1-1.9,2.1-3.4,1.2-4.6
				H48.2z"/>
			<path class="st19" d="M102.7,14.5l-1.3-0.7c0,0-1.3,0.3-3.4,0.7H102.7z"/>
		</g>
	</g>
</g>
</svg>
