<?xml version="1.0" encoding="utf-8"?>
<!-- Generator: Adobe Illustrator 20.1.0, SVG Export Plug-In . SVG Version: 6.00 Build 0)  -->
<svg version="1.1" id="Layer_1" xmlns="http://www.w3.org/2000/svg" xmlns:xlink="http://www.w3.org/1999/xlink" x="0px" y="0px"
	 viewBox="0 0 150 150" style="enable-background:new 0 0 150 150;" xml:space="preserve">
<style type="text/css">
	.st0{clip-path:url(#SVGID_2_);fill:#B5D892;}
	.st1{opacity:0.48;clip-path:url(#SVGID_2_);fill:#39687A;}
	.st2{clip-path:url(#SVGID_2_);}
	.st3{fill:#3F3E31;}
	.st4{fill:#A39186;}
	.st5{fill:#005B8C;}
	.st6{fill:#B5D892;}
	.st7{fill:#009ADE;}
	.st8{fill:#DEECF8;}
	.st9{fill:#BBDAF3;}
	.st10{fill:none;stroke:#58595B;stroke-width:0.2835;stroke-miterlimit:10;}
	.st11{fill:#A6A8AB;}
	.st12{fill:#58595B;}
	.st13{clip-path:url(#SVGID_4_);fill:#B5D892;}
	.st14{clip-path:url(#SVGID_4_);}
	.st15{opacity:0.3;fill:#39687A;}
	.st16{fill:#158347;}
	.st17{fill:#DFECF9;}
	.st18{fill:#ABD592;}
	.st19{fill:#8BC53F;}
	.st20{fill:#A39186;stroke:#F1F1F2;stroke-miterlimit:10;}
	.st21{fill:#654011;}
	.st22{fill:#3F3E31;stroke:#F1F1F2;stroke-miterlimit:10;}
	.st23{fill:none;stroke:#F1F1F2;stroke-miterlimit:10;}
	.st24{fill:#E1B969;stroke:#F1F1F2;stroke-miterlimit:10;}
</style>
<g>
	<defs>
		<polygon id="SVGID_1_" points="8,43.8 74.1,0.1 142.1,41.9 142.1,108.7 77,149.9 7.9,112.6 		"/>
	</defs>
	<clipPath id="SVGID_2_">
		<use xlink:href="#SVGID_1_"  style="overflow:visible;"/>
	</clipPath>
	<polygon class="st0" points="8,43.8 74.1,0.1 142.1,41.9 142.1,108.7 77,149.9 7.9,112.6 	"/>
	<polygon class="st1" points="149.3,110 100,159.4 58.1,117.5 61.9,114.8 69.8,109.9 103.2,73.6 103.5,64.2 	"/>
	<g class="st2">
		<path class="st3" d="M74.4,21.5C58.7,21.4,46,34,46,49.6c0,6.8,2.4,13,6.4,17.9c0,0,0.9,1.2,1.9,2.1c0.5,0.5,1,1,1.6,1.5
			c0.7,0.5,1.3,1.6,1.5,3.6l2.9,0c-0.1-1.3-0.8-3-1.5-4c0,0-1.2-1.4-1.7-1.9c-5.2-4.7-8.5-11.5-8.5-19c0-14.1,11.6-25.5,25.8-25.5
			s25.7,11.5,25.7,25.5c0,4.1-1,8-2.8,11.4l2.9,0c1.6-3.5,2.5-7.4,2.5-11.4C102.8,34.1,90.1,21.5,74.4,21.5z"/>
		<path class="st4" d="M107.1,71.4c0-4.8-3.9-8.7-8.6-8.7L56,62.7c-0.9,0-1.7,0.1-2.5,0.4c0.4,0.7,1,1.3,1.4,1.9
			c0.8-0.4,1.6-0.6,2.5-0.6l39.4,0.1c3,0,5.5,2.5,5.5,5.6c0,3-2.5,5.5-5.6,5.5l-39.4-0.1c-3,0-5.5-2.5-5.5-5.6
			c0-0.5,0.1-1.1,0.2-1.6c-0.8-0.7-1.9-1.9-2.4-3c-1.5,1.6-2.4,3.7-2.4,6l10,38.7c0,4.8-1,8.2,3.2,8.3l33.8,0
			c2.8-0.1,2.1-3.6,2.1-8.3L107.1,71.4z"/>
		<path class="st3" d="M107.1,71.4c0-4.8-3.9-8.7-8.6-8.7l-21.3,0v1.7l19.6,0c3,0,5.5,2.5,5.5,5.6c0,3-2.5,5.5-5.6,5.5l-19.6,0v34.8
			c0,3.2-1.6,6.1-3.9,8l21.1,0c2.8-0.1,2.1-3.6,2.1-8.3L107.1,71.4z"/>
		<g>
			<path class="st5" d="M86.3,74.6l10.3,0c1.1,0,2.2-0.3,3.1-0.9c-0.8-1.4-2.3-2.4-4.1-2.4H59.8c0.5,1,0.9,2.1,1,3.3L86.3,74.6"/>
		</g>
	</g>
</g>
</svg>
