<?xml version="1.0" encoding="utf-8"?>
<!-- Generator: Adobe Illustrator 20.1.0, SVG Export Plug-In . SVG Version: 6.00 Build 0)  -->
<svg version="1.1" id="Layer_1" xmlns="http://www.w3.org/2000/svg" xmlns:xlink="http://www.w3.org/1999/xlink" x="0px" y="0px"
	 viewBox="0 0 150 150" style="enable-background:new 0 0 150 150;" xml:space="preserve">
<style type="text/css">
	.st0{clip-path:url(#SVGID_2_);fill:#B5D892;}
	.st1{opacity:0.48;clip-path:url(#SVGID_2_);fill:#39687A;}
	.st2{clip-path:url(#SVGID_2_);}
	.st3{fill:#3F3E31;}
	.st4{fill:#A39186;}
	.st5{fill:#005B8C;}
	.st6{fill:#B5D892;}
	.st7{fill:#009ADE;}
	.st8{fill:#DEECF8;}
	.st9{fill:#BBDAF3;}
	.st10{fill:none;stroke:#58595B;stroke-width:0.2835;stroke-miterlimit:10;}
	.st11{fill:#A6A8AB;}
	.st12{fill:#58595B;}
	.st13{clip-path:url(#SVGID_4_);fill:#B5D892;}
	.st14{clip-path:url(#SVGID_4_);}
	.st15{opacity:0.3;fill:#39687A;}
	.st16{fill:#158347;}
	.st17{fill:#DFECF9;}
	.st18{fill:#ABD592;}
	.st19{fill:#8BC53F;}
	.st20{fill:#A39186;stroke:#F1F1F2;stroke-miterlimit:10;}
	.st21{fill:#654011;}
	.st22{fill:#3F3E31;stroke:#F1F1F2;stroke-miterlimit:10;}
	.st23{fill:none;stroke:#F1F1F2;stroke-miterlimit:10;}
	.st24{fill:#E1B969;stroke:#F1F1F2;stroke-miterlimit:10;}
</style>
<g>
	<polygon class="st6" points="8,43.8 74.1,0.1 142.1,41.9 142.1,108.7 77,149.9 7.9,112.6 	"/>
	<g>
		<g>
			<rect x="74.1" y="80.9" class="st3" width="0.9" height="33.9"/>
			<rect x="72.8" y="113.6" class="st3" width="3.5" height="1.2"/>
			<rect x="88.9" y="104.8" class="st3" width="0.8" height="9.7"/>
			<rect x="87.5" y="113.7" class="st3" width="3.5" height="1.2"/>
			<rect x="74.5" y="104.5" class="st3" width="15.1" height="0.7"/>
			<polygon class="st3" points="89.6,104.6 89.1,105.6 74.2,81.3 75,80.8 			"/>
			<rect x="110.6" y="106.3" class="st3" width="0.8" height="8.1"/>
			<rect x="109.2" y="113.7" class="st3" width="3.5" height="1.2"/>
			
				<rect x="81.2" y="100.9" transform="matrix(-0.5186 -0.855 0.855 -0.5186 30.4404 235.5692)" class="st3" width="0.7" height="16.6"/>
			
				<rect x="81.9" y="100.9" transform="matrix(0.5186 -0.855 0.855 0.5186 -53.8024 122.8394)" class="st3" width="0.7" height="16.6"/>
			<polygon class="st7" points="124.8,104.6 91.2,104.6 74.7,77.6 108.3,77.6 			"/>
			<path class="st8" d="M106.5,103.6H94.1c-1,0-2.2-0.7-2.8-1.7L78.1,80.4c-0.6-0.9-0.2-1.7,0.7-1.7h12.4c1,0,2.2,0.7,2.8,1.7
				l13.2,21.6C107.8,102.9,107.5,103.6,106.5,103.6z"/>
			<path class="st8" d="M120.7,103.6l-9.7,0c-1,0-2.2-0.7-2.8-1.7L95.1,80.4c-0.6-0.9-0.2-1.7,0.7-1.7l10.3,0c1,0,2,0.6,2.7,1.6
				l13.4,21.9C122.8,103.2,121.7,103.6,120.7,103.6z"/>
			<polygon class="st3" points="74.7,78.1 74.7,79.4 91,106 91,104.5 			"/>
			<rect x="91.2" y="104.9" class="st3" width="33.6" height="1.1"/>
			<path class="st9" d="M107.3,102L94,80.4c-0.6-0.9-1.8-1.7-2.8-1.7l-1.3,0l12,19.8c0.6,0.9-0.1,1.7-1.1,1.7H90.3l1.1,1.8
				c0.6,0.9,1.8,1.7,2.8,1.7h12.4C107.5,103.6,107.8,102.9,107.3,102z"/>
			<g>
				<line class="st10" x1="78.8" y1="81.3" x2="94.5" y2="81.5"/>
				<line class="st10" x1="80" y1="83.3" x2="95.6" y2="83.5"/>
				<line class="st10" x1="81.4" y1="85.3" x2="96.9" y2="85.4"/>
				<line class="st10" x1="82.4" y1="87.3" x2="98.1" y2="87.4"/>
				<line class="st10" x1="83.8" y1="89.3" x2="99.5" y2="89.4"/>
				<line class="st10" x1="85.2" y1="91.6" x2="100.8" y2="91.7"/>
				<line class="st10" x1="86.6" y1="93.9" x2="102.2" y2="94.1"/>
				<line class="st10" x1="88.2" y1="96.6" x2="103.9" y2="96.7"/>
				<line class="st10" x1="89.9" y1="98.6" x2="105" y2="98.7"/>
				<line class="st10" x1="91.2" y1="100.9" x2="106.3" y2="101.1"/>
				<line class="st10" x1="90.2" y1="79" x2="104.8" y2="103.2"/>
				<line class="st10" x1="87.2" y1="79.1" x2="101.8" y2="103.3"/>
				<line class="st10" x1="84.5" y1="79.1" x2="99.1" y2="103.3"/>
				<line class="st10" x1="81" y1="79.1" x2="95.6" y2="103.2"/>
			</g>
			<path class="st9" d="M122.2,102.2l-13.4-21.9c-0.7-1-1.7-1.6-2.7-1.6L118,98.7c0.6,0.9-0.3,1.3-1.3,1.3l-9.7,0c0,0,0,0,0,0l1.2,2
				c0.6,0.9,1.8,1.7,2.8,1.7l9.7,0C121.7,103.6,122.8,103.2,122.2,102.2z"/>
			<g>
				<line class="st10" x1="96" y1="81.5" x2="109.2" y2="81.7"/>
				<line class="st10" x1="97.1" y1="83.5" x2="110.5" y2="83.6"/>
				<line class="st10" x1="98.3" y1="85.4" x2="111.6" y2="85.5"/>
				<line class="st10" x1="99.6" y1="87.4" x2="112.9" y2="87.6"/>
				<line class="st10" x1="100.8" y1="89.4" x2="114.1" y2="89.6"/>
				<line class="st10" x1="102.2" y1="91.7" x2="115.5" y2="91.8"/>
				<line class="st10" x1="103.6" y1="94" x2="116.9" y2="94.1"/>
				<line class="st10" x1="105.3" y1="96.7" x2="118.5" y2="96.8"/>
				<line class="st10" x1="106.5" y1="98.6" x2="119.8" y2="98.8"/>
				<line class="st10" x1="107.9" y1="100.9" x2="121.2" y2="101.1"/>
				<line class="st10" x1="106.3" y1="79.3" x2="120.8" y2="103.1"/>
				<line class="st10" x1="103.3" y1="79.3" x2="117.8" y2="103.3"/>
				<line class="st10" x1="100.6" y1="79.3" x2="115.1" y2="103.3"/>
				<line class="st10" x1="97.2" y1="79.3" x2="111.7" y2="103.2"/>
			</g>
		</g>
		<g>
			
				<rect x="41" y="60.6" transform="matrix(-0.9912 -0.1326 0.1326 -0.9912 70.9397 178.9465)" class="st3" width="0.9" height="53.1"/>
			<rect x="34.8" y="112.7" class="st3" width="6.8" height="2.3"/>
			<rect x="58.7" y="112.7" class="st3" width="6.8" height="2.3"/>
			<rect x="50.7" y="76" transform="matrix(0.7571 -0.6533 0.6533 0.7571 -45.92 55.0364)" class="st3" width="0.7" height="26.6"/>
			
				<rect x="57.9" y="60.7" transform="matrix(0.9912 -0.1326 0.1326 0.9912 -11.049 8.5153)" class="st3" width="0.9" height="53.1"/>
			<rect x="39.8" y="99.2" class="st3" width="20.3" height="0.8"/>
			
				<rect x="48.4" y="76" transform="matrix(-0.7571 -0.6533 0.6533 -0.7571 27.2775 188.67)" class="st3" width="0.7" height="26.6"/>
			<rect x="42.4" y="79" class="st3" width="15" height="0.8"/>
			
				<rect x="50.5" y="61.8" transform="matrix(0.7571 -0.6533 0.6533 0.7571 -34.3562 50.523)" class="st3" width="0.5" height="19.2"/>
			
				<rect x="48.8" y="61.8" transform="matrix(-0.7571 -0.6533 0.6533 -0.7571 39.5399 157.6178)" class="st3" width="0.5" height="19.2"/>
			<rect x="39.8" y="59.4" class="st3" width="18.9" height="2.2"/>
			<path class="st11" d="M55,33.8v-0.3c0-0.5-0.4-1-1-1h-9.7c-0.5,0-1,0.4-1,1v0.3H55z"/>
			<path class="st3" d="M71.4,48.6L71.4,48.6h-0.2H59v1.4h11.6l0,17.3c0,0-0.2,12.7,0,14.4c0.3,2.4,2.9,1.8,2.9,1.8
				c0,0.1,0-1.4,0-1.4s-1.3,0.3-1.4-0.7C71.9,77.4,72,66.9,72,66.9l0.1-17.6C72.1,48.9,71.8,48.6,71.4,48.6z"/>
			<g>
				<rect x="39.9" y="41" class="st11" width="18.6" height="11.1"/>
				<path class="st11" d="M58.5,40.5V36c0-0.9-0.7-1.6-1.6-1.6H41.5c-0.9,0-1.6,0.7-1.6,1.6v4.5H58.5z"/>
				<path class="st11" d="M39.9,52.7v1.8c0,0.1,0,0.1,0,0.2v3.8h18.5v-3.8c0-0.1,0-0.2,0-0.3v-1.8H39.9z"/>
			</g>
			<g>
				<path class="st12" d="M49.1,52.7v5.8h9.4v-3.8c0-0.1,0-0.2,0-0.3v-1.8H49.1z"/>
				<rect x="49.1" y="41" class="st12" width="9.4" height="11.1"/>
				<path class="st12" d="M56.9,34.5h-7.9v6h9.4V36C58.5,35.2,57.8,34.5,56.9,34.5z"/>
			</g>
		</g>
	</g>
</g>
</svg>
