<?xml version="1.0" encoding="utf-8"?>
<!-- Generator: Adobe Illustrator 20.1.0, SVG Export Plug-In . SVG Version: 6.00 Build 0)  -->
<svg version="1.1" id="Layer_1" xmlns="http://www.w3.org/2000/svg" xmlns:xlink="http://www.w3.org/1999/xlink" x="0px" y="0px"
	 viewBox="0 0 150 150" style="enable-background:new 0 0 150 150;" xml:space="preserve">
<style type="text/css">
	.st0{clip-path:url(#SVGID_2_);}
	.st1{fill:none;stroke:#3F3E31;stroke-linecap:round;stroke-linejoin:round;stroke-miterlimit:10;}
	.st2{fill:#FFFFFF;stroke:#3F3E31;stroke-linecap:round;stroke-linejoin:round;stroke-miterlimit:10;}
	.st3{clip-path:url(#SVGID_2_);fill:#FFFFFF;stroke:#3F3E31;stroke-linecap:round;stroke-linejoin:round;stroke-miterlimit:10;}
	.st4{fill:#3F3E31;}
	.st5{fill:#FFFFFF;}
	.st6{clip-path:url(#SVGID_4_);}
</style>
<g>
	<g>
		<defs>
			<ellipse id="SVGID_3_" cx="75" cy="75" rx="55.5" ry="55.5"/>
		</defs>
		<clipPath id="SVGID_2_">
			<use xlink:href="#SVGID_3_"  style="overflow:visible;"/>
		</clipPath>
		<g class="st0">
			<g>
				<path class="st2" d="M82.8,42h-10c-7.3,0-13.2,6.5-13.2,14.4v21.6c0,1.3,0.2,2.5,0.4,3.6c0.4,4.8,2.8,8.2,7.3,9.5
					c0.4,0.1,0.8-1.4,0.7-1.4c0,0,2.7-6.6,2.4-6.8c-3-1.8-6-4-7.8-7.5l0.1-15.1c0-1.1,0.5-3.1,0.7-4.1c2.8,1,6.6,0.4,10.4-1.5
					c2.6-1.3,5.2-3.3,6.5-5.2c0.9,1.4,2.2,3.1,4.2,4.1c2.5,1.2,5.7,2.1,7.6,1.6c0.4,1.4,0.8,3.4,0.8,5l0.1,14.3
					c-3.2,6.4-8.5,8.6-8.3,8.7c2.2,1,3.8,3.1,3.8,5.7c0,0.8-0.2,1.5-0.4,2.2c0.3-0.1,0.4-0.2,0.4-0.2c0.1-0.1,0.3-0.2,0.4-0.3
					c2.3-1.2,4.1-3.1,5.1-5.4c1.2-2.1,1.9-4.6,1.9-7.3V56.5C96,48.5,90.1,42,82.8,42z"/>
				<path class="st2" d="M91.1,56.5c-1.7,0.5-4.7,0-7-1.1c-1.8-0.9-3.1-2.2-3.9-3.5c-1.2,1.7-3.2,3.3-5.6,4.5
					c-3.5,1.7-7.9,2.5-10.4,1.6c-0.2,0.9-0.3,1.9-0.3,2.9v13.8c1.8,3.6,5,6.1,8,7.7l-3.4,9.5l8.4,16l2.2-3.7v-9.4
					c1,0.4,2,0.7,3.2,0.7c0.8,0,1.6-0.1,2.3-0.3l0.3-0.4c-0.8,0.4-1.7,0.6-2.6,0.6c-1.1,0-2-0.3-2.9-0.7v0c-2-1.1-3.3-3.1-3.3-5.5
					c0-3.4,2.8-6.2,6.2-6.2c0.4,0,0.8,0,1.2,0.1l-0.2-0.5c0,0,0,0,0.1,0l0-0.1c3.2-1.7,6.4-4.5,8.2-8.2l0.1-13.3
					C91.6,59.4,91.5,57.8,91.1,56.5z M77.5,79c-2.9,0-5.2-1.9-5.2-4.3c1.3,0.9,3.2,1.5,5.2,1.5c2.1,0,3.9-0.6,5.2-1.5
					C82.7,77.1,80.3,79,77.5,79z"/>
				<g>
					<path class="st2" d="M98.5,162.1c-0.6,2.1-1.4,4.3-2.4,6c-1,2.2-2.2,4.3-3.6,6.4c0,0-0.1,0.1-0.2,0.3c0.1,0,0.1,0,0.2,0
						c1.7-0.2,3-1.4,3.5-3c-0.3,2.1-2,3.6-3.9,3.6c-0.1,0-0.1,0-0.2,0c-1,1.5-2.7,4.3-0.1,3.7c2.7-0.6,6.2-4.6,6.5-5
						c9.5-10.5,11.5-28,11.1-42.6h-8.9C101.5,138.3,102.3,150.2,98.5,162.1z"/>
					<path class="st2" d="M85.5,108.6c-0.3-2.7-2.4-0.1-3.5,1.4c0,0-0.6,0.6-0.6,1.1c-0.1,1.4-0.7,3.5-1.4,4
						c1.1-1.6,1.3-3.8,0.6-5.3c-0.1-0.3-0.4-0.4-0.4-0.4c-0.1,0.1-1.7,5-3.2,6.5c0,0,0,0,0,0c-1.5,1.7-3.6,3.5-5.8,4.9
						c0,0,0,0,0.1,0c-5.3,3.9-10.9,8.3-15.8,10c-0.4,0.1-0.7,0.4-1.1,0.4c-4,0.2-6.7,0.1-9.6,0c0,0,2.2,9.8,4.7,11.4
						c3.9,2.4,26.7-13.6,33.4-26.1C83.2,116,85.8,111.3,85.5,108.6z"/>
					<path class="st2" d="M97.2,149.2c-6.9-4.4-14.2-12.6-15.8-28.6c-5.4,7.8-15.6,16.1-24.2,21.2l1,12.5c-0.6,1.8-5.2,13.2-5.7,16
						c4.6,0.1,5.6,0.1,7.2,0.1l34.1,0c0.1-0.2,4-8.8,4.5-10.2c-0.7-2.5-0.8-4.2-1.5-6L97.2,149.2z"/>
					<path class="st2" d="M80.2,106.4c-0.2-0.1-0.6-0.1-0.6-0.3c0-0.1-2.6,4.1-2.6,4.1l-9.8-18.3l-7.6-0.2
						c-6.8,0-10.4,6.9-11.6,13.4c0,0-2.6,11.5-3,24.9h9.8c0.6-3.1,0.9-4.1,0.9-4.1l0.4,3.9c5.4-2.6,8.3-4.9,14.3-9.2
						c4.4-3.1,5.8-4.9,5.9-4.9c1.5-1.9,3.9-6.4,4.1-6.9V106.4z"/>
					<path class="st2" d="M106.4,105.1c-1.2-6.5-4.8-13.4-11.6-13.4l-6.5,0.1c-0.4,0.8-2.8,4.6-2.8,4.6l0,8.3c0,0.7-0.4,1.3-1.1,1.7
						v0.7c0.7-0.3,1.3,0,1.5,1.5c0.2,1.8-0.6,4.1-1.5,5.9v3.1c0,0.6-0.6,1.1-1.3,1.2c0.2,0,0.4,0,0.5,0c1.3,15.2,7.8,23.6,13.9,28
						l2-20.8c0,0,0.4,0.8,0.8,3.8h9.1C109,116.5,106.4,105.1,106.4,105.1z"/>
				</g>
			</g>
		</g>
	</g>
</g>
<path class="st1" d="M44.3,120.3c0,0,12.4,12,34,10.3c22-1.7,31.3-11.7,31.3-11.7"/>
</svg>
