<?xml version="1.0" encoding="utf-8"?>
<!-- Generator: Adobe Illustrator 20.1.0, SVG Export Plug-In . SVG Version: 6.00 Build 0)  -->
<svg version="1.1" id="Layer_1" xmlns="http://www.w3.org/2000/svg" xmlns:xlink="http://www.w3.org/1999/xlink" x="0px" y="0px"
	 viewBox="0 0 150 150" style="enable-background:new 0 0 150 150;" xml:space="preserve">
<style type="text/css">
	.st0{clip-path:url(#SVGID_2_);}
	.st1{fill:none;stroke:#3F3E31;stroke-linecap:round;stroke-linejoin:round;stroke-miterlimit:10;}
	.st2{fill:#FFFFFF;stroke:#3F3E31;stroke-linecap:round;stroke-linejoin:round;stroke-miterlimit:10;}
	.st3{clip-path:url(#SVGID_2_);fill:#FFFFFF;stroke:#3F3E31;stroke-linecap:round;stroke-linejoin:round;stroke-miterlimit:10;}
	.st4{fill:#3F3E31;}
	.st5{fill:#FFFFFF;}
	.st6{clip-path:url(#SVGID_4_);}
</style>
<g>
	<g>
		<g>
			<g>
				<g>
					<defs>
						<path id="SVGID_1_" d="M126.6,74.9c0,10.7-3.2,20.6-8.8,28.8c-9.3,13.7-25,22.7-42.8,22.7c-20.9,0-38.9-12.4-47-30.3
							c-2.9-6.5-4.6-13.7-4.6-21.2c0-28.5,23.1-51.5,51.6-51.5S126.6,46.4,126.6,74.9z"/>
					</defs>
					<clipPath id="SVGID_2_">
						<use xlink:href="#SVGID_1_"  style="overflow:visible;"/>
					</clipPath>
					<g class="st0">
						<g>
							<g>
								<path class="st1" d="M52.7,86.4C52.7,86.4,52.7,86.4,52.7,86.4l0-0.1c2.6-1.4,5.3-3.7,6.7-6.7l0-11c0-1.2-0.1-2.4-0.4-3.5
									c-1.4,0.4-3.9,0-5.7-0.9c-1.5-0.7-2.5-1.8-3.2-2.9c-1,1.4-2.6,2.7-4.6,3.7c-2.8,1.4-6.4,2-8.6,1.3c-0.1,0.8-0.2,1.6-0.2,2.4
									V80c1.5,2.9,4.1,5,6.6,6.3l-2.8,7.8l6.9,13.2l7.9-13.1L52.7,86.4z"/>
							</g>
							<g>
								<path class="st1" d="M36.4,71.5v-3.2c0-0.9,0.1-1.7,0.2-2.6c2.3,0.8,5.6,0.5,8.7-1c2.1-1.1,3.8-2.5,4.9-4.1
									c0.7,1.2,2,2.3,3.6,3.1c2,1,4.1,1.3,5.7,0.8c0.3,1.2,0.5,2.4,0.5,3.8v3.1c1.2-0.9,1.8-6.4,1.8-6.4c0-6.5-3.5-11.8-9.5-11.8
									h-8.2c-6,0-9.5,4.8-9.5,11.3C34.6,64.5,35.1,70.5,36.4,71.5z"/>
							</g>
							<g>
								<path class="st1" d="M30,122.1c0,0,1,27.5,0.3,29c0.4,1.2,1.8,5.4,2.4,6.6c0.1,0.1,0.1,0.2,0.1,0.3c0.1,0.3,0.3,0.5,0.5,0.8
									l28.8,0c0.1-0.2,0.2-0.3,0.3-0.5c-0.1,0.1,0,0,0.3-0.5c0.6-1.2,2.2-5.4,2.6-6.6c-0.6-2,0.9-28.9,0.9-28.9s0.4,1.5,0.8,3.9
									h7.4c-0.3-11-2.2-19.8-2.2-19.8l-0.6-1.5c-1-5.3-3.7-10.9-9.3-10.9h-6l-8.7,14.5L40,94.1h-6.8c-5.6,0-8.3,5.5-9.3,10.9
									l-0.6,1.5c0,0-1.9,8.8-2.2,19.8h8C29.6,123.7,30,122.1,30,122.1z"/>
								<path class="st1" d="M65.2,151.9c-0.5,1.8-1.2,3.5-1.9,5c-0.8,1.8-1.8,3.6-3,5.3c0,0-0.1,0.1-0.2,0.2c0.1,0,0.1,0,0.2,0
									c1.4-0.2,2.4-1.1,2.9-2.4c-0.2,1.7-1.6,3-3.2,3c-0.1,0-0.1,0-0.2,0c-0.9,1.2-2.2,3.6-0.1,3.1c2.2-0.5,5.1-3.8,5.4-4.1
									c7.8-8.7,9.4-23.1,9.1-35h-7.3C67.6,132.4,68.3,142.2,65.2,151.9z"/>
								<path class="st1" d="M35.6,166c2.2,0.5,0.8-1.8-0.1-3.1c-0.1,0-0.1,0-0.2,0c-1.6,0-3-1.3-3.2-3c0.4,1.3,1.5,2.3,2.9,2.4
									c0.1,0,0.1,0,0.2,0c-0.1-0.1-0.1-0.2-0.2-0.2c-1-1.5-1.9-3.1-2.7-4.7c0,0,0,0,0,0c-0.9-1.6-1.7-3.8-2.2-5.8c0,0,0,0,0,0.1
									c-2.8-9.6-2-19.3-1.1-24.8h-7.9c-0.3,12,1.3,26.4,9.1,35C30.5,162.2,33.4,165.5,35.6,166z"/>
							</g>
						</g>
					</g>
					<g class="st0">
						<path class="st2" d="M96.1,88.6C96.1,88.6,96.2,88.6,96.1,88.6l0-0.1c3.5-1.9,7.1-4.9,9.1-9l0.1-14.7c0-1.6-0.1-3.3-0.5-4.8
							c-1.9,0.5-5.2,0-7.7-1.2c-2-1-3.4-2.4-4.3-3.9c-1.3,1.9-3.5,3.7-6.2,5c-3.8,1.9-8.7,2.7-11.5,1.7c-0.2,1-0.3,2.1-0.3,3.2V80
							c2,3.9,5.5,6.7,8.9,8.5L79.9,99l9.3,17.7l10.6-17.7L96.1,88.6z"/>
					</g>
					<g class="st0">
						<path class="st2" d="M65.5,136.6l2.8,31.4c-0.7,1.9-1.5,5.6-2.5,7.6c0.5,1.6,2.4,7.3,3.3,8.8c0.1,0.1,0.1,0.2,0.2,0.3
							c0.2,0.4,0.4,0.7,0.6,1.1l38.8,0c0.1-0.2,0.2-0.4,0.3-0.6c-0.1,0.1-0.1,0,0.3-0.7c0.9-1.6,2.9-7.3,3.5-8.8
							c-0.8-2.7-1.1-5.7-1.9-7.8l3.1-31.1c0,0,0.5,2,1,5.3h10c-0.5-14.8-3-26.6-3-26.6l-0.8-2c-1.3-7.2-4.9-14.6-12.5-14.6h-8.1
							L89,118.3L79,98.9h-9.2c-7.6,0-11.2,7.4-12.5,14.6l-0.8,2c0,0-2.6,11.8-3,26.6h10.7C64.9,138.7,65.5,136.6,65.5,136.6z"/>
						<path class="st2" d="M113,176.7c-0.6,2.4-1.6,4.7-2.6,6.7c-1.1,2.4-2.4,4.8-4,7.1c0,0-0.1,0.2-0.2,0.3c0.1,0,0.1,0,0.2,0
							c1.8-0.2,3.3-1.5,3.9-3.3c-0.3,2.3-2.2,4-4.4,4c-0.1,0-0.2,0-0.2,0c-1.2,1.7-3,4.8-0.1,4.1c3-0.7,6.9-5.1,7.2-5.5
							c10.6-11.6,12.7-31,12.3-47.1h-9.9C116.3,150.4,117.1,163.6,113,176.7z"/>
						<path class="st2" d="M73,195.5c2.9,0.7,1-2.5-0.1-4.1c-0.1,0-0.2,0-0.2,0c-2.2,0-4-1.7-4.4-4c0.6,1.7,2.1,3.1,3.9,3.3
							c0.1,0,0.1,0,0.2,0c-0.1-0.1-0.2-0.3-0.2-0.3c-1.4-2.1-2.6-4.2-3.6-6.4c0,0,0,0,0,0c-1.2-2.2-2.3-5-3-7.8c0,0,0,0,0,0.1
							c-3.8-12.9-2.7-25.9-1.5-33.3H53.5c-0.4,16.1,1.7,35.4,12.3,47.1C66.2,190.5,70.1,194.9,73,195.5z"/>
					</g>
					<path class="st3" d="M95.5,44H84.5c-0.9,0-1.8,0.1-2.6,0.3c-1.7,4.8-5.9,8.5-11,9.7c-0.7,1.9-1.1,3.9-1.1,6v23.9
						c0,1.4,0.2,2.7,0.5,4c0.5,5.3,3.8,9.4,8.8,10.8c0.5,0.1,0.8-1,0.8-0.9c0,0,3.3-8.7,3-8.9c-3.3-2-6.9-4.8-8.9-8.7V64.2
						c0-1.2,0.1-2.3,0.3-3.5c3.1,1.1,7.5,0.7,11.7-1.4c2.9-1.4,5.2-3.4,6.6-5.5c1,1.6,2.7,3.1,4.9,4.2c2.7,1.4,5.6,1.7,7.7,1.1
						c0.5,1.6,0.7,3.3,0.7,5v15.5c-2,4.2-5.5,7.2-9.1,9.2c-0.2,0.1,3.1,9.4,3.1,9.4s0.2,0.4,0.4,0.3c1-0.2,1.5-0.6,1.5-0.5
						c0.2-0.1,0.3-0.2,0.5-0.3c2.5-1.3,4.5-3.4,5.7-5.9c1.3-2.4,2.1-5.1,2.1-8.1V59.9C110.2,51.1,103.6,44,95.5,44z"/>
				</g>
			</g>
		</g>
		<path class="st1" d="M117.6,103.8c-9.3,13.8-25,22.8-42.9,22.8c-20.8,0-38.8-12.3-47-30.1"/>
	</g>
	<g>
		<path class="st2" d="M67.5,27.6c0,0-8.3,7.9-8.4,12.5c-0.2,6.7,4.9,9.6,8,9.6c3.2,0.1,8.6-2.1,8.6-9.5
			C75.8,35.7,67.5,27.6,67.5,27.6z"/>
		<path class="st1" d="M71.6,41.1c0,0,0.6,3.5-3.6,4.5"/>
		<circle class="st1" cx="67.6" cy="39.1" r="15.1"/>
	</g>
</g>
</svg>
