<?xml version="1.0" encoding="utf-8"?>
<!-- Generator: Adobe Illustrator 20.1.0, SVG Export Plug-In . SVG Version: 6.00 Build 0)  -->
<svg version="1.1" id="Layer_1" xmlns="http://www.w3.org/2000/svg" xmlns:xlink="http://www.w3.org/1999/xlink" x="0px" y="0px"
	 viewBox="0 0 150 150" style="enable-background:new 0 0 150 150;" xml:space="preserve">
<style type="text/css">
	.st0{clip-path:url(#SVGID_2_);}
	.st1{fill:none;stroke:#3F3E31;stroke-linecap:round;stroke-linejoin:round;stroke-miterlimit:10;}
	.st2{fill:#FFFFFF;stroke:#3F3E31;stroke-linecap:round;stroke-linejoin:round;stroke-miterlimit:10;}
	.st3{clip-path:url(#SVGID_2_);fill:#FFFFFF;stroke:#3F3E31;stroke-linecap:round;stroke-linejoin:round;stroke-miterlimit:10;}
	.st4{fill:#3F3E31;}
	.st5{fill:#FFFFFF;}
	.st6{clip-path:url(#SVGID_4_);}
</style>
<g>
	<path class="st4" d="M72.5,17.6c-18.6,0-33.7,14.9-33.7,33.3c0,8,2.9,15.4,7.6,21.2c0,0,1.1,1.4,2.3,2.4c0.6,0.6,1.2,1.2,1.9,1.7
		c0.8,0.6,1.5,1.8,1.8,4.2l3.5,0c-0.1-1.5-0.9-3.6-1.8-4.8c0,0-1.4-1.7-2-2.2c-6.2-5.5-10.1-13.6-10.1-22.5
		c0-16.7,13.7-30.2,30.5-30.2s30.5,13.6,30.4,30.3c0,4.9-1.2,9.5-3.3,13.6l3.5,0c1.9-4.1,2.9-8.7,2.9-13.6
		C106.1,32.6,91,17.6,72.5,17.6z"/>
	<path class="st1" d="M111.2,76.8c0-5.6-4.6-10.3-10.2-10.3l-50.3-0.1c-1,0-2,0.2-3,0.4c0.5,0.8,1.1,1.6,1.7,2.3
		c0.9-0.5,1.9-0.7,3-0.7l46.7,0.1c3.6,0,6.6,3,6.6,6.6c0,3.6-3,6.6-6.6,6.6l-46.7-0.1c-3.6,0-6.6-3-6.6-6.6c0-0.6,0.1-1.3,0.3-1.8
		c-1-0.9-2.3-2.2-2.8-3.5c-1.8,1.8-2.9,4.3-2.9,7.1l11.9,45.9c0,5.6-1.2,9.7,3.7,9.8l40.1,0c3.3-0.2,2.5-4.2,2.5-9.9L111.2,76.8z"/>
	<g>
		<path class="st4" d="M86.6,80.6l12.2,0c1.3,0,2.6-0.4,3.6-1.1c-0.9-1.7-2.8-2.9-4.8-2.9H55.2c0.6,1.2,1,2.5,1.2,3.9L86.6,80.6"/>
	</g>
</g>
<g>
	<g>
		<g>
			<path class="st4" d="M72.3,86.8L72.3,86.8C72.4,86.8,72.4,86.8,72.3,86.8c1.7,0.2,3.6,0,3.6,0c7-0.9,12.4-6.9,12.4-14.1
				c0-3.2-1.1-6.1-2.8-8.5l-1.2-1.5C83.6,62,83,61.5,83,61.5c-2.4-1.9-5.5-3.1-8.8-3.1c-7.9,0-14.2,6.4-14.2,14.2
				C59.9,79.9,65.3,85.9,72.3,86.8z M74.2,59.3c7.4,0,13.4,6,13.4,13.4c0,7.4-6,13.4-13.4,13.4c-7.4,0-13.4-6-13.4-13.4
				C60.8,65.3,66.8,59.3,74.2,59.3z"/>
		</g>
		<polygon class="st4" points="90.1,60.1 90.1,56.6 90.1,56.6 90.1,56.6 86.6,56.6 86.6,57.5 88.4,57.5 83.7,62.3 84.4,63 
			89.1,58.2 89.1,60.1 		"/>
		<rect x="73.7" y="86.5" class="st4" width="1" height="6.9"/>
		<rect x="73.7" y="89" transform="matrix(2.976800e-11 1 -1 2.976800e-11 165.5203 17.2396)" class="st4" width="1" height="4.7"/>
	</g>
	<g>
		<path class="st4" d="M73.8,80.3c0,0,7.1-2.4,8.4-5.1c1.9-3.8-0.1-6.8-1.9-7.8c-0.2,2.5-0.9,7.9-4.3,10.4c0,0,4.3-4.9,3.5-10.8
			c-2-0.8-5.1-1-7.2,3.5C71.1,73.3,73.8,80.3,73.8,80.3z"/>
		<path class="st5" d="M73.8,80.3c0,0-7.1-2.4-8.4-5.1c-1.9-3.8,0.1-6.8,1.9-7.8c0.2,2.5,0.9,7.9,4.3,10.4c0,0-4.3-4.9-3.5-10.8
			c2-0.8,5.1-1,7.2,3.5C76.5,73.3,73.8,80.3,73.8,80.3z"/>
	</g>
</g>
</svg>
