<?xml version="1.0" encoding="utf-8"?>
<!-- Generator: Adobe Illustrator 20.1.0, SVG Export Plug-In . SVG Version: 6.00 Build 0)  -->
<svg version="1.1" id="Layer_1" xmlns="http://www.w3.org/2000/svg" xmlns:xlink="http://www.w3.org/1999/xlink" x="0px" y="0px"
	 viewBox="0 0 480 480" style="enable-background:new 0 0 480 480;" xml:space="preserve">
<style type="text/css">
	.st0{fill:#F0F1F2;stroke:#0055AA;stroke-miterlimit:10;}
	.st1{fill:#0055AA;}
</style>
<path class="st0" d="M478,457.3c0,11.4-9.1,20.7-20.6,20.7H22.6C11.1,478,2,468.7,2,457.3V22.7C2,11.3,11.1,2,22.6,2h434.7
	c11.5,0,20.6,9.3,20.6,20.7L478,457.3L478,457.3z"/>
<g>
	<g>
		<path class="st1" d="M189.7,100.7h9.1v67.2h-9.1V100.7z"/>
		<path class="st1" d="M224.2,109.2c0,2.8-2.2,5.1-5.8,5.1c-3.3,0-5.5-2.3-5.5-5.1c0-2.8,2.3-5.2,5.7-5.2
			C221.9,104,224.2,106.2,224.2,109.2z M214,167.8V122h9.1v45.8H214z"/>
		<path class="st1" d="M238.2,134.4c0-4.8-0.2-8.6-0.4-12.4h7.9l0.4,7.5h0.3c2.8-4.4,7.4-8.4,15.8-8.4c6.7,0,11.9,3.8,14,9.2h0.2
			c1.5-2.6,3.6-4.5,5.7-6c3-2.1,6.2-3.2,10.9-3.2c6.7,0,16.5,4,16.5,19.9v26.9h-8.9V142c0-8.9-3.6-14.1-10.8-14.1
			c-5.3,0-9.2,3.5-10.8,7.5c-0.4,1.2-0.7,2.6-0.7,4.2v28.3h-8.9v-27.4c0-7.3-3.5-12.5-10.4-12.5c-5.6,0-9.8,4.2-11.2,8.3
			c-0.5,1.1-0.7,2.6-0.7,4.1v27.5h-8.9L238.2,134.4L238.2,134.4z"/>
		<path class="st1" d="M359.3,156.9c0,4,0.2,7.9,0.7,11h-8.1l-0.7-5.8h-0.3c-2.8,3.6-8.1,6.8-15.3,6.8c-10.1,0-15.3-6.5-15.3-13.2
			c0-11.1,10.7-17.1,30-17v-0.9c0-3.7-1.1-10.6-11.3-10.5c-4.7,0-9.6,1.2-13.1,3.4l-2.1-5.6c4.1-2.4,10.2-4,16.5-4
			c15.3,0,19,9.6,19,18.6L359.3,156.9L359.3,156.9z M350.5,144.5c-9.9-0.2-21.1,1.4-21.1,10.3c0,5.5,3.9,7.9,8.5,7.9
			c6.6,0,10.8-3.8,12.3-7.7c0.3-0.9,0.4-1.9,0.4-2.6L350.5,144.5L350.5,144.5z"/>
		<path class="st1" d="M384.4,111.1v11h13v6.3h-13v24.7c0,5.7,1.8,8.9,6.8,8.9c2.5,0,3.9-0.2,5.3-0.6l0.4,6.3
			c-1.8,0.6-4.5,1.1-8,1.1c-4.2,0-7.6-1.3-9.8-3.5c-2.5-2.6-3.5-6.6-3.5-12v-25h-7.7V122h7.7v-8.5L384.4,111.1z"/>
		<path class="st1" d="M412.1,146.5c0.2,11.3,7.9,15.9,17.1,15.9c6.5,0,10.5-1,13.8-2.4l1.7,6c-3.2,1.3-8.8,2.9-16.7,2.9
			c-15.4,0-24.5-9.4-24.5-23.2s8.9-24.6,23.4-24.6c16.4,0,20.6,13.1,20.6,21.5c0,1.7-0.1,2.9-0.3,3.9H412.1z M438.7,140.5
			c0.1-5.2-2.4-13.4-12.6-13.4c-9.3,0-13.2,7.7-13.9,13.4H438.7z"/>
	</g>
	<g>
		<path class="st1" d="M167.1,258.8c-7.8,3.8-24.3,7.7-45,7.7c-48,0-83.9-28.7-83.9-81.8c0-50.7,36.1-84.6,89-84.6
			c21,0,34.6,4.3,40.4,7.2l-5.6,17c-8.1-3.8-20-6.7-34.1-6.7c-39.9,0-66.5,24.1-66.5,66.5c0,39.7,24,64.8,65.2,64.8
			c13.6,0,27.3-2.6,36.1-6.7L167.1,258.8z"/>
	</g>
	<g>
		<path class="st1" d="M54.3,339.2l-6.5,19.7h-8.4l21.3-62.5h9.7l21.3,62.5h-8.6l-6.7-19.7H54.3z M74.9,332.8l-6.2-18
			c-1.4-4.1-2.3-7.8-3.2-11.4h-0.2c-0.9,3.6-1.9,7.5-3.2,11.3L56,332.8H74.9z"/>
		<path class="st1" d="M136.1,292.9v54.3c0,4,0.2,8.5,0.4,11.6h-7.2l-0.4-7.8h-0.3c-2.4,5-7.8,8.8-15.1,8.8
			c-10.9,0-19.3-9.2-19.3-22.8c-0.1-14.9,9.3-24,20.1-24c7,0,11.5,3.2,13.5,6.8h0.2V293h8.1V292.9z M128,332.2c0-1-0.1-2.4-0.4-3.4
			c-1.2-5.1-5.7-9.4-11.8-9.4c-8.4,0-13.5,7.4-13.5,17.3c0,9.1,4.5,16.6,13.3,16.6c5.5,0,10.5-3.7,12-9.7c0.3-1.1,0.4-2.2,0.4-3.5
			V332.2z"/>
		<path class="st1" d="M179,348.1c0,3.9,0.2,7.7,0.7,10.8h-7.3l-0.6-5.7h-0.3c-2.5,3.5-7.3,6.7-13.7,6.7c-9.1,0-13.7-6.4-13.7-12.9
			c0-10.9,9.6-16.8,27-16.7v-0.9c0-3.6-1-10.4-10.2-10.3c-4.3,0-8.6,1.2-11.8,3.3l-1.9-5.5c3.7-2.3,9.2-3.9,14.8-3.9
			c13.7,0,17.1,9.4,17.1,18.3v16.8H179z M171.1,335.9c-8.9-0.2-19,1.4-19,10.1c0,5.4,3.5,7.8,7.6,7.8c5.9,0,9.7-3.7,11-7.5
			c0.3-0.9,0.4-1.9,0.4-2.6V335.9z"/>
		<path class="st1" d="M190,328.6c0-5.8-0.2-10.4-0.4-14.7h7.2l0.5,7.7h0.2c3.2-5.5,8.6-8.6,16-8.6c10.9,0,19.1,9.2,19.1,22.7
			c0,16.1-9.9,24.1-20.5,24.1c-5.9,0-11.1-2.6-13.8-7.1h-0.2v24.4H190V328.6z M198.1,340.5c0,1.2,0.1,2.3,0.4,3.3
			c1.5,5.7,6.4,9.6,12.2,9.6c8.6,0,13.6-7.1,13.6-17.4c0-8.9-4.7-16.6-13.4-16.6c-5.6,0-10.9,3.9-12.3,10c-0.3,1-0.6,2.2-0.6,3.2
			v7.9H198.1z"/>
		<path class="st1" d="M250.4,303.2V314h11.7v6.2h-11.7v24.2c0,5.6,1.6,8.7,6.1,8.7c2.2,0,3.5-0.2,4.7-0.6l0.4,6.2
			c-1.6,0.6-4.1,1.1-7.2,1.1c-3.8,0-6.9-1.3-8.8-3.4c-2.2-2.5-3.2-6.5-3.2-11.8v-24.5h-7v-6.2h7v-8.4L250.4,303.2z"/>
		<path class="st1" d="M300.6,348.1c0,3.9,0.2,7.7,0.7,10.8H294l-0.6-5.7H293c-2.5,3.5-7.3,6.7-13.7,6.7c-9.1,0-13.7-6.4-13.7-12.9
			c0-10.9,9.6-16.8,27-16.7v-0.9c0-3.6-1-10.4-10.2-10.3c-4.3,0-8.6,1.2-11.8,3.3l-1.9-5.5c3.7-2.3,9.2-3.9,14.8-3.9
			c13.7,0,17.1,9.4,17.1,18.3L300.6,348.1L300.6,348.1z M292.7,335.9c-8.9-0.2-19,1.4-19,10.1c0,5.4,3.5,7.8,7.6,7.8
			c5.9,0,9.7-3.7,11-7.5c0.3-0.9,0.4-1.9,0.4-2.6V335.9z"/>
		<path class="st1" d="M321,303.2V314h11.7v6.2H321v24.2c0,5.6,1.6,8.7,6.1,8.7c2.2,0,3.5-0.2,4.7-0.6l0.4,6.2
			c-1.6,0.6-4.1,1.1-7.2,1.1c-3.8,0-6.9-1.3-8.8-3.4c-2.2-2.5-3.2-6.5-3.2-11.8v-24.5h-7v-6.2h7v-8.4L321,303.2z"/>
		<path class="st1" d="M348.7,301.3c0,2.8-1.9,5-5.2,5c-3,0-4.9-2.2-4.9-5s2-5.1,5.1-5.1C346.7,296.2,348.7,298.4,348.7,301.3z
			 M339.6,358.8v-44.9h8.2v44.9H339.6z"/>
		<path class="st1" d="M399.8,336c0,16.6-11.6,23.8-22.4,23.8c-12.1,0-21.5-8.9-21.5-23.1c0-14.9,9.9-23.8,22.3-23.8
			C391,313,399.8,322.4,399.8,336z M364.2,336.5c0,9.8,5.6,17.3,13.5,17.3c7.8,0,13.6-7.3,13.6-17.4c0-7.6-3.8-17.2-13.5-17.2
			C368.4,319.1,364.2,328,364.2,336.5z"/>
		<path class="st1" d="M407.8,326.1c0-4.7-0.1-8.4-0.4-12.2h7.2l0.5,7.4h0.2c2.2-4.2,7.4-8.4,14.8-8.4c6.2,0,15.9,3.7,15.9,19.1
			v26.7h-8.2v-25.9c0-7.2-2.7-13.3-10.4-13.3c-5.3,0-9.5,3.8-10.9,8.4c-0.4,1-0.6,2.4-0.6,3.8v27h-8.2v-32.6H407.8z"/>
	</g>
	<g>
		<path class="st1" d="M189.3,197.6h8.6v28.7h0.2c1.4-2.4,3.5-4.5,6.1-6c2.5-1.4,5.6-2.3,8.8-2.3c6.3,0,16.5,3.8,16.5,19.5v27.2
			h-8.6v-26.3c0-7.4-2.8-13.5-10.9-13.5c-5.6,0-9.8,3.8-11.5,8.2c-0.5,1.2-0.6,2.5-0.6,4v27.6h-8.6V197.6z"/>
		<path class="st1" d="M278.5,253.8c0,4,0.2,7.9,0.7,11h-7.7l-0.7-5.8h-0.3c-2.6,3.6-7.7,6.8-14.4,6.8c-9.6,0-14.4-6.5-14.4-13.2
			c0-11.1,10.1-17.1,28.4-17v-0.9c0-3.7-1.1-10.6-10.7-10.5c-4.5,0-9.1,1.2-12.4,3.4l-1.9-5.6c3.9-2.4,9.6-4,15.6-4
			c14.4,0,17.9,9.6,17.9,18.6v17.2H278.5z M270.2,241.4c-9.4-0.2-20,1.4-20,10.3c0,5.5,3.7,7.9,8,7.9c6.2,0,10.2-3.8,11.6-7.7
			c0.3-0.9,0.4-1.9,0.4-2.6V241.4z"/>
		<path class="st1" d="M294.3,231.3c0-4.8-0.1-8.6-0.4-12.4h7.6l0.5,7.6h0.2c2.3-4.3,7.8-8.5,15.6-8.5c6.5,0,16.7,3.8,16.7,19.5
			v27.2h-8.6v-26.4c0-7.4-2.8-13.5-10.9-13.5c-5.6,0-9.9,3.9-11.5,8.5c-0.4,1-0.6,2.5-0.6,3.9v27.5h-8.6L294.3,231.3L294.3,231.3z"
			/>
		<path class="st1" d="M390.6,258c0,10.6-2.2,16.9-6.7,21c-4.7,4.1-11.3,5.5-17.2,5.5c-5.7,0-11.9-1.3-15.7-3.8l2.1-6.4
			c3.1,2,8,3.7,13.8,3.7c8.8,0,15.2-4.4,15.2-16.1v-5H382c-2.5,4.3-7.7,7.7-15,7.7c-11.7,0-20.1-9.7-20.1-22.3
			c0-15.5,10.4-24.2,21.3-24.2c8.2,0,12.6,4.1,14.7,7.9h0.2l0.3-6.9h7.6c-0.3,3.2-0.4,7-0.4,12.5V258z M382.1,237
			c0-1.4-0.1-2.6-0.5-3.7c-1.6-4.9-5.7-8.9-12-8.9c-8.2,0-14,6.7-14,17.3c0,9,4.8,16.5,13.9,16.5c5.4,0,10.1-3.2,11.9-8.5
			c0.5-1.4,0.7-3,0.7-4.4V237z"/>
		<path class="st1" d="M411.5,243.4c0.2,11.3,7.5,15.9,16.2,15.9c6.1,0,9.9-1,13.1-2.4l1.6,6c-3,1.3-8.3,2.9-15.8,2.9
			c-14.5,0-23.2-9.4-23.2-23.2s8.4-24.6,22.1-24.6c15.5,0,19.5,13.1,19.5,21.5c0,1.7-0.1,2.9-0.3,3.9L411.5,243.4L411.5,243.4z
			 M436.6,237.4c0.1-5.2-2.2-13.4-11.9-13.4c-8.8,0-12.5,7.7-13.2,13.4H436.6z"/>
	</g>
</g>
</svg>
